Grandstander-Regular.ufo
<glyph name="exclam" format="2">
  <advance width="708.0"/>
  <unicode hex="0021"/>
  <outline>
    <contour>
      <point x="383.875" y="389.0" type="curve"/>
      <point x="388.0" y="658.0"/>
      <point x="418.5" y="1288.375"/>
      <point x="440.875" y="1462.125" type="curve"/>
      <point x="216.5" y="1472.375" type="line"/>
      <point x="202.75" y="1246.75"/>
      <point x="203.875" y="716.25"/>
      <point x="214.0" y="397.875" type="curve"/>
      <point x="250.25" y="392.875"/>
      <point x="348.25" y="389.0"/>
    </contour>
    <contour>
      <point x="308.25" y="-26.625" type="curve" smooth="yes"/>
      <point x="398.25" y="-26.625"/>
      <point x="467.75" y="34.0"/>
      <point x="467.75" y="126.125" type="curve" smooth="yes"/>
      <point x="467.75" y="210.75"/>
      <point x="395.375" y="271.875"/>
      <point x="305.5" y="271.875" type="curve" smooth="yes"/>
      <point x="219.875" y="271.875"/>
      <point x="141.0" y="219.0"/>
      <point x="141.0" y="128.0" type="curve" smooth="yes"/>
      <point x="141.0" y="38.375"/>
      <point x="207.125" y="-26.625"/>
    </contour>
  </outline>
</glyph>
<glyph name="quotedbl" format="2">
  <advance width="764.0"/>
  <unicode hex="0022"/>
  <outline>
    <contour>
      <point x="288.875" y="1036.875" type="curve"/>
      <point x="303.875" y="1123.25"/>
      <point x="312.125" y="1276.5"/>
      <point x="312.125" y="1400.625" type="curve" smooth="yes"/>
      <point x="312.125" y="1424.875"/>
      <point x="311.375" y="1444.375"/>
      <point x="309.875" y="1457.5" type="curve"/>
      <point x="292.0" y="1460.0"/>
      <point x="272.625" y="1460.75"/>
      <point x="252.875" y="1460.75" type="curve" smooth="yes"/>
      <point x="210.125" y="1460.75"/>
      <point x="176.0" y="1454.75"/>
      <point x="142.875" y="1446.5" type="curve"/>
      <point x="142.875" y="1370.875"/>
      <point x="162.5" y="1148.0"/>
      <point x="181.875" y="1046.375" type="curve"/>
      <point x="211.75" y="1040.875"/>
      <point x="251.0" y="1036.875"/>
    </contour>
    <contour>
      <point x="427.125" y="1042.625" type="curve"/>
      <point x="447.875" y="1042.0"/>
      <point x="488.375" y="1043.25"/>
      <point x="541.25" y="1048.875" type="curve"/>
      <point x="561.625" y="1155.25"/>
      <point x="584.25" y="1328.625"/>
      <point x="584.25" y="1412.5" type="curve" smooth="yes"/>
      <point x="584.25" y="1429.0"/>
      <point x="583.875" y="1443.0"/>
      <point x="582.875" y="1450.875" type="curve"/>
      <point x="538.25" y="1455.375"/>
      <point x="472.125" y="1454.75"/>
      <point x="421.625" y="1453.5" type="curve"/>
      <point x="418.75" y="1417.0"/>
      <point x="417.5" y="1325.0"/>
      <point x="417.5" y="1251.875" type="curve" smooth="yes"/>
      <point x="417.5" y="1192.125"/>
      <point x="422.75" y="1086.875"/>
    </contour>
  </outline>
</glyph>
<glyph name="numbersign" format="2">
  <advance width="1511.0"/>
  <unicode hex="0023"/>
  <outline>
    <contour>
      <point x="57.25" y="858.75" type="curve"/>
      <point x="249.5" y="861.0"/>
      <point x="513.625" y="871.125"/>
      <point x="781.375" y="882.875" type="curve" smooth="yes"/>
      <point x="1014.625" y="893.375"/>
      <point x="1256.75" y="903.75"/>
      <point x="1462.0" y="907.5" type="curve"/>
      <point x="1469.75" y="942.875"/>
      <point x="1476.25" y="1051.875"/>
      <point x="1476.25" y="1089.75" type="curve"/>
      <point x="1253.0" y="1087.875"/>
      <point x="1004.875" y="1073.625"/>
      <point x="754.0" y="1058.25" type="curve" smooth="yes"/>
      <point x="523.75" y="1044.0"/>
      <point x="268.5" y="1028.25"/>
      <point x="66.5" y="1024.875" type="curve"/>
      <point x="63.25" y="1004.125"/>
      <point x="57.25" y="904.625"/>
    </contour>
    <contour>
      <point x="1409.5" y="426.875" type="curve"/>
      <point x="1417.0" y="455.375"/>
      <point x="1431.5" y="565.125"/>
      <point x="1431.5" y="611.125" type="curve"/>
      <point x="1264.625" y="616.75"/>
      <point x="1092.375" y="620.25"/>
      <point x="919.625" y="622.125" type="curve" smooth="yes"/>
      <point x="766.0" y="624.0"/>
      <point x="611.875" y="624.5"/>
      <point x="459.25" y="622.625" type="curve" smooth="yes"/>
      <point x="314.25" y="620.375"/>
      <point x="171.875" y="617.125"/>
      <point x="34.75" y="611.375" type="curve"/>
      <point x="29.75" y="582.0"/>
      <point x="21.5" y="485.875"/>
      <point x="21.5" y="451.75" type="curve"/>
      <point x="100.75" y="456.0"/>
      <point x="189.75" y="457.75"/>
      <point x="285.875" y="457.75" type="curve" smooth="yes"/>
      <point x="444.25" y="457.75"/>
      <point x="622.625" y="456.625"/>
      <point x="801.625" y="449.375" type="curve" smooth="yes"/>
      <point x="1011.625" y="441.0"/>
      <point x="1222.75" y="431.75"/>
    </contour>
    <contour>
      <point x="402.375" y="4.75" type="curve"/>
      <point x="445.0" y="4.75"/>
      <point x="560.375" y="12.75"/>
      <point x="593.875" y="19.25" type="curve"/>
      <point x="593.875" y="485.625"/>
      <point x="609.25" y="1122.5"/>
      <point x="629.125" y="1476.25" type="curve"/>
      <point x="569.5" y="1476.25"/>
      <point x="487.5" y="1474.5"/>
      <point x="456.625" y="1468.125" type="curve"/>
      <point x="422.125" y="1059.375"/>
      <point x="402.375" y="456.75"/>
    </contour>
    <contour>
      <point x="938.0" y="71.625" type="curve"/>
      <point x="977.125" y="71.625"/>
      <point x="1094.25" y="89.125"/>
      <point x="1126.875" y="95.375" type="curve"/>
      <point x="1101.125" y="385.375"/>
      <point x="1088.5" y="731.625"/>
      <point x="1088.5" y="1040.75" type="curve" smooth="yes"/>
      <point x="1088.5" y="1203.0"/>
      <point x="1090.875" y="1355.375"/>
      <point x="1096.625" y="1483.25" type="curve"/>
      <point x="1055.625" y="1483.25"/>
      <point x="957.125" y="1476.375"/>
      <point x="928.125" y="1471.375" type="curve"/>
      <point x="915.625" y="1279.875"/>
      <point x="909.75" y="1072.5"/>
      <point x="909.75" y="859.375" type="curve" smooth="yes"/>
      <point x="909.75" y="599.375"/>
      <point x="918.375" y="328.0"/>
    </contour>
  </outline>
</glyph>
<glyph name="dollar" format="2">
  <advance width="1027.0"/>
  <unicode hex="0024"/>
  <anchor x="519.0" y="84.5" name="bottom"/>
  <anchor x="531.5" y="1252.875" name="top"/>
  <outline>
    <contour>
      <point x="585.75" y="-82.0" type="line"/>
      <point x="587.625" y="-24.375"/>
      <point x="592.75" y="96.125"/>
      <point x="595.75" y="140.125" type="curve"/>
      <point x="424.5" y="150.375" type="line"/>
      <point x="418.125" y="116.375"/>
      <point x="399.75" y="-49.375"/>
      <point x="398.5" y="-79.125" type="curve"/>
    </contour>
    <contour>
      <point x="440.375" y="1213.0" type="curve"/>
      <point x="600.125" y="1213.75" type="line"/>
      <point x="602.0" y="1257.75"/>
      <point x="602.625" y="1367.5"/>
      <point x="601.875" y="1414.5" type="curve"/>
      <point x="448.0" y="1408.375" type="line"/>
      <point x="446.5" y="1374.0"/>
      <point x="442.375" y="1248.0"/>
    </contour>
    <component base="s" xOffset="18.75" yOffset="148.25"/>
  </outline>
</glyph>
<glyph name="percent" format="2">
  <advance width="1385.0"/>
  <unicode hex="0025"/>
  <outline>
    <contour>
      <point x="189.0" y="-21.125" type="curve"/>
      <point x="396.875" y="207.25"/>
      <point x="1010.875" y="1023.375"/>
      <point x="1207.875" y="1332.5" type="curve"/>
      <point x="1183.5" y="1363.625"/>
      <point x="1133.625" y="1409.125"/>
      <point x="1090.125" y="1428.125" type="curve"/>
      <point x="895.75" y="1107.375"/>
      <point x="354.875" y="389.5"/>
      <point x="78.75" y="58.625" type="curve"/>
      <point x="103.75" y="36.125"/>
      <point x="162.125" y="-3.625"/>
    </contour>
    <contour>
      <point x="991.75" y="233.875" type="curve" smooth="yes"/>
      <point x="900.125" y="233.875"/>
      <point x="856.75" y="294.75"/>
      <point x="856.75" y="380.5" type="curve" smooth="yes"/>
      <point x="856.75" y="454.0"/>
      <point x="917.875" y="509.125"/>
      <point x="988.75" y="509.125" type="curve" smooth="yes"/>
      <point x="1070.25" y="509.125"/>
      <point x="1123.0" y="460.375"/>
      <point x="1123.0" y="376.75" type="curve" smooth="yes"/>
      <point x="1123.0" y="282.625"/>
      <point x="1068.625" y="233.875"/>
    </contour>
    <contour>
      <point x="984.5" y="117.5" type="curve" smooth="yes"/>
      <point x="1133.0" y="117.5"/>
      <point x="1245.375" y="210.5"/>
      <point x="1245.375" y="371.125" type="curve" smooth="yes"/>
      <point x="1245.375" y="518.25"/>
      <point x="1155.125" y="626.75"/>
      <point x="991.25" y="626.75" type="curve" smooth="yes"/>
      <point x="845.75" y="626.75"/>
      <point x="733.75" y="510.25"/>
      <point x="733.75" y="361.125" type="curve" smooth="yes"/>
      <point x="733.75" y="199.375"/>
      <point x="838.875" y="117.5"/>
    </contour>
    <contour>
      <point x="369.75" y="785.375" type="curve" smooth="yes"/>
      <point x="504.5" y="785.375"/>
      <point x="636.125" y="876.125"/>
      <point x="636.125" y="1041.0" type="curve" smooth="yes"/>
      <point x="636.125" y="1197.25"/>
      <point x="538.5" y="1293.25"/>
      <point x="384.875" y="1293.25" type="curve" smooth="yes"/>
      <point x="235.25" y="1293.25"/>
      <point x="112.75" y="1196.5"/>
      <point x="112.75" y="1034.875" type="curve" smooth="yes"/>
      <point x="112.75" y="890.625"/>
      <point x="217.0" y="785.375"/>
    </contour>
    <contour>
      <point x="379.0" y="914.125" type="curve" smooth="yes"/>
      <point x="295.75" y="914.125"/>
      <point x="245.25" y="958.75"/>
      <point x="245.25" y="1047.375" type="curve" smooth="yes"/>
      <point x="245.25" y="1131.875"/>
      <point x="305.25" y="1178.625"/>
      <point x="388.625" y="1178.625" type="curve" smooth="yes"/>
      <point x="459.75" y="1178.625"/>
      <point x="507.625" y="1125.75"/>
      <point x="507.625" y="1043.0" type="curve" smooth="yes"/>
      <point x="507.625" y="957.25"/>
      <point x="455.625" y="914.125"/>
    </contour>
  </outline>
</glyph>
<glyph name="ampersand" format="2">
  <advance width="1395.0"/>
  <unicode hex="0026"/>
  <outline>
    <contour>
      <point x="534.125" y="-96.25" type="curve" smooth="yes"/>
      <point x="817.625" y="-96.25"/>
      <point x="983.375" y="74.125"/>
      <point x="1027.75" y="130.125" type="curve"/>
      <point x="1061.625" y="88.0"/>
      <point x="1140.125" y="-7.875"/>
      <point x="1180.5" y="-54.5" type="curve"/>
      <point x="1216.25" y="-33.5"/>
      <point x="1280.0" y="31.5"/>
      <point x="1307.375" y="69.25" type="curve"/>
      <point x="1258.375" y="123.875"/>
      <point x="1180.875" y="207.625"/>
      <point x="1129.125" y="261.5" type="curve"/>
      <point x="1186.25" y="338.625"/>
      <point x="1268.75" y="465.5"/>
      <point x="1283.375" y="502.0" type="curve"/>
      <point x="1248.625" y="537.0"/>
      <point x="1187.25" y="583.875"/>
      <point x="1150.25" y="602.875" type="curve"/>
      <point x="1136.875" y="575.125"/>
      <point x="1053.75" y="429.875"/>
      <point x="1017.25" y="383.25" type="curve"/>
      <point x="911.0" y="502.625"/>
      <point x="723.25" y="713.875"/>
      <point x="639.25" y="807.75" type="curve"/>
      <point x="766.875" y="918.5"/>
      <point x="852.25" y="1002.625"/>
      <point x="852.25" y="1159.75" type="curve" smooth="yes"/>
      <point x="852.25" y="1298.0"/>
      <point x="747.875" y="1420.75"/>
      <point x="561.0" y="1420.75" type="curve" smooth="yes"/>
      <point x="390.0" y="1420.75"/>
      <point x="236.375" y="1341.75"/>
      <point x="236.375" y="1144.375" type="curve" smooth="yes"/>
      <point x="236.375" y="1005.75"/>
      <point x="346.625" y="878.375"/>
      <point x="394.0" y="833.375" type="curve"/>
      <point x="244.25" y="737.75"/>
      <point x="50.0" y="577.0"/>
      <point x="50.0" y="329.0" type="curve" smooth="yes"/>
      <point x="50.0" y="63.625"/>
      <point x="236.25" y="-96.25"/>
    </contour>
    <contour>
      <point x="552.875" y="60.375" type="curve" smooth="yes"/>
      <point x="375.625" y="60.375"/>
      <point x="234.0" y="163.75"/>
      <point x="234.0" y="328.25" type="curve" smooth="yes"/>
      <point x="234.0" y="525.25"/>
      <point x="381.625" y="645.875"/>
      <point x="502.25" y="727.75" type="curve"/>
      <point x="591.25" y="621.75"/>
      <point x="806.5" y="372.75"/>
      <point x="918.75" y="255.125" type="curve"/>
      <point x="881.75" y="206.0"/>
      <point x="751.5" y="60.375"/>
    </contour>
    <contour>
      <point x="529.375" y="907.75" type="curve"/>
      <point x="470.875" y="968.75"/>
      <point x="405.125" y="1059.25"/>
      <point x="405.125" y="1148.75" type="curve" smooth="yes"/>
      <point x="405.125" y="1231.125"/>
      <point x="469.75" y="1286.25"/>
      <point x="551.375" y="1286.25" type="curve" smooth="yes"/>
      <point x="649.125" y="1286.25"/>
      <point x="687.5" y="1228.375"/>
      <point x="687.5" y="1159.875" type="curve" smooth="yes"/>
      <point x="687.5" y="1056.625"/>
      <point x="616.25" y="967.125"/>
    </contour>
  </outline>
</glyph>
<glyph name="quotesingle" format="2">
  <advance width="462.0"/>
  <unicode hex="0027"/>
  <outline>
    <contour>
      <point x="313.75" y="1382.75" type="curve" smooth="yes"/>
      <point x="313.75" y="1411.625"/>
      <point x="313.375" y="1437.0"/>
      <point x="311.625" y="1456.625" type="curve"/>
      <point x="291.375" y="1459.125"/>
      <point x="268.5" y="1460.5"/>
      <point x="244.875" y="1460.5" type="curve" smooth="yes"/>
      <point x="206.75" y="1460.5"/>
      <point x="166.875" y="1457.0"/>
      <point x="129.875" y="1450.5" type="curve"/>
      <point x="129.875" y="1367.75"/>
      <point x="157.25" y="1132.125"/>
      <point x="174.25" y="1016.875" type="curve"/>
      <point x="193.5" y="1014.75"/>
      <point x="214.75" y="1012.375"/>
      <point x="236.0" y="1012.375" type="curve" smooth="yes"/>
      <point x="252.0" y="1012.375"/>
      <point x="268.375" y="1013.125"/>
      <point x="287.0" y="1015.25" type="curve"/>
      <point x="303.75" y="1120.25"/>
      <point x="313.75" y="1273.5"/>
    </contour>
  </outline>
</glyph>
<glyph name="parenleft" format="2">
  <advance width="677.0"/>
  <unicode hex="0028"/>
  <outline>
    <contour>
      <point x="357.625" y="-499.25" type="curve"/>
      <point x="392.5" y="-483.0"/>
      <point x="481.125" y="-421.625"/>
      <point x="514.875" y="-394.25" type="curve"/>
      <point x="376.0" y="-223.625"/>
      <point x="278.375" y="121.625"/>
      <point x="278.375" y="501.25" type="curve" smooth="yes"/>
      <point x="278.375" y="838.625"/>
      <point x="363.875" y="1196.875"/>
      <point x="508.375" y="1473.75" type="curve"/>
      <point x="469.125" y="1494.625"/>
      <point x="384.125" y="1523.125"/>
      <point x="321.375" y="1533.125" type="curve"/>
      <point x="174.375" y="1280.375"/>
      <point x="84.5" y="889.875"/>
      <point x="84.5" y="513.875" type="curve" smooth="yes"/>
      <point x="84.5" y="102.875"/>
      <point x="187.75" y="-290.875"/>
    </contour>
  </outline>
</glyph>
<glyph name="parenright" format="2">
  <advance width="651.0"/>
  <unicode hex="0029"/>
  <outline>
    <contour>
      <point x="305.375" y="609.625" type="curve" smooth="yes"/>
      <point x="305.375" y="189.25"/>
      <point x="222.125" y="-134.875"/>
      <point x="71.875" y="-366.625" type="curve"/>
      <point x="101.0" y="-390.875"/>
      <point x="191.25" y="-437.25"/>
      <point x="231.875" y="-449.875" type="curve"/>
      <point x="406.125" y="-201.75"/>
      <point x="506.375" y="264.125"/>
      <point x="506.375" y="589.75" type="curve" smooth="yes"/>
      <point x="506.375" y="920.0"/>
      <point x="414.875" y="1294.375"/>
      <point x="234.0" y="1536.875" type="curve"/>
      <point x="175.0" y="1523.5"/>
      <point x="98.25" y="1498.5"/>
      <point x="52.25" y="1471.875" type="curve"/>
      <point x="187.125" y="1307.625"/>
      <point x="305.375" y="959.625"/>
    </contour>
  </outline>
</glyph>
<glyph name="asterisk" format="2">
  <advance width="940.875"/>
  <unicode hex="002A"/>
  <outline>
    <contour>
      <point x="757.875" y="987.5" type="curve"/>
      <point x="780.25" y="1019.5"/>
      <point x="826.25" y="1091.25"/>
      <point x="838.125" y="1125.25" type="curve"/>
      <point x="742.125" y="1178.25"/>
      <point x="584.125" y="1248.875"/>
      <point x="487.125" y="1289.875" type="curve"/>
      <point x="395.125" y="1352.875"/>
      <point x="233.375" y="1450.75"/>
      <point x="148.375" y="1501.0" type="curve"/>
      <point x="126.0" y="1467.875"/>
      <point x="84.5" y="1397.75"/>
      <point x="67.5" y="1359.125" type="curve"/>
      <point x="163.625" y="1306.5"/>
      <point x="320.75" y="1237.125"/>
      <point x="419.875" y="1196.125" type="curve"/>
      <point x="511.0" y="1132.375"/>
      <point x="662.625" y="1039.5"/>
    </contour>
    <contour>
      <point x="466.625" y="870.5" type="curve" smooth="yes"/>
      <point x="500.25" y="870.5"/>
      <point x="532.875" y="873.625"/>
      <point x="548.25" y="876.375" type="curve"/>
      <point x="547.125" y="964.125"/>
      <point x="535.625" y="1144.125"/>
      <point x="528.75" y="1248.75" type="curve"/>
      <point x="537.875" y="1342.125"/>
      <point x="544.5" y="1463.875"/>
      <point x="544.5" y="1573.25" type="curve"/>
      <point x="528.75" y="1576.625"/>
      <point x="497.0" y="1579.0"/>
      <point x="464.875" y="1579.0" type="curve" smooth="yes"/>
      <point x="432.75" y="1579.0"/>
      <point x="400.25" y="1576.625"/>
      <point x="382.625" y="1573.25" type="curve"/>
      <point x="384.875" y="1479.75"/>
      <point x="391.375" y="1358.25"/>
      <point x="403.375" y="1248.75" type="curve"/>
      <point x="395.25" y="1125.5"/>
      <point x="385.0" y="979.5"/>
      <point x="381.875" y="876.375" type="curve"/>
      <point x="397.875" y="873.0"/>
      <point x="432.75" y="870.5"/>
    </contour>
    <contour>
      <point x="154.5" y="978.25" type="curve"/>
      <point x="258.5" y="1036.25"/>
      <point x="397.0" y="1118.25"/>
      <point x="496.0" y="1180.375" type="curve"/>
      <point x="594.0" y="1225.0"/>
      <point x="754.75" y="1305.625"/>
      <point x="847.125" y="1356.125" type="curve"/>
      <point x="832.25" y="1394.125"/>
      <point x="789.75" y="1469.875"/>
      <point x="766.75" y="1499.875" type="curve"/>
      <point x="681.125" y="1449.875"/>
      <point x="533.375" y="1355.375"/>
      <point x="444.75" y="1291.75" type="curve"/>
      <point x="342.125" y="1246.0"/>
      <point x="171.125" y="1170.375"/>
      <point x="75.125" y="1117.375" type="curve"/>
      <point x="87.625" y="1087.125"/>
      <point x="137.5" y="1002.5"/>
    </contour>
  </outline>
</glyph>
<glyph name="plus" format="2">
  <advance width="1050.0"/>
  <unicode hex="002B"/>
  <outline>
    <contour>
      <point x="955.875" y="656.375" type="curve"/>
      <point x="957.75" y="677.75"/>
      <point x="963.875" y="767.5"/>
      <point x="962.625" y="828.375" type="curve"/>
      <point x="849.75" y="809.5"/>
      <point x="613.375" y="796.25"/>
      <point x="374.375" y="796.25" type="curve" smooth="yes"/>
      <point x="244.375" y="796.25"/>
      <point x="125.5" y="800.125"/>
      <point x="69.625" y="806.375" type="curve"/>
      <point x="69.625" y="781.75"/>
      <point x="76.25" y="673.875"/>
      <point x="84.0" y="642.75" type="curve"/>
      <point x="182.0" y="630.375"/>
      <point x="348.625" y="622.375"/>
      <point x="496.75" y="622.375" type="curve" smooth="yes"/>
      <point x="707.375" y="622.375"/>
      <point x="867.875" y="636.375"/>
    </contour>
    <contour>
      <point x="575.625" y="1179.875" type="curve"/>
      <point x="557.625" y="1180.5"/>
      <point x="415.875" y="1176.5"/>
      <point x="393.0" y="1175.375" type="curve"/>
      <point x="416.0" y="1031.125"/>
      <point x="437.5" y="782.5"/>
      <point x="437.5" y="574.125" type="curve" smooth="yes"/>
      <point x="437.5" y="460.75"/>
      <point x="432.375" y="353.5"/>
      <point x="422.375" y="268.375" type="curve"/>
      <point x="452.0" y="266.5"/>
      <point x="565.625" y="263.125"/>
      <point x="589.75" y="265.0" type="curve"/>
      <point x="608.125" y="391.75"/>
      <point x="616.5" y="540.125"/>
      <point x="616.5" y="680.75" type="curve" smooth="yes"/>
      <point x="616.5" y="871.0"/>
      <point x="601.625" y="1055.5"/>
    </contour>
  </outline>
</glyph>
<glyph name="comma" format="2">
  <advance width="667.0"/>
  <unicode hex="002C"/>
  <outline>
    <contour>
      <point x="309.875" y="-253.5" type="curve"/>
      <point x="414.5" y="-168.375"/>
      <point x="491.5" y="-33.75"/>
      <point x="491.5" y="112.125" type="curve" smooth="yes"/>
      <point x="491.5" y="239.25"/>
      <point x="402.375" y="298.375"/>
      <point x="291.625" y="298.375" type="curve" smooth="yes"/>
      <point x="188.0" y="298.375"/>
      <point x="111.25" y="237.5"/>
      <point x="111.25" y="150.25" type="curve" smooth="yes"/>
      <point x="111.25" y="83.625"/>
      <point x="144.875" y="9.5"/>
      <point x="241.0" y="9.5" type="curve" smooth="yes"/>
      <point x="309.625" y="9.5"/>
      <point x="332.0" y="41.25"/>
      <point x="343.0" y="72.25" type="curve"/>
      <point x="345.25" y="68.125"/>
      <point x="347.5" y="60.75"/>
      <point x="347.5" y="51.5" type="curve" smooth="yes"/>
      <point x="347.125" y="-9.5"/>
      <point x="271.5" y="-121.75"/>
      <point x="220.375" y="-164.375" type="curve"/>
      <point x="239.875" y="-195.125"/>
      <point x="295.25" y="-249.125"/>
    </contour>
  </outline>
</glyph>
<glyph name="hyphen" format="2">
  <advance width="889.875"/>
  <unicode hex="002D"/>
  <outline>
    <contour>
      <point x="837.75" y="772.75" type="curve"/>
      <point x="766.375" y="779.25"/>
      <point x="653.875" y="781.125"/>
      <point x="515.25" y="781.125" type="curve" smooth="yes"/>
      <point x="337.5" y="781.125"/>
      <point x="176.25" y="769.125"/>
      <point x="55.875" y="756.75" type="curve"/>
      <point x="51.375" y="725.0"/>
      <point x="46.25" y="631.375"/>
      <point x="48.125" y="585.875" type="curve"/>
      <point x="223.875" y="597.25"/>
      <point x="647.75" y="608.375"/>
      <point x="843.625" y="608.375" type="curve"/>
      <point x="844.875" y="652.25"/>
      <point x="844.5" y="721.875"/>
    </contour>
  </outline>
</glyph>
<glyph name="period" format="2">
  <advance width="632.0"/>
  <unicode hex="002E"/>
  <outline>
    <contour>
      <point x="239.0" y="271.5" type="curve" smooth="yes"/>
      <point x="149.375" y="271.5"/>
      <point x="73.0" y="202.5"/>
      <point x="73.0" y="117.5" type="curve" smooth="yes"/>
      <point x="73.0" y="26.875"/>
      <point x="159.5" y="-38.0"/>
      <point x="247.25" y="-38.0" type="curve" smooth="yes"/>
      <point x="327.0" y="-38.0"/>
      <point x="393.5" y="19.125"/>
      <point x="393.5" y="105.5" type="curve" smooth="yes"/>
      <point x="393.5" y="200.375"/>
      <point x="330.25" y="271.5"/>
    </contour>
  </outline>
</glyph>
<glyph name="slash" format="2">
  <advance width="969.0"/>
  <unicode hex="002F"/>
  <outline>
    <contour>
      <point x="776.625" y="1498.25" type="curve"/>
      <point x="594.625" y="1028.625"/>
      <point x="249.5" y="307.75"/>
      <point x="-2.25" y="-83.875" type="curve"/>
      <point x="31.125" y="-112.875"/>
      <point x="98.5" y="-149.125"/>
      <point x="152.625" y="-162.25" type="curve"/>
      <point x="371.875" y="155.875"/>
      <point x="699.375" y="790.0"/>
      <point x="938.125" y="1428.125" type="curve"/>
      <point x="910.625" y="1457.375"/>
      <point x="858.625" y="1481.125"/>
    </contour>
  </outline>
</glyph>
<glyph name="zero" format="2">
  <advance width="1087.0"/>
  <unicode hex="0030"/>
  <outline>
    <contour>
      <point x="516.375" y="-32.0" type="curve" smooth="yes"/>
      <point x="807.125" y="-32.0"/>
      <point x="908.875" y="277.625"/>
      <point x="908.875" y="633.5" type="curve" smooth="yes"/>
      <point x="908.875" y="1024.625"/>
      <point x="815.5" y="1338.0"/>
      <point x="516.375" y="1338.0" type="curve" smooth="yes"/>
      <point x="213.375" y="1338.0"/>
      <point x="108.25" y="1038.5"/>
      <point x="108.25" y="660.75" type="curve" smooth="yes"/>
      <point x="108.25" y="310.75"/>
      <point x="221.125" y="-32.0"/>
    </contour>
    <contour>
      <point x="515.125" y="155.625" type="curve" smooth="yes"/>
      <point x="364.625" y="155.625"/>
      <point x="293.5" y="342.75"/>
      <point x="293.5" y="684.625" type="curve" smooth="yes"/>
      <point x="293.5" y="894.75"/>
      <point x="355.5" y="1166.25"/>
      <point x="513.25" y="1166.25" type="curve" smooth="yes"/>
      <point x="672.0" y="1166.25"/>
      <point x="731.75" y="921.375"/>
      <point x="731.75" y="680.625" type="curve" smooth="yes"/>
      <point x="731.75" y="418.625"/>
      <point x="698.75" y="155.625"/>
    </contour>
  </outline>
</glyph>
<glyph name="one" format="2">
  <advance width="809.0"/>
  <unicode hex="0031"/>
  <outline>
    <contour>
      <point x="476.625" y="176.125" type="curve"/>
      <point x="481.625" y="286.25"/>
      <point x="483.125" y="398.375"/>
      <point x="483.125" y="506.0" type="curve" smooth="yes"/>
      <point x="483.125" y="897.875"/>
      <point x="468.125" y="1275.25"/>
      <point x="464.25" y="1307.125" type="curve"/>
      <point x="433.125" y="1311.875"/>
      <point x="363.375" y="1315.375"/>
      <point x="321.5" y="1315.375" type="curve"/>
      <point x="243.25" y="1249.5"/>
      <point x="56.25" y="1063.125"/>
      <point x="20.75" y="1026.625" type="curve"/>
      <point x="42.625" y="982.0"/>
      <point x="85.75" y="909.125"/>
      <point x="108.5" y="881.625" type="curve"/>
      <point x="130.0" y="906.25"/>
      <point x="280.5" y="1067.25"/>
      <point x="309.5" y="1093.125" type="curve"/>
      <point x="305.75" y="967.875"/>
      <point x="306.625" y="255.625"/>
      <point x="307.25" y="170.5" type="curve"/>
      <point x="271.875" y="168.375"/>
      <point x="129.5" y="155.75"/>
      <point x="87.125" y="147.625" type="curve"/>
      <point x="85.625" y="110.5"/>
      <point x="87.75" y="24.625"/>
      <point x="89.625" y="-12.0" type="curve"/>
      <point x="162.625" y="-5.5"/>
      <point x="607.5" y="9.0"/>
      <point x="684.875" y="9.0" type="curve"/>
      <point x="691.375" y="43.25"/>
      <point x="697.25" y="138.125"/>
      <point x="697.875" y="166.75" type="curve"/>
      <point x="660.25" y="171.0"/>
      <point x="543.125" y="176.125"/>
    </contour>
  </outline>
</glyph>
<glyph name="two" format="2">
  <advance width="995.0"/>
  <unicode hex="0032"/>
  <outline>
    <contour>
      <point x="872.75" y="221.5" type="curve"/>
      <point x="737.5" y="215.0"/>
      <point x="405.25" y="188.875"/>
      <point x="318.625" y="178.5" type="curve"/>
      <point x="353.0" y="215.75"/>
      <point x="510.0" y="412.0"/>
      <point x="631.875" y="575.0" type="curve" smooth="yes"/>
      <point x="760.125" y="748.125"/>
      <point x="847.0" y="920.5"/>
      <point x="847.0" y="1073.125" type="curve" smooth="yes"/>
      <point x="847.0" y="1249.75"/>
      <point x="719.25" y="1364.0"/>
      <point x="532.75" y="1364.0" type="curve" smooth="yes"/>
      <point x="311.375" y="1364.0"/>
      <point x="123.75" y="1221.75"/>
      <point x="35.75" y="1020.375" type="curve"/>
      <point x="67.125" y="989.875"/>
      <point x="145.125" y="935.0"/>
      <point x="182.625" y="917.25" type="curve"/>
      <point x="244.25" y="1069.375"/>
      <point x="352.875" y="1185.0"/>
      <point x="511.5" y="1185.0" type="curve" smooth="yes"/>
      <point x="594.5" y="1185.0"/>
      <point x="668.625" y="1145.125"/>
      <point x="668.625" y="1045.875" type="curve" smooth="yes"/>
      <point x="668.625" y="911.0"/>
      <point x="519.25" y="702.5"/>
      <point x="389.875" y="539.5" type="curve" smooth="yes"/>
      <point x="265.0" y="381.375"/>
      <point x="133.5" y="224.875"/>
      <point x="65.375" y="153.875" type="curve"/>
      <point x="68.75" y="93.5"/>
      <point x="88.375" y="5.0"/>
      <point x="93.375" y="-17.0" type="curve"/>
      <point x="880.25" y="27.0" type="line"/>
      <point x="884.0" y="55.0"/>
      <point x="884.0" y="181.875"/>
    </contour>
  </outline>
</glyph>
<glyph name="three" format="2">
  <advance width="1032.0"/>
  <unicode hex="0033"/>
  <outline>
    <contour>
      <point x="477.0" y="-3.0" type="curve" smooth="yes"/>
      <point x="727.5" y="-3.0"/>
      <point x="919.375" y="148.0"/>
      <point x="919.375" y="398.0" type="curve" smooth="yes"/>
      <point x="919.375" y="607.625"/>
      <point x="760.25" y="706.125"/>
      <point x="582.75" y="725.375" type="curve"/>
      <point x="705.375" y="753.5"/>
      <point x="850.625" y="859.875"/>
      <point x="850.625" y="1018.75" type="curve" smooth="yes"/>
      <point x="850.625" y="1221.75"/>
      <point x="694.75" y="1335.0"/>
      <point x="494.0" y="1335.0" type="curve" smooth="yes"/>
      <point x="257.125" y="1335.0"/>
      <point x="96.125" y="1201.875"/>
      <point x="26.0" y="1126.375" type="curve"/>
      <point x="41.5" y="1107.875"/>
      <point x="103.25" y="1048.375"/>
      <point x="153.125" y="1010.625" type="curve"/>
      <point x="216.625" y="1091.5"/>
      <point x="340.0" y="1169.0"/>
      <point x="477.5" y="1169.0" type="curve" smooth="yes"/>
      <point x="603.25" y="1169.0"/>
      <point x="663.625" y="1095.25"/>
      <point x="663.625" y="998.75" type="curve" smooth="yes"/>
      <point x="663.625" y="847.75"/>
      <point x="456.625" y="764.5"/>
      <point x="255.0" y="764.5" type="curve"/>
      <point x="255.0" y="710.0"/>
      <point x="263.875" y="642.5"/>
      <point x="271.875" y="616.5" type="curve"/>
      <point x="563.125" y="616.5"/>
      <point x="741.5" y="585.0"/>
      <point x="741.5" y="382.125" type="curve" smooth="yes"/>
      <point x="741.5" y="238.625"/>
      <point x="631.5" y="155.75"/>
      <point x="475.125" y="155.75" type="curve" smooth="yes"/>
      <point x="337.5" y="155.75"/>
      <point x="241.5" y="227.25"/>
      <point x="211.625" y="334.5" type="curve"/>
      <point x="159.375" y="314.75"/>
      <point x="84.75" y="275.125"/>
      <point x="44.0" y="243.0" type="curve"/>
      <point x="92.875" y="92.5"/>
      <point x="267.875" y="-3.0"/>
    </contour>
  </outline>
</glyph>
<glyph name="four" format="2">
  <advance width="1104.0"/>
  <unicode hex="0034"/>
  <outline>
    <contour>
      <point x="983.75" y="378.375" type="curve"/>
      <point x="983.75" y="439.375"/>
      <point x="975.0" y="529.75"/>
      <point x="970.375" y="548.125" type="curve"/>
      <point x="953.375" y="548.5"/>
      <point x="821.0" y="544.875"/>
      <point x="748.625" y="541.75" type="curve"/>
      <point x="748.625" y="832.5"/>
      <point x="770.5" y="1267.375"/>
      <point x="776.25" y="1341.375" type="curve"/>
      <point x="737.0" y="1342.0"/>
      <point x="643.75" y="1337.875"/>
      <point x="613.875" y="1334.875" type="curve"/>
      <point x="546.375" y="1256.25"/>
      <point x="183.0" y="678.25"/>
      <point x="85.375" y="483.625" type="curve"/>
      <point x="90.625" y="433.25"/>
      <point x="101.125" y="364.375"/>
      <point x="112.25" y="313.25" type="curve"/>
      <point x="162.5" y="319.875"/>
      <point x="397.75" y="348.75"/>
      <point x="572.875" y="362.0" type="curve"/>
      <point x="566.75" y="275.5"/>
      <point x="561.5" y="140.75"/>
      <point x="561.5" y="-11.25" type="curve"/>
      <point x="590.75" y="-10.625"/>
      <point x="706.375" y="-2.5"/>
      <point x="755.5" y="5.125" type="curve"/>
      <point x="753.125" y="44.375"/>
      <point x="749.0" y="175.25"/>
      <point x="749.0" y="373.875" type="curve"/>
      <point x="818.625" y="376.5"/>
      <point x="920.5" y="378.375"/>
    </contour>
    <contour>
      <point x="626.75" y="1108.75" type="curve"/>
      <point x="611.25" y="1013.0"/>
      <point x="590.875" y="624.75"/>
      <point x="590.125" y="532.125" type="curve"/>
      <point x="522.625" y="529.625"/>
      <point x="294.375" y="504.875"/>
      <point x="265.5" y="500.25" type="curve"/>
      <point x="287.75" y="564.0"/>
      <point x="539.875" y="978.875"/>
    </contour>
  </outline>
</glyph>
<glyph name="five" format="2">
  <advance width="1137.0"/>
  <unicode hex="0035"/>
  <outline>
    <contour>
      <point x="70.75" y="191.875" type="curve"/>
      <point x="184.75" y="60.125"/>
      <point x="358.25" y="8.625"/>
      <point x="537.25" y="8.625" type="curve" smooth="yes"/>
      <point x="835.875" y="8.625"/>
      <point x="1025.875" y="204.5"/>
      <point x="1025.875" y="504.5" type="curve" smooth="yes"/>
      <point x="1025.875" y="740.5"/>
      <point x="891.5" y="951.375"/>
      <point x="656.75" y="951.375" type="curve" smooth="yes"/>
      <point x="497.75" y="951.375"/>
      <point x="389.875" y="832.125"/>
      <point x="368.625" y="768.375" type="curve"/>
      <point x="368.625" y="812.375"/>
      <point x="354.875" y="1005.625"/>
      <point x="343.125" y="1104.0" type="curve"/>
      <point x="411.125" y="1118.0"/>
      <point x="641.5" y="1145.375"/>
      <point x="898.0" y="1162.25" type="curve"/>
      <point x="898.0" y="1225.25"/>
      <point x="874.0" y="1306.25"/>
      <point x="867.625" y="1324.875" type="curve"/>
      <point x="718.0" y="1312.875"/>
      <point x="297.375" y="1256.125"/>
      <point x="139.75" y="1220.875" type="curve"/>
      <point x="170.5" y="995.625"/>
      <point x="187.625" y="784.25"/>
      <point x="187.625" y="574.625" type="curve"/>
      <point x="207.125" y="573.25"/>
      <point x="246.625" y="572.875"/>
      <point x="276.0" y="572.875" type="curve" smooth="yes"/>
      <point x="307.625" y="572.875"/>
      <point x="345.375" y="575.375"/>
      <point x="366.75" y="578.875" type="curve"/>
      <point x="371.75" y="644.125"/>
      <point x="458.25" y="798.375"/>
      <point x="625.125" y="798.375" type="curve" smooth="yes"/>
      <point x="776.75" y="798.375"/>
      <point x="851.25" y="659.875"/>
      <point x="851.25" y="509.75" type="curve" smooth="yes"/>
      <point x="851.25" y="314.375"/>
      <point x="731.375" y="181.0"/>
      <point x="541.25" y="181.0" type="curve" smooth="yes"/>
      <point x="353.25" y="181.0"/>
      <point x="252.25" y="266.625"/>
      <point x="205.875" y="329.5" type="curve"/>
      <point x="177.75" y="309.125"/>
      <point x="94.875" y="233.625"/>
    </contour>
  </outline>
</glyph>
<glyph name="six" format="2">
  <advance width="1154.0"/>
  <unicode hex="0036"/>
  <outline>
    <contour>
      <point x="811.875" y="1210.625" type="curve"/>
      <point x="801.125" y="1261.0"/>
      <point x="755.375" y="1334.875"/>
      <point x="725.5" y="1360.625" type="curve"/>
      <point x="278.75" y="1166.125"/>
      <point x="104.625" y="811.75"/>
      <point x="104.625" y="477.125" type="curve" smooth="yes"/>
      <point x="104.625" y="189.25"/>
      <point x="251.125" y="-9.0"/>
      <point x="532.75" y="-9.0" type="curve" smooth="yes"/>
      <point x="808.875" y="-9.0"/>
      <point x="1000.125" y="193.5"/>
      <point x="1000.125" y="482.0" type="curve" smooth="yes"/>
      <point x="1000.125" y="727.5"/>
      <point x="854.625" y="834.125"/>
      <point x="662.125" y="834.125" type="curve" smooth="yes"/>
      <point x="524.75" y="834.125"/>
      <point x="365.5" y="766.375"/>
      <point x="294.5" y="663.25" type="curve"/>
      <point x="339.125" y="821.25"/>
      <point x="517.125" y="1095.875"/>
    </contour>
    <contour>
      <point x="349.625" y="552.25" type="curve" smooth="yes"/>
      <point x="412.125" y="625.0"/>
      <point x="518.875" y="677.5"/>
      <point x="632.5" y="677.5" type="curve" smooth="yes"/>
      <point x="760.75" y="677.5"/>
      <point x="827.0" y="599.25"/>
      <point x="827.0" y="465.0" type="curve" smooth="yes"/>
      <point x="827.0" y="309.125"/>
      <point x="717.5" y="163.5"/>
      <point x="546.75" y="163.5" type="curve" smooth="yes"/>
      <point x="389.25" y="163.5"/>
      <point x="296.125" y="261.875"/>
      <point x="296.125" y="414.125" type="curve" smooth="yes"/>
      <point x="296.125" y="466.25"/>
      <point x="315.125" y="512.0"/>
    </contour>
  </outline>
</glyph>
<glyph name="seven" format="2">
  <advance width="1012.0"/>
  <unicode hex="0037"/>
  <outline>
    <contour>
      <point x="315.75" y="-18.25" type="curve"/>
      <point x="446.0" y="360.375"/>
      <point x="578.0" y="677.625"/>
      <point x="945.125" y="1210.5" type="curve"/>
      <point x="942.125" y="1233.5"/>
      <point x="922.75" y="1342.75"/>
      <point x="915.375" y="1367.75" type="curve"/>
      <point x="743.0" y="1367.75"/>
      <point x="339.375" y="1298.125"/>
      <point x="62.375" y="1235.125" type="curve"/>
      <point x="62.375" y="1199.25"/>
      <point x="75.0" y="1071.25"/>
      <point x="82.125" y="1040.75" type="curve"/>
      <point x="117.25" y="1051.875"/>
      <point x="435.875" y="1131.0"/>
      <point x="727.25" y="1172.5" type="curve"/>
      <point x="505.375" y="921.25"/>
      <point x="224.125" y="376.375"/>
      <point x="108.25" y="44.875" type="curve"/>
      <point x="124.75" y="37.5"/>
      <point x="263.125" y="-4.875"/>
    </contour>
  </outline>
</glyph>
<glyph name="eight" format="2">
  <advance width="1243.0"/>
  <unicode hex="0038"/>
  <outline>
    <contour>
      <point x="602.875" y="-9.75" type="curve" smooth="yes"/>
      <point x="886.75" y="-9.75"/>
      <point x="1066.0" y="146.125"/>
      <point x="1066.0" y="391.25" type="curve" smooth="yes"/>
      <point x="1066.0" y="589.125"/>
      <point x="932.625" y="687.25"/>
      <point x="815.0" y="705.875" type="curve"/>
      <point x="940.125" y="750.625"/>
      <point x="1020.5" y="865.5"/>
      <point x="1020.5" y="1034.625" type="curve" smooth="yes"/>
      <point x="1020.5" y="1262.875"/>
      <point x="841.875" y="1373.125"/>
      <point x="603.0" y="1373.125" type="curve" smooth="yes"/>
      <point x="336.875" y="1373.125"/>
      <point x="136.875" y="1251.5"/>
      <point x="136.875" y="1006.25" type="curve" smooth="yes"/>
      <point x="136.875" y="849.125"/>
      <point x="219.375" y="754.5"/>
      <point x="315.0" y="711.125" type="curve"/>
      <point x="188.375" y="661.0"/>
      <point x="87.0" y="534.875"/>
      <point x="87.0" y="377.0" type="curve" smooth="yes"/>
      <point x="87.0" y="128.625"/>
      <point x="271.125" y="-9.75"/>
    </contour>
    <contour>
      <point x="584.875" y="153.5" type="curve" smooth="yes"/>
      <point x="437.375" y="153.5"/>
      <point x="280.875" y="203.375"/>
      <point x="280.875" y="391.125" type="curve" smooth="yes"/>
      <point x="280.875" y="581.25"/>
      <point x="456.75" y="624.375"/>
      <point x="584.25" y="624.375" type="curve" smooth="yes"/>
      <point x="759.375" y="624.375"/>
      <point x="883.5" y="567.0"/>
      <point x="883.5" y="392.625" type="curve" smooth="yes"/>
      <point x="883.5" y="227.375"/>
      <point x="744.375" y="153.5"/>
    </contour>
    <contour>
      <point x="587.125" y="792.375" type="curve" smooth="yes"/>
      <point x="435.0" y="792.375"/>
      <point x="325.375" y="834.0"/>
      <point x="325.375" y="991.125" type="curve" smooth="yes"/>
      <point x="325.375" y="1123.125"/>
      <point x="413.0" y="1221.125"/>
      <point x="579.875" y="1221.125" type="curve" smooth="yes"/>
      <point x="735.625" y="1221.125"/>
      <point x="839.375" y="1164.625"/>
      <point x="839.375" y="1017.375" type="curve" smooth="yes"/>
      <point x="839.375" y="878.875"/>
      <point x="731.0" y="792.375"/>
    </contour>
  </outline>
</glyph>
<glyph name="nine" format="2">
  <advance width="1067.0"/>
  <unicode hex="0039"/>
  <outline>
    <contour>
      <point x="821.625" y="13.125" type="curve"/>
      <point x="898.875" y="245.0"/>
      <point x="955.25" y="530.875"/>
      <point x="955.25" y="854.875" type="curve" smooth="yes"/>
      <point x="955.25" y="1176.375"/>
      <point x="831.625" y="1364.0"/>
      <point x="537.375" y="1364.0" type="curve" smooth="yes"/>
      <point x="281.375" y="1364.0"/>
      <point x="80.375" y="1177.125"/>
      <point x="80.375" y="899.625" type="curve" smooth="yes"/>
      <point x="80.375" y="656.25"/>
      <point x="209.125" y="478.375"/>
      <point x="458.0" y="478.375" type="curve" smooth="yes"/>
      <point x="627.375" y="478.375"/>
      <point x="729.25" y="558.125"/>
      <point x="761.0" y="611.875" type="curve"/>
      <point x="754.625" y="372.875"/>
      <point x="634.75" y="78.5"/>
      <point x="598.875" y="-1.25" type="curve"/>
      <point x="680.0" y="-1.25"/>
      <point x="780.125" y="4.5"/>
    </contour>
    <contour>
      <point x="544.125" y="1216.875" type="curve" smooth="yes"/>
      <point x="693.25" y="1216.875"/>
      <point x="767.75" y="1113.25"/>
      <point x="767.75" y="941.875" type="curve" smooth="yes"/>
      <point x="767.75" y="769.75"/>
      <point x="662.375" y="645.875"/>
      <point x="485.0" y="645.875" type="curve" smooth="yes"/>
      <point x="338.125" y="645.875"/>
      <point x="261.375" y="750.625"/>
      <point x="261.375" y="912.875" type="curve" smooth="yes"/>
      <point x="261.375" y="1094.375"/>
      <point x="365.75" y="1216.875"/>
    </contour>
  </outline>
</glyph>
<glyph name="colon" format="2">
  <advance width="564.0"/>
  <unicode hex="003A"/>
  <outline>
    <contour>
      <point x="248.125" y="-9.375" type="curve" smooth="yes"/>
      <point x="334.125" y="-9.375"/>
      <point x="404.375" y="49.125"/>
      <point x="404.375" y="131.625" type="curve" smooth="yes"/>
      <point x="404.375" y="218.0"/>
      <point x="340.875" y="290.375"/>
      <point x="246.125" y="290.375" type="curve" smooth="yes"/>
      <point x="157.875" y="290.375"/>
      <point x="83.75" y="215.5"/>
      <point x="83.75" y="131.5" type="curve" smooth="yes"/>
      <point x="83.75" y="52.25"/>
      <point x="161.25" y="-9.375"/>
    </contour>
    <component base="period" xOffset="14.375" yOffset="726.125"/>
  </outline>
</glyph>
<glyph name="semicolon" format="2">
  <advance width="593.0"/>
  <unicode hex="003B"/>
  <outline>
    <contour>
      <point x="256.875" y="964.75" type="curve" smooth="yes"/>
      <point x="167.25" y="964.75"/>
      <point x="90.875" y="895.75"/>
      <point x="90.875" y="810.75" type="curve" smooth="yes"/>
      <point x="90.875" y="720.125"/>
      <point x="177.375" y="655.25"/>
      <point x="265.125" y="655.25" type="curve" smooth="yes"/>
      <point x="344.875" y="655.25"/>
      <point x="411.375" y="712.375"/>
      <point x="411.375" y="798.75" type="curve" smooth="yes"/>
      <point x="411.375" y="893.625"/>
      <point x="348.125" y="964.75"/>
    </contour>
    <contour>
      <point x="275.5" y="-307.5" type="curve"/>
      <point x="376.375" y="-224.625"/>
      <point x="451.125" y="-93.375"/>
      <point x="451.125" y="47.625" type="curve" smooth="yes"/>
      <point x="451.125" y="170.25"/>
      <point x="365.375" y="227.875"/>
      <point x="257.625" y="227.875" type="curve" smooth="yes"/>
      <point x="156.625" y="227.875"/>
      <point x="83.625" y="168.5"/>
      <point x="83.625" y="84.625" type="curve" smooth="yes"/>
      <point x="83.625" y="20.25"/>
      <point x="115.375" y="-51.625"/>
      <point x="209.25" y="-51.625" type="curve" smooth="yes"/>
      <point x="276.75" y="-51.625"/>
      <point x="298.75" y="-19.875"/>
      <point x="309.0" y="10.75" type="curve"/>
      <point x="311.25" y="6.625"/>
      <point x="313.5" y="-0.75"/>
      <point x="313.5" y="-9.625" type="curve" smooth="yes"/>
      <point x="313.125" y="-69.875"/>
      <point x="239.75" y="-180.625"/>
      <point x="189.75" y="-222.875" type="curve"/>
      <point x="208.125" y="-251.75"/>
      <point x="261.25" y="-303.125"/>
    </contour>
  </outline>
</glyph>
<glyph name="less" format="2">
  <advance width="807.0"/>
  <unicode hex="003C"/>
  <outline>
    <contour>
      <point x="654.625" y="1113.375" type="curve"/>
      <point x="569.625" y="1058.875"/>
      <point x="243.375" y="796.25"/>
      <point x="21.0" y="611.25" type="curve"/>
      <point x="17.0" y="471.125" type="line"/>
      <point x="235.375" y="402.25"/>
      <point x="460.875" y="313.5"/>
      <point x="659.25" y="230.5" type="curve"/>
      <point x="670.875" y="267.875"/>
      <point x="687.25" y="337.0"/>
      <point x="688.5" y="374.125" type="curve"/>
      <point x="620.125" y="421.125"/>
      <point x="308.75" y="538.875"/>
      <point x="148.75" y="590.125" type="curve"/>
      <point x="146.25" y="533.375" type="line"/>
      <point x="349.25" y="700.875"/>
      <point x="530.5" y="840.5"/>
      <point x="739.75" y="994.25" type="curve"/>
      <point x="727.0" y="1029.75"/>
      <point x="693.375" y="1088.125"/>
    </contour>
  </outline>
</glyph>
<glyph name="equal" format="2">
  <advance width="1050.0"/>
  <unicode hex="003D"/>
  <outline>
    <contour>
      <point x="61.875" y="1038.625" type="curve"/>
      <point x="51.5" y="1011.75"/>
      <point x="44.375" y="922.875"/>
      <point x="44.375" y="884.75" type="curve"/>
      <point x="208.75" y="897.875"/>
      <point x="827.375" y="919.75"/>
      <point x="1009.125" y="919.75" type="curve"/>
      <point x="1009.125" y="947.5"/>
      <point x="999.625" y="1066.875"/>
      <point x="994.75" y="1096.75" type="curve"/>
      <point x="759.75" y="1096.75"/>
      <point x="205.25" y="1067.625"/>
    </contour>
    <contour>
      <point x="34.25" y="598.75" type="curve"/>
      <point x="31.75" y="560.25"/>
      <point x="33.25" y="468.75"/>
      <point x="36.625" y="443.375" type="curve"/>
      <point x="259.25" y="453.875"/>
      <point x="838.75" y="453.375"/>
      <point x="1015.375" y="453.375" type="curve"/>
      <point x="1015.375" y="481.125"/>
      <point x="1006.125" y="590.625"/>
      <point x="1000.25" y="621.125" type="curve"/>
      <point x="922.75" y="625.75"/>
      <point x="807.75" y="629.0"/>
      <point x="682.0" y="629.0" type="curve" smooth="yes"/>
      <point x="469.75" y="629.0"/>
      <point x="220.125" y="619.375"/>
    </contour>
  </outline>
</glyph>
<glyph name="greater" format="2">
  <advance width="790.0"/>
  <unicode hex="003E"/>
  <outline>
    <contour>
      <point x="84.125" y="1000.25" type="curve"/>
      <point x="196.875" y="926.625"/>
      <point x="487.375" y="739.625"/>
      <point x="614.5" y="656.25" type="curve"/>
      <point x="634.0" y="720.625" type="line"/>
      <point x="423.625" y="599.0"/>
      <point x="77.25" y="401.125"/>
      <point x="26.25" y="380.25" type="curve"/>
      <point x="26.25" y="354.5"/>
      <point x="53.875" y="267.375"/>
      <point x="71.5" y="247.125" type="curve"/>
      <point x="110.875" y="257.125"/>
      <point x="488.375" y="443.25"/>
      <point x="759.75" y="585.0" type="curve"/>
      <point x="757.0" y="746.0" type="line"/>
      <point x="544.25" y="893.0"/>
      <point x="243.5" y="1086.75"/>
      <point x="190.5" y="1100.75" type="curve"/>
      <point x="157.75" y="1082.875"/>
      <point x="110.375" y="1033.125"/>
    </contour>
  </outline>
</glyph>
<glyph name="question" format="2">
  <advance width="1036.0"/>
  <unicode hex="003F"/>
  <outline>
    <contour>
      <point x="580.25" y="398.625" type="curve"/>
      <point x="582.5" y="599.125"/>
      <point x="664.625" y="710.5"/>
      <point x="748.125" y="782.25" type="curve" smooth="yes"/>
      <point x="828.0" y="851.25"/>
      <point x="914.5" y="951.625"/>
      <point x="914.5" y="1122.375" type="curve" smooth="yes"/>
      <point x="914.5" y="1353.375"/>
      <point x="750.375" y="1472.0"/>
      <point x="498.125" y="1472.0" type="curve" smooth="yes"/>
      <point x="267.0" y="1472.0"/>
      <point x="58.375" y="1358.125"/>
      <point x="16.125" y="1133.125" type="curve"/>
      <point x="177.25" y="1048.75" type="line"/>
      <point x="209.0" y="1166.125"/>
      <point x="281.875" y="1298.375"/>
      <point x="497.125" y="1298.375" type="curve" smooth="yes"/>
      <point x="639.375" y="1298.375"/>
      <point x="713.5" y="1226.625"/>
      <point x="713.5" y="1101.75" type="curve" smooth="yes"/>
      <point x="713.5" y="1018.5"/>
      <point x="666.5" y="939.375"/>
      <point x="577.25" y="863.875" type="curve" smooth="yes"/>
      <point x="436.875" y="744.125"/>
      <point x="374.0" y="581.5"/>
      <point x="374.0" y="409.5" type="curve"/>
      <point x="440.75" y="401.125"/>
      <point x="501.5" y="398.625"/>
    </contour>
    <contour>
      <point x="496.0" y="-10.0" type="curve" smooth="yes"/>
      <point x="576.25" y="-10.0"/>
      <point x="647.625" y="59.125"/>
      <point x="647.625" y="143.125" type="curve" smooth="yes"/>
      <point x="647.625" y="221.5"/>
      <point x="582.375" y="274.25"/>
      <point x="490.5" y="274.25" type="curve" smooth="yes"/>
      <point x="416.0" y="274.25"/>
      <point x="343.375" y="210.5"/>
      <point x="343.375" y="133.75" type="curve" smooth="yes"/>
      <point x="343.375" y="45.25"/>
      <point x="412.375" y="-10.0"/>
    </contour>
  </outline>
</glyph>
<glyph name="at" format="2">
  <advance width="1920.0"/>
  <unicode hex="0040"/>
  <outline>
    <contour>
      <point x="834.0" y="-41.0" type="curve" smooth="yes"/>
      <point x="1137.25" y="-41.0"/>
      <point x="1340.0" y="56.5"/>
      <point x="1413.0" y="178.0" type="curve"/>
      <point x="1283.75" y="285.25" type="line"/>
      <point x="1223.25" y="192.25"/>
      <point x="1088.125" y="109.0"/>
      <point x="844.625" y="109.0" type="curve" smooth="yes"/>
      <point x="469.75" y="109.0"/>
      <point x="227.75" y="308.375"/>
      <point x="227.75" y="631.25" type="curve" smooth="yes"/>
      <point x="227.75" y="1051.5"/>
      <point x="565.875" y="1341.75"/>
      <point x="981.875" y="1341.75" type="curve" smooth="yes"/>
      <point x="1360.0" y="1341.75"/>
      <point x="1607.5" y="1133.875"/>
      <point x="1607.5" y="764.5" type="curve" smooth="yes"/>
      <point x="1607.5" y="641.75"/>
      <point x="1564.5" y="505.125"/>
      <point x="1452.25" y="505.125" type="curve" smooth="yes"/>
      <point x="1377.5" y="505.125"/>
      <point x="1345.625" y="537.5"/>
      <point x="1325.5" y="620.75" type="curve" smooth="yes"/>
      <point x="1316.75" y="656.625"/>
      <point x="1260.625" y="919.5"/>
      <point x="1224.25" y="1120.375" type="curve"/>
      <point x="1192.0" y="1119.25"/>
      <point x="1114.875" y="1114.875"/>
      <point x="1082.625" y="1113.0" type="curve"/>
      <point x="1084.875" y="1092.75"/>
      <point x="1088.875" y="1055.375"/>
      <point x="1092.625" y="1029.0" type="curve"/>
      <point x="1054.125" y="1062.75"/>
      <point x="990.0" y="1089.625"/>
      <point x="886.875" y="1089.625" type="curve" smooth="yes"/>
      <point x="675.625" y="1089.625"/>
      <point x="512.5" y="910.75"/>
      <point x="512.5" y="695.25" type="curve" smooth="yes"/>
      <point x="512.5" y="488.875"/>
      <point x="646.75" y="353.75"/>
      <point x="863.375" y="353.75" type="curve" smooth="yes"/>
      <point x="1018.625" y="353.75"/>
      <point x="1166.375" y="421.625"/>
      <point x="1203.75" y="532.5" type="curve"/>
      <point x="1233.0" y="418.625"/>
      <point x="1334.0" y="357.0"/>
      <point x="1455.0" y="357.0" type="curve" smooth="yes"/>
      <point x="1668.75" y="357.0"/>
      <point x="1773.625" y="536.625"/>
      <point x="1773.625" y="751.5" type="curve" smooth="yes"/>
      <point x="1773.625" y="1211.875"/>
      <point x="1450.5" y="1497.0"/>
      <point x="984.75" y="1497.0" type="curve" smooth="yes"/>
      <point x="459.125" y="1497.0"/>
      <point x="46.5" y="1148.125"/>
      <point x="46.5" y="622.625" type="curve" smooth="yes"/>
      <point x="46.5" y="185.875"/>
      <point x="386.0" y="-41.0"/>
    </contour>
    <contour>
      <point x="882.375" y="509.0" type="curve" smooth="yes"/>
      <point x="779.125" y="509.0"/>
      <point x="689.875" y="575.125"/>
      <point x="689.875" y="703.75" type="curve" smooth="yes"/>
      <point x="689.875" y="843.5"/>
      <point x="780.375" y="943.375"/>
      <point x="925.75" y="943.375" type="curve" smooth="yes"/>
      <point x="996.375" y="943.375"/>
      <point x="1064.5" y="923.875"/>
      <point x="1105.875" y="891.375" type="curve"/>
      <point x="1152.375" y="676.0" type="line"/>
      <point x="1109.125" y="577.125"/>
      <point x="1020.5" y="509.0"/>
    </contour>
  </outline>
</glyph>
<glyph name="A" format="2">
  <advance width="1078.25"/>
  <unicode hex="0041"/>
  <anchor x="564.625" y="0.0" name="bottom"/>
  <anchor x="1002.625" y="-0.5" name="ogonek"/>
  <anchor x="605.0" y="1324.5" name="top"/>
  <outline>
    <contour>
      <point x="281.375" y="-15.0" type="curve"/>
      <point x="294.375" y="78.25"/>
      <point x="328.5" y="265.5"/>
      <point x="365.125" y="437.25" type="curve"/>
      <point x="403.125" y="445.25"/>
      <point x="656.5" y="466.0"/>
      <point x="762.5" y="466.75" type="curve"/>
      <point x="769.375" y="363.125"/>
      <point x="783.5" y="80.0"/>
      <point x="788.875" y="-15.0" type="curve"/>
      <point x="854.625" y="-15.0"/>
      <point x="955.75" y="-9.0"/>
      <point x="1002.625" y="-0.5" type="curve"/>
      <point x="954.125" y="681.75"/>
      <point x="903.625" y="1089.0"/>
      <point x="852.25" y="1323.0" type="curve"/>
      <point x="801.5" y="1329.25"/>
      <point x="743.75" y="1332.375"/>
      <point x="691.125" y="1332.375" type="curve" smooth="yes"/>
      <point x="570.625" y="1332.375"/>
      <point x="445.875" y="1317.0"/>
      <point x="364.25" y="1304.75" type="curve"/>
      <point x="274.875" y="975.0"/>
      <point x="105.25" y="204.75"/>
      <point x="68.875" y="-5.125" type="curve"/>
      <point x="119.25" y="-10.125"/>
      <point x="230.125" y="-15.0"/>
    </contour>
    <contour>
      <point x="392.625" y="609.0" type="curve"/>
      <point x="439.25" y="847.25"/>
      <point x="491.0" y="1074.75"/>
      <point x="507.375" y="1142.5" type="curve"/>
      <point x="540.0" y="1147.0"/>
      <point x="663.875" y="1157.0"/>
      <point x="710.125" y="1157.0" type="curve"/>
      <point x="728.25" y="1051.0"/>
      <point x="750.625" y="725.125"/>
      <point x="756.375" y="642.875" type="curve"/>
      <point x="649.25" y="639.125"/>
      <point x="464.625" y="623.625"/>
    </contour>
  </outline>
</glyph>
<glyph name="B" format="2">
  <advance width="1174.0"/>
  <unicode hex="0042"/>
  <anchor x="587.0" y="0.0" name="bottom"/>
  <anchor x="587.0" y="1291.0" name="top"/>
  <outline>
    <contour>
      <point x="151.875" y="17.625" type="curve"/>
      <point x="207.25" y="7.5"/>
      <point x="281.375" y="3.25"/>
      <point x="358.25" y="3.25" type="curve" smooth="yes"/>
      <point x="747.0" y="3.25"/>
      <point x="1059.125" y="68.875"/>
      <point x="1059.125" y="407.75" type="curve" smooth="yes"/>
      <point x="1059.125" y="575.5"/>
      <point x="920.25" y="686.625"/>
      <point x="748.25" y="692.25" type="curve" smooth="yes"/>
      <point x="738.75" y="692.625"/>
      <point x="731.75" y="692.625"/>
      <point x="725.375" y="692.0" type="curve"/>
      <point x="832.0" y="716.375"/>
      <point x="946.25" y="857.125"/>
      <point x="946.25" y="1006.25" type="curve" smooth="yes"/>
      <point x="946.25" y="1218.875"/>
      <point x="786.75" y="1306.0"/>
      <point x="569.5" y="1306.0" type="curve" smooth="yes"/>
      <point x="409.125" y="1306.0"/>
      <point x="255.5" y="1293.0"/>
      <point x="169.125" y="1285.0" type="curve"/>
      <point x="169.125" y="1256.0"/>
      <point x="151.875" y="199.0"/>
    </contour>
    <contour>
      <point x="360.875" y="189.875" type="curve"/>
      <point x="361.875" y="584.875" type="line"/>
      <point x="406.25" y="589.875"/>
      <point x="520.125" y="591.875"/>
      <point x="554.125" y="591.875" type="curve" smooth="yes"/>
      <point x="731.25" y="591.875"/>
      <point x="872.625" y="552.0"/>
      <point x="872.625" y="414.125" type="curve" smooth="yes"/>
      <point x="872.625" y="223.125"/>
      <point x="643.5" y="189.5"/>
      <point x="408.25" y="189.5" type="curve" smooth="yes"/>
      <point x="387.25" y="189.5"/>
      <point x="370.125" y="189.5"/>
    </contour>
    <contour>
      <point x="358.75" y="746.375" type="curve"/>
      <point x="355.5" y="1142.625" type="line"/>
      <point x="399.0" y="1148.875"/>
      <point x="480.75" y="1159.25"/>
      <point x="553.75" y="1159.25" type="curve" smooth="yes"/>
      <point x="685.875" y="1159.25"/>
      <point x="770.875" y="1111.875"/>
      <point x="770.875" y="981.25" type="curve" smooth="yes"/>
      <point x="770.875" y="889.75"/>
      <point x="706.5" y="810.75"/>
      <point x="628.75" y="782.0" type="curve" smooth="yes"/>
      <point x="576.125" y="753.875"/>
      <point x="505.625" y="747.625"/>
    </contour>
  </outline>
</glyph>
<glyph name="C" format="2">
  <advance width="1137.0"/>
  <unicode hex="0043"/>
  <anchor x="569.0" y="0.0" name="bottom"/>
  <anchor x="550.25" y="1297.25" name="top"/>
  <outline>
    <contour>
      <point x="1065.5" y="261.25" type="curve"/>
      <point x="1039.875" y="302.375"/>
      <point x="965.0" y="370.25"/>
      <point x="922.75" y="398.375" type="curve"/>
      <point x="854.25" y="310.375"/>
      <point x="744.625" y="191.25"/>
      <point x="577.5" y="191.25" type="curve" smooth="yes"/>
      <point x="405.5" y="191.25"/>
      <point x="269.0" y="402.125"/>
      <point x="269.0" y="674.375" type="curve" smooth="yes"/>
      <point x="269.0" y="1002.875"/>
      <point x="422.25" y="1143.875"/>
      <point x="577.375" y="1143.875" type="curve" smooth="yes"/>
      <point x="789.875" y="1143.875"/>
      <point x="861.375" y="1001.875"/>
      <point x="879.875" y="961.5" type="curve"/>
      <point x="921.25" y="987.5"/>
      <point x="1001.375" y="1047.5"/>
      <point x="1033.5" y="1084.375" type="curve"/>
      <point x="950.125" y="1236.0"/>
      <point x="774.0" y="1326.0"/>
      <point x="583.25" y="1326.0" type="curve" smooth="yes"/>
      <point x="237.375" y="1326.0"/>
      <point x="50.0" y="1039.625"/>
      <point x="50.0" y="669.625" type="curve" smooth="yes"/>
      <point x="50.0" y="291.625"/>
      <point x="245.5" y="-9.625"/>
      <point x="581.375" y="-9.625" type="curve" smooth="yes"/>
      <point x="803.5" y="-9.625"/>
      <point x="964.5" y="118.0"/>
    </contour>
  </outline>
</glyph>
<glyph name="D" format="2">
  <advance width="1198.0"/>
  <unicode hex="0044"/>
  <anchor x="599.0" y="0.0" name="bottom"/>
  <anchor x="339.0" y="646.0" name="center"/>
  <anchor x="513.625" y="1291.0" name="top"/>
  <outline>
    <contour>
      <point x="212.625" y="-29.625" type="curve"/>
      <point x="796.375" y="-17.75"/>
      <point x="1037.0" y="141.0"/>
      <point x="1037.0" y="639.75" type="curve" smooth="yes"/>
      <point x="1037.0" y="1064.25"/>
      <point x="889.75" y="1325.0"/>
      <point x="414.75" y="1325.0" type="curve" smooth="yes"/>
      <point x="313.375" y="1325.0"/>
      <point x="155.75" y="1308.375"/>
      <point x="97.625" y="1299.0" type="curve"/>
      <point x="102.0" y="1224.5"/>
      <point x="186.0" y="203.625"/>
    </contour>
    <contour>
      <point x="397.625" y="176.0" type="curve"/>
      <point x="368.25" y="474.625"/>
      <point x="341.25" y="846.75"/>
      <point x="320.875" y="1148.625" type="curve"/>
      <point x="353.25" y="1150.875"/>
      <point x="389.25" y="1152.125"/>
      <point x="421.125" y="1152.125" type="curve" smooth="yes"/>
      <point x="735.875" y="1152.125"/>
      <point x="837.75" y="939.625"/>
      <point x="837.75" y="637.0" type="curve" smooth="yes"/>
      <point x="837.75" y="341.125"/>
      <point x="725.625" y="196.625"/>
    </contour>
  </outline>
</glyph>
<glyph name="E" format="2">
  <advance width="957.0"/>
  <unicode hex="0045"/>
  <anchor x="486.5" y="0.0" name="bottom"/>
  <anchor x="689.875" y="0.625" name="ogonek"/>
  <anchor x="486.5" y="1314.75" name="top"/>
  <anchor x="27.5" y="1291.0" name="topleft"/>
  <outline>
    <contour>
      <point x="818.75" y="-11.25" type="curve"/>
      <point x="826.375" y="13.875"/>
      <point x="840.25" y="124.5"/>
      <point x="841.5" y="191.875" type="curve"/>
      <point x="775.625" y="197.125"/>
      <point x="629.375" y="203.75"/>
      <point x="499.25" y="203.75" type="curve" smooth="yes"/>
      <point x="433.125" y="203.75"/>
      <point x="344.625" y="203.125"/>
      <point x="315.875" y="201.875" type="curve"/>
      <point x="315.875" y="301.375"/>
      <point x="317.0" y="596.25"/>
      <point x="317.75" y="640.125" type="curve"/>
      <point x="384.625" y="642.0"/>
      <point x="660.625" y="637.375"/>
      <point x="708.375" y="636.25" type="curve"/>
      <point x="706.0" y="805.0" type="line"/>
      <point x="615.875" y="804.25"/>
      <point x="397.625" y="795.625"/>
      <point x="322.375" y="793.75" type="curve"/>
      <point x="322.375" y="854.0"/>
      <point x="324.25" y="1053.5"/>
      <point x="328.5" y="1114.875" type="curve"/>
      <point x="837.75" y="1155.875" type="line"/>
      <point x="843.375" y="1215.5"/>
      <point x="847.0" y="1262.25"/>
      <point x="847.0" y="1322.5" type="curve"/>
      <point x="792.0" y="1322.5"/>
      <point x="486.625" y="1309.875"/>
      <point x="128.875" y="1251.0" type="curve"/>
      <point x="123.25" y="1169.25"/>
      <point x="117.75" y="945.625"/>
      <point x="117.75" y="613.75" type="curve" smooth="yes"/>
      <point x="117.75" y="429.875"/>
      <point x="121.125" y="222.875"/>
      <point x="128.875" y="12.875" type="curve"/>
      <point x="214.0" y="11.125"/>
      <point x="311.375" y="8.75"/>
      <point x="396.5" y="6.125" type="curve" smooth="yes"/>
      <point x="542.25" y="3.5"/>
      <point x="674.875" y="-2.625"/>
    </contour>
  </outline>
</glyph>
<glyph name="F" format="2">
  <advance width="949.0"/>
  <unicode hex="0046"/>
  <anchor x="475.0" y="0.0" name="bottom"/>
  <anchor x="475.0" y="1291.0" name="top"/>
  <outline>
    <contour>
      <point x="384.375" y="-16.25" type="line"/>
      <point x="380.625" y="185.375"/>
      <point x="367.125" y="434.375"/>
      <point x="353.5" y="605.125" type="curve"/>
      <point x="474.25" y="605.125"/>
      <point x="657.75" y="594.75"/>
      <point x="766.875" y="583.0" type="curve"/>
      <point x="770.875" y="635.25"/>
      <point x="772.75" y="695.125"/>
      <point x="772.75" y="745.25" type="curve"/>
      <point x="737.75" y="751.0"/>
      <point x="551.0" y="771.125"/>
      <point x="341.625" y="771.125" type="curve"/>
      <point x="336.75" y="881.875"/>
      <point x="328.625" y="1047.0"/>
      <point x="320.875" y="1123.875" type="curve"/>
      <point x="574.5" y="1123.875"/>
      <point x="760.0" y="1107.5"/>
      <point x="836.125" y="1100.125" type="curve"/>
      <point x="836.125" y="1145.625"/>
      <point x="833.25" y="1221.375"/>
      <point x="827.375" y="1280.0" type="curve"/>
      <point x="727.875" y="1294.625"/>
      <point x="626.875" y="1304.625"/>
      <point x="492.625" y="1307.125" type="curve" smooth="yes"/>
      <point x="388.875" y="1309.0"/>
      <point x="267.625" y="1308.875"/>
      <point x="120.5" y="1304.75" type="curve"/>
      <point x="140.625" y="904.375"/>
      <point x="163.375" y="431.125"/>
      <point x="167.125" y="-1.125" type="curve"/>
    </contour>
  </outline>
</glyph>
<glyph name="G" format="2">
  <advance width="1275.0"/>
  <unicode hex="0047"/>
  <anchor x="663.0" y="0.0" name="bottom"/>
  <anchor x="663.0" y="1291.0" name="top"/>
  <outline>
    <contour>
      <point x="702.0" y="-48.0" type="curve" smooth="yes"/>
      <point x="1038.0" y="-48.0"/>
      <point x="1183.875" y="177.125"/>
      <point x="1183.875" y="484.875" type="curve" smooth="yes"/>
      <point x="1183.875" y="538.875"/>
      <point x="1179.5" y="602.375"/>
      <point x="1169.5" y="658.25" type="curve"/>
      <point x="1004.125" y="695.375"/>
      <point x="728.375" y="724.125"/>
      <point x="579.0" y="730.375" type="curve"/>
      <point x="575.625" y="692.0"/>
      <point x="575.25" y="612.75"/>
      <point x="576.5" y="576.375" type="curve"/>
      <point x="678.0" y="571.375"/>
      <point x="931.625" y="538.375"/>
      <point x="991.375" y="526.125" type="curve"/>
      <point x="993.375" y="505.0"/>
      <point x="994.375" y="478.0"/>
      <point x="994.375" y="454.625" type="curve" smooth="yes"/>
      <point x="994.375" y="287.25"/>
      <point x="919.875" y="134.625"/>
      <point x="702.625" y="134.625" type="curve" smooth="yes"/>
      <point x="415.0" y="134.625"/>
      <point x="280.5" y="331.25"/>
      <point x="280.5" y="650.5" type="curve" smooth="yes"/>
      <point x="280.5" y="984.25"/>
      <point x="470.125" y="1144.0"/>
      <point x="634.5" y="1144.0" type="curve" smooth="yes"/>
      <point x="773.5" y="1144.0"/>
      <point x="861.375" y="1104.0"/>
      <point x="942.75" y="976.875" type="curve"/>
      <point x="997.625" y="1011.375"/>
      <point x="1072.5" y="1082.375"/>
      <point x="1095.0" y="1111.875" type="curve"/>
      <point x="1026.5" y="1222.5"/>
      <point x="872.25" y="1338.0"/>
      <point x="642.75" y="1338.0" type="curve" smooth="yes"/>
      <point x="276.875" y="1338.0"/>
      <point x="75.75" y="1051.0"/>
      <point x="75.75" y="646.0" type="curve" smooth="yes"/>
      <point x="75.75" y="212.5"/>
      <point x="290.5" y="-48.0"/>
    </contour>
  </outline>
</glyph>
<glyph name="H" format="2">
  <advance width="1094.0"/>
  <unicode hex="0048"/>
  <anchor x="547.0" y="0.0" name="bottom"/>
  <anchor x="520.375" y="1063.0" name="center"/>
  <anchor x="547.0" y="1291.0" name="top"/>
  <anchor x="20.0" y="1291.0" name="topleft"/>
  <outline>
    <contour>
      <point x="152.875" y="0.625" type="curve"/>
      <point x="205.25" y="0.625"/>
      <point x="323.0" y="5.75"/>
      <point x="360.125" y="10.75" type="curve"/>
      <point x="358.5" y="48.625"/>
      <point x="339.5" y="381.125"/>
      <point x="330.5" y="576.125" type="curve"/>
      <point x="397.875" y="576.125"/>
      <point x="647.125" y="582.375"/>
      <point x="716.375" y="584.375" type="curve"/>
      <point x="716.375" y="451.0"/>
      <point x="718.25" y="169.375"/>
      <point x="718.25" y="-0.5" type="curve"/>
      <point x="784.375" y="-0.5"/>
      <point x="869.875" y="2.0"/>
      <point x="904.125" y="5.75" type="curve"/>
      <point x="902.375" y="81.5"/>
      <point x="904.0" y="228.5"/>
      <point x="907.75" y="385.0" type="curve" smooth="yes"/>
      <point x="912.25" y="709.625"/>
      <point x="931.125" y="1160.25"/>
      <point x="951.125" y="1299.0" type="curve"/>
      <point x="923.5" y="1303.375"/>
      <point x="864.25" y="1305.75"/>
      <point x="810.625" y="1305.75" type="curve" smooth="yes"/>
      <point x="785.125" y="1305.75"/>
      <point x="757.875" y="1305.375"/>
      <point x="740.375" y="1304.0" type="curve"/>
      <point x="729.75" y="1153.25"/>
      <point x="722.625" y="883.75"/>
      <point x="718.375" y="770.125" type="curve"/>
      <point x="645.75" y="768.25"/>
      <point x="396.0" y="757.5"/>
      <point x="322.375" y="749.5" type="curve"/>
      <point x="320.625" y="782.0"/>
      <point x="317.25" y="908.625"/>
      <point x="317.25" y="1030.625" type="curve" smooth="yes"/>
      <point x="317.25" y="1118.0"/>
      <point x="318.75" y="1217.75"/>
      <point x="323.75" y="1292.0" type="curve"/>
      <point x="271.375" y="1292.0"/>
      <point x="143.25" y="1285.0"/>
      <point x="118.5" y="1282.0" type="curve"/>
      <point x="114.5" y="1234.875"/>
      <point x="113.125" y="1162.375"/>
      <point x="113.125" y="1074.5" type="curve" smooth="yes"/>
      <point x="113.125" y="729.375"/>
      <point x="137.375" y="148.25"/>
    </contour>
  </outline>
</glyph>
<glyph name="I" format="2">
  <advance width="564.25"/>
  <unicode hex="0049"/>
  <anchor x="299.75" y="0.0" name="bottom"/>
  <anchor x="373.5" y="-9.0" name="ogonek"/>
  <anchor x="299.75" y="1291.0" name="top"/>
  <anchor x="64.125" y="1291.0" name="topleft"/>
  <outline>
    <contour>
      <point x="373.5" y="-9.0" type="curve"/>
      <point x="381.375" y="64.0"/>
      <point x="383.625" y="412.0"/>
      <point x="383.625" y="569.875" type="curve" smooth="yes"/>
      <point x="383.625" y="780.5"/>
      <point x="376.5" y="1074.875"/>
      <point x="368.625" y="1321.125" type="curve"/>
      <point x="317.5" y="1321.125"/>
      <point x="209.75" y="1318.25"/>
      <point x="181.0" y="1316.25" type="curve"/>
      <point x="177.125" y="1052.0"/>
      <point x="175.625" y="812.375"/>
      <point x="175.625" y="623.125" type="curve" smooth="yes"/>
      <point x="175.625" y="425.5"/>
      <point x="179.375" y="144.75"/>
      <point x="184.0" y="-0.5" type="curve"/>
      <point x="233.125" y="-7.375"/>
      <point x="328.125" y="-9.0"/>
    </contour>
  </outline>
</glyph>
<glyph name="J" format="2">
  <advance width="1178.0"/>
  <unicode hex="004A"/>
  <anchor x="589.0" y="0.0" name="bottom"/>
  <anchor x="816.75" y="1307.875" name="top"/>
  <outline>
    <contour>
      <point x="526.375" y="-19.0" type="curve" smooth="yes"/>
      <point x="831.25" y="-19.0"/>
      <point x="989.25" y="197.125"/>
      <point x="989.25" y="595.875" type="curve" smooth="yes"/>
      <point x="989.25" y="785.875"/>
      <point x="963.625" y="1125.0"/>
      <point x="948.0" y="1300.75" type="curve"/>
      <point x="920.125" y="1304.375"/>
      <point x="886.375" y="1306.375"/>
      <point x="847.375" y="1306.375" type="curve" smooth="yes"/>
      <point x="809.625" y="1306.375"/>
      <point x="764.75" y="1301.75"/>
      <point x="733.5" y="1295.0" type="curve"/>
      <point x="737.125" y="1273.0"/>
      <point x="782.5" y="798.75"/>
      <point x="782.5" y="592.375" type="curve" smooth="yes"/>
      <point x="782.5" y="339.25"/>
      <point x="713.625" y="175.875"/>
      <point x="539.625" y="175.875" type="curve" smooth="yes"/>
      <point x="369.5" y="175.875"/>
      <point x="266.25" y="326.875"/>
      <point x="223.5" y="497.875" type="curve"/>
      <point x="172.0" y="478.0"/>
      <point x="66.125" y="428.0"/>
      <point x="30.75" y="403.125" type="curve"/>
      <point x="95.0" y="158.0"/>
      <point x="259.0" y="-19.0"/>
    </contour>
  </outline>
</glyph>
<glyph name="K" format="2">
  <advance width="1081.25"/>
  <unicode hex="004B"/>
  <anchor x="558.0" y="0.0" name="bottom"/>
  <anchor x="558.0" y="1291.0" name="top"/>
  <outline>
    <contour>
      <point x="165.375" y="-32.0" type="curve"/>
      <point x="247.625" y="-24.5"/>
      <point x="348.25" y="-13.875"/>
      <point x="376.625" y="-11.25" type="curve"/>
      <point x="376.625" y="19.125"/>
      <point x="361.5" y="340.125"/>
      <point x="348.625" y="541.5" type="curve"/>
      <point x="367.625" y="551.5"/>
      <point x="400.25" y="574.125"/>
      <point x="422.25" y="591.125" type="curve"/>
      <point x="600.375" y="399.375"/>
      <point x="796.0" y="50.125"/>
      <point x="817.5" y="-0.625" type="curve"/>
      <point x="871.75" y="17.875"/>
      <point x="964.0" y="65.375"/>
      <point x="999.125" y="90.75" type="curve"/>
      <point x="963.875" y="164.125"/>
      <point x="735.375" y="522.0"/>
      <point x="553.875" y="708.375" type="curve"/>
      <point x="780.25" y="884.5"/>
      <point x="953.75" y="1109.875"/>
      <point x="998.125" y="1184.25" type="curve"/>
      <point x="968.5" y="1199.125"/>
      <point x="895.5" y="1245.0"/>
      <point x="835.625" y="1292.25" type="curve"/>
      <point x="703.5" y="1065.75"/>
      <point x="472.5" y="848.875"/>
      <point x="335.5" y="745.875" type="curve"/>
      <point x="323.75" y="955.75"/>
      <point x="308.75" y="1234.125"/>
      <point x="304.0" y="1297.0" type="curve"/>
      <point x="285.0" y="1300.875"/>
      <point x="248.5" y="1304.125"/>
      <point x="209.75" y="1304.125" type="curve" smooth="yes"/>
      <point x="175.125" y="1304.125"/>
      <point x="132.75" y="1301.625"/>
      <point x="106.0" y="1296.0" type="curve"/>
      <point x="129.75" y="912.0"/>
      <point x="165.375" y="133.125"/>
    </contour>
  </outline>
</glyph>
<glyph name="L" format="2">
  <advance width="961.0"/>
  <unicode hex="004C"/>
  <anchor x="498.5" y="0.0" name="bottom"/>
  <anchor x="498.5" y="646.0" name="center"/>
  <anchor x="261.875" y="1298.25" name="top"/>
  <anchor x="544.25" y="900.625" name="topright"/>
  <outline>
    <contour>
      <point x="149.25" y="12.875" type="curve"/>
      <point x="250.375" y="8.75"/>
      <point x="355.25" y="7.375"/>
      <point x="468.5" y="10.5" type="curve" smooth="yes"/>
      <point x="590.875" y="13.625"/>
      <point x="728.25" y="21.5"/>
      <point x="877.75" y="37.375" type="curve"/>
      <point x="880.25" y="94.125"/>
      <point x="878.75" y="191.5"/>
      <point x="875.5" y="230.875" type="curve"/>
      <point x="702.875" y="230.875"/>
      <point x="496.875" y="221.0"/>
      <point x="358.5" y="212.875" type="curve"/>
      <point x="362.0" y="261.25"/>
      <point x="365.25" y="348.0"/>
      <point x="366.75" y="448.25" type="curve" smooth="yes"/>
      <point x="373.875" y="737.875"/>
      <point x="374.625" y="1101.5"/>
      <point x="364.625" y="1292.0" type="curve"/>
      <point x="350.5" y="1294.5"/>
      <point x="304.625" y="1297.5"/>
      <point x="273.0" y="1297.5" type="curve" smooth="yes"/>
      <point x="224.5" y="1297.5"/>
      <point x="172.0" y="1292.75"/>
      <point x="149.25" y="1289.5" type="curve"/>
      <point x="155.0" y="1147.5"/>
      <point x="159.625" y="883.25"/>
      <point x="159.625" y="627.375" type="curve" smooth="yes"/>
      <point x="159.625" y="371.125"/>
      <point x="155.0" y="122.875"/>
    </contour>
  </outline>
</glyph>
<glyph name="M" format="2">
  <advance width="1421.375"/>
  <unicode hex="004D"/>
  <anchor x="730.75" y="0.0" name="bottom"/>
  <anchor x="730.75" y="1291.0" name="top"/>
  <outline>
    <contour>
      <point x="138.875" y="-11.125" type="curve"/>
      <point x="206.625" y="-11.125"/>
      <point x="296.625" y="-8.5"/>
      <point x="343.125" y="-6.125" type="curve"/>
      <point x="343.125" y="66.375"/>
      <point x="343.875" y="654.0"/>
      <point x="344.0" y="987.625" type="curve"/>
      <point x="400.75" y="803.25"/>
      <point x="614.5" y="72.625"/>
      <point x="623.25" y="33.125" type="curve"/>
      <point x="660.75" y="25.875"/>
      <point x="719.75" y="24.75"/>
      <point x="773.0" y="24.75" type="curve"/>
      <point x="815.75" y="105.375"/>
      <point x="1041.625" y="750.625"/>
      <point x="1091.75" y="942.875" type="curve"/>
      <point x="1092.125" y="863.75"/>
      <point x="1093.0" y="657.375"/>
      <point x="1091.125" y="494.0" type="curve" smooth="yes"/>
      <point x="1089.25" y="316.875"/>
      <point x="1083.5" y="138.75"/>
      <point x="1071.375" y="5.875" type="curve"/>
      <point x="1114.625" y="2.125"/>
      <point x="1202.5" y="-2.875"/>
      <point x="1265.125" y="-2.875" type="curve"/>
      <point x="1276.625" y="134.875"/>
      <point x="1283.25" y="420.375"/>
      <point x="1283.25" y="671.875" type="curve" smooth="yes"/>
      <point x="1283.25" y="901.625"/>
      <point x="1275.125" y="1123.375"/>
      <point x="1248.75" y="1249.125" type="curve"/>
      <point x="1195.75" y="1257.5"/>
      <point x="1076.875" y="1262.5"/>
      <point x="1020.75" y="1262.5" type="curve"/>
      <point x="984.75" y="1099.25"/>
      <point x="780.75" y="468.75"/>
      <point x="716.125" y="272.5" type="curve"/>
      <point x="675.375" y="472.5"/>
      <point x="431.375" y="1245.0"/>
      <point x="425.0" y="1262.0" type="curve"/>
      <point x="411.375" y="1262.0"/>
      <point x="247.0" y="1260.625"/>
      <point x="164.25" y="1251.5" type="curve"/>
      <point x="152.5" y="1004.75"/>
      <point x="138.875" y="313.25"/>
    </contour>
  </outline>
</glyph>
<glyph name="N" format="2">
  <advance width="1282.0"/>
  <unicode hex="004E"/>
  <anchor x="641.0" y="0.0" name="bottom"/>
  <anchor x="641.0" y="1291.0" name="top"/>
  <outline>
    <contour>
      <point x="379.25" y="-5.75" type="curve"/>
      <point x="379.25" y="127.875"/>
      <point x="366.375" y="835.5"/>
      <point x="357.375" y="955.75" type="curve"/>
      <point x="474.625" y="752.5"/>
      <point x="838.25" y="105.0"/>
      <point x="893.75" y="4.0" type="curve"/>
      <point x="919.375" y="0.0"/>
      <point x="956.0" y="-1.125"/>
      <point x="993.5" y="-1.125" type="curve" smooth="yes"/>
      <point x="1020.875" y="-1.125"/>
      <point x="1049.125" y="-0.75"/>
      <point x="1077.75" y="0.625" type="curve"/>
      <point x="1087.125" y="36.125"/>
      <point x="1094.875" y="210.5"/>
      <point x="1094.875" y="391.0" type="curve" smooth="yes"/>
      <point x="1094.875" y="638.5"/>
      <point x="1085.125" y="1042.625"/>
      <point x="1074.875" y="1231.375" type="curve"/>
      <point x="1035.25" y="1244.75"/>
      <point x="931.0" y="1256.75"/>
      <point x="870.0" y="1256.75" type="curve"/>
      <point x="914.25" y="306.375" type="line"/>
      <point x="785.5" y="567.0"/>
      <point x="574.25" y="953.5"/>
      <point x="372.25" y="1254.125" type="curve"/>
      <point x="320.625" y="1263.0"/>
      <point x="195.125" y="1270.25"/>
      <point x="153.75" y="1270.25" type="curve"/>
      <point x="157.25" y="1195.375"/>
      <point x="158.375" y="1046.25"/>
      <point x="158.375" y="894.125" type="curve" smooth="yes"/>
      <point x="158.375" y="575.125"/>
      <point x="161.0" y="60.875"/>
      <point x="162.75" y="2.25" type="curve"/>
      <point x="206.5" y="-1.5"/>
      <point x="310.125" y="-7.0"/>
    </contour>
  </outline>
</glyph>
<glyph name="O" format="2">
  <advance width="1354.0"/>
  <unicode hex="004F"/>
  <anchor x="677.0" y="0.0" name="bottom"/>
  <anchor x="616.25" y="646.0" name="center"/>
  <anchor x="887.0" y="0.0" name="ogonek"/>
  <anchor x="677.0" y="1291.0" name="top"/>
  <anchor x="20.0" y="1291.0" name="topleft"/>
  <anchor x="996.0" y="1179.375" name="topright"/>
  <outline>
    <contour>
      <point x="658.625" y="-51.0" type="curve" smooth="yes"/>
      <point x="1049.125" y="-51.0"/>
      <point x="1218.125" y="258.125"/>
      <point x="1218.125" y="617.5" type="curve" smooth="yes"/>
      <point x="1218.125" y="990.25"/>
      <point x="1064.5" y="1320.0"/>
      <point x="658.625" y="1320.0" type="curve" smooth="yes"/>
      <point x="288.875" y="1320.0"/>
      <point x="101.0" y="1032.0"/>
      <point x="101.0" y="622.75" type="curve" smooth="yes"/>
      <point x="101.0" y="246.125"/>
      <point x="273.625" y="-51.0"/>
    </contour>
    <contour>
      <point x="655.625" y="148.125" type="curve" smooth="yes"/>
      <point x="414.75" y="148.125"/>
      <point x="304.5" y="361.5"/>
      <point x="304.5" y="620.0" type="curve" smooth="yes"/>
      <point x="304.5" y="919.875"/>
      <point x="414.875" y="1147.5"/>
      <point x="672.0" y="1147.5" type="curve" smooth="yes"/>
      <point x="947.625" y="1147.5"/>
      <point x="1031.875" y="888.5"/>
      <point x="1031.875" y="626.875" type="curve" smooth="yes"/>
      <point x="1031.875" y="371.0"/>
      <point x="921.375" y="148.125"/>
    </contour>
  </outline>
</glyph>
<glyph name="P" format="2">
  <advance width="1010.0"/>
  <unicode hex="0050"/>
  <anchor x="505.0" y="0.0" name="bottom"/>
  <anchor x="505.0" y="1291.0" name="top"/>
  <outline>
    <contour>
      <point x="100.375" y="-17.75" type="curve"/>
      <point x="145.875" y="-20.625"/>
      <point x="260.75" y="-22.75"/>
      <point x="306.75" y="-22.75" type="curve"/>
      <point x="307.875" y="204.375"/>
      <point x="318.125" y="519.75"/>
      <point x="321.25" y="601.625" type="curve"/>
      <point x="369.375" y="593.25"/>
      <point x="433.625" y="588.375"/>
      <point x="483.0" y="588.375" type="curve" smooth="yes"/>
      <point x="758.125" y="588.375"/>
      <point x="907.375" y="710.375"/>
      <point x="907.375" y="966.625" type="curve" smooth="yes"/>
      <point x="907.375" y="1189.625"/>
      <point x="751.875" y="1287.0"/>
      <point x="502.25" y="1287.0" type="curve" smooth="yes"/>
      <point x="356.75" y="1287.0"/>
      <point x="242.875" y="1271.75"/>
      <point x="142.125" y="1251.0" type="curve"/>
      <point x="123.75" y="985.75"/>
      <point x="100.375" y="234.375"/>
    </contour>
    <contour>
      <point x="320.375" y="771.0" type="curve"/>
      <point x="321.625" y="809.0"/>
      <point x="327.625" y="1099.75"/>
      <point x="327.25" y="1121.75" type="curve"/>
      <point x="402.625" y="1131.625"/>
      <point x="464.375" y="1136.5"/>
      <point x="515.75" y="1136.5" type="curve" smooth="yes"/>
      <point x="647.75" y="1136.5"/>
      <point x="735.875" y="1094.375"/>
      <point x="735.875" y="960.625" type="curve" smooth="yes"/>
      <point x="735.875" y="804.625"/>
      <point x="608.125" y="757.75"/>
      <point x="477.25" y="757.75" type="curve" smooth="yes"/>
      <point x="421.625" y="757.75"/>
      <point x="364.25" y="763.875"/>
    </contour>
  </outline>
</glyph>
<glyph name="Q" format="2">
  <advance width="1291.0"/>
  <unicode hex="0051"/>
  <anchor x="646.0" y="0.0" name="bottom"/>
  <anchor x="646.0" y="1291.0" name="top"/>
  <outline>
    <contour>
      <point x="1103.375" y="-89.5" type="curve"/>
      <point x="1138.5" y="-54.5"/>
      <point x="1179.0" y="1.375"/>
      <point x="1201.75" y="44.625" type="curve"/>
      <point x="1124.875" y="70.625"/>
      <point x="1041.25" y="116.375"/>
      <point x="987.75" y="170.875" type="curve"/>
      <point x="1094.5" y="274.625"/>
      <point x="1137.75" y="446.875"/>
      <point x="1137.75" y="636.875" type="curve" smooth="yes"/>
      <point x="1137.75" y="1023.625"/>
      <point x="974.25" y="1299.0"/>
      <point x="602.875" y="1299.0" type="curve" smooth="yes"/>
      <point x="266.125" y="1299.0"/>
      <point x="89.125" y="998.75"/>
      <point x="89.125" y="638.25" type="curve" smooth="yes"/>
      <point x="89.125" y="294.5"/>
      <point x="261.875" y="-2.875"/>
      <point x="595.5" y="-2.875" type="curve" smooth="yes"/>
      <point x="744.875" y="-2.875"/>
      <point x="827.375" y="55.5"/>
      <point x="855.375" y="81.5" type="curve"/>
      <point x="890.0" y="44.5"/>
      <point x="1043.375" y="-66.125"/>
    </contour>
    <contour>
      <point x="756.125" y="223.0" type="curve"/>
      <point x="740.875" y="206.625"/>
      <point x="696.125" y="171.125"/>
      <point x="605.625" y="171.125" type="curve" smooth="yes"/>
      <point x="369.375" y="171.125"/>
      <point x="285.25" y="403.625"/>
      <point x="285.25" y="659.375" type="curve" smooth="yes"/>
      <point x="285.25" y="925.375"/>
      <point x="394.25" y="1136.0"/>
      <point x="610.125" y="1136.0" type="curve" smooth="yes"/>
      <point x="855.625" y="1136.0"/>
      <point x="958.75" y="916.5"/>
      <point x="958.75" y="627.125" type="curve" smooth="yes"/>
      <point x="958.75" y="477.625"/>
      <point x="926.0" y="364.625"/>
      <point x="876.125" y="292.375" type="curve"/>
      <point x="807.125" y="360.625"/>
      <point x="746.875" y="474.25"/>
      <point x="713.0" y="548.0" type="curve"/>
      <point x="678.625" y="527.375"/>
      <point x="615.25" y="481.5"/>
      <point x="591.875" y="460.875" type="curve"/>
      <point x="628.75" y="384.0"/>
      <point x="702.5" y="270.125"/>
    </contour>
  </outline>
</glyph>
<glyph name="R" format="2">
  <advance width="1094.0"/>
  <unicode hex="0052"/>
  <anchor x="547.0" y="0.0" name="bottom"/>
  <anchor x="494.625" y="1322.25" name="top"/>
  <outline>
    <contour>
      <point x="174.75" y="-27.125" type="curve"/>
      <point x="244.625" y="-27.125"/>
      <point x="341.875" y="-24.375"/>
      <point x="391.875" y="-14.25" type="curve"/>
      <point x="382.5" y="141.875"/>
      <point x="356.25" y="542.125"/>
      <point x="350.125" y="599.125" type="curve"/>
      <point x="389.0" y="599.5"/>
      <point x="495.0" y="610.25"/>
      <point x="571.375" y="630.875" type="curve"/>
      <point x="616.125" y="533.625"/>
      <point x="748.75" y="171.375"/>
      <point x="782.875" y="-17.25" type="curve"/>
      <point x="802.875" y="-15.875"/>
      <point x="930.375" y="15.625"/>
      <point x="979.0" y="47.125" type="curve"/>
      <point x="945.875" y="182.75"/>
      <point x="808.875" y="552.75"/>
      <point x="731.875" y="679.25" type="curve"/>
      <point x="865.0" y="732.5"/>
      <point x="930.5" y="862.25"/>
      <point x="930.5" y="999.625" type="curve" smooth="yes"/>
      <point x="930.5" y="1266.625"/>
      <point x="727.125" y="1324.75"/>
      <point x="527.75" y="1324.75" type="curve" smooth="yes"/>
      <point x="399.625" y="1324.75"/>
      <point x="203.125" y="1311.75"/>
      <point x="107.75" y="1303.0" type="curve"/>
      <point x="130.125" y="888.375"/>
      <point x="160.25" y="270.125"/>
    </contour>
    <contour>
      <point x="334.75" y="758.125" type="curve"/>
      <point x="331.125" y="806.125"/>
      <point x="306.875" y="1104.125"/>
      <point x="301.75" y="1161.75" type="curve"/>
      <point x="327.5" y="1164.75"/>
      <point x="461.375" y="1175.75"/>
      <point x="504.375" y="1175.75" type="curve" smooth="yes"/>
      <point x="636.5" y="1175.75"/>
      <point x="750.125" y="1158.0"/>
      <point x="750.125" y="994.5" type="curve" smooth="yes"/>
      <point x="750.125" y="882.625"/>
      <point x="710.375" y="817.5"/>
      <point x="520.5" y="776.75" type="curve" smooth="yes"/>
      <point x="447.0" y="761.625"/>
      <point x="392.875" y="758.125"/>
    </contour>
  </outline>
</glyph>
<glyph name="S" format="2">
  <advance width="1152.0"/>
  <unicode hex="0053"/>
  <anchor x="576.0" y="0.0" name="bottom"/>
  <anchor x="522.5" y="1326.5" name="top"/>
  <outline>
    <contour>
      <point x="566.625" y="-12.375" type="curve" smooth="yes"/>
      <point x="861.625" y="-12.375"/>
      <point x="1036.875" y="188.75"/>
      <point x="1036.875" y="405.75" type="curve" smooth="yes"/>
      <point x="1036.875" y="668.875"/>
      <point x="789.875" y="746.25"/>
      <point x="525.75" y="826.625" type="curve" smooth="yes"/>
      <point x="417.0" y="858.5"/>
      <point x="293.25" y="903.375"/>
      <point x="293.25" y="1017.5" type="curve" smooth="yes"/>
      <point x="293.25" y="1125.25"/>
      <point x="379.375" y="1192.875"/>
      <point x="512.75" y="1192.875" type="curve" smooth="yes"/>
      <point x="694.125" y="1192.875"/>
      <point x="818.125" y="1097.0"/>
      <point x="872.875" y="1037.375" type="curve"/>
      <point x="903.375" y="1064.625"/>
      <point x="963.5" y="1136.75"/>
      <point x="980.75" y="1167.25" type="curve"/>
      <point x="914.625" y="1251.75"/>
      <point x="732.75" y="1349.0"/>
      <point x="524.375" y="1349.0" type="curve" smooth="yes"/>
      <point x="294.5" y="1349.0"/>
      <point x="95.75" y="1241.625"/>
      <point x="95.75" y="1026.625" type="curve" smooth="yes"/>
      <point x="95.75" y="814.875"/>
      <point x="260.25" y="724.375"/>
      <point x="496.0" y="649.5" type="curve" smooth="yes"/>
      <point x="681.125" y="593.875"/>
      <point x="837.0" y="523.625"/>
      <point x="837.0" y="389.375" type="curve" smooth="yes"/>
      <point x="837.0" y="280.25"/>
      <point x="760.5" y="152.625"/>
      <point x="568.625" y="152.625" type="curve" smooth="yes"/>
      <point x="365.625" y="152.625"/>
      <point x="230.5" y="324.5"/>
      <point x="173.25" y="407.5" type="curve"/>
      <point x="135.125" y="386.0"/>
      <point x="48.5" y="311.0"/>
      <point x="31.5" y="288.75" type="curve"/>
      <point x="105.625" y="153.5"/>
      <point x="317.125" y="-12.375"/>
    </contour>
  </outline>
</glyph>
<glyph name="T" format="2">
  <advance width="1039.0"/>
  <unicode hex="0054"/>
  <anchor x="549.25" y="0.0" name="bottom"/>
  <anchor x="520.0" y="646.0" name="center"/>
  <anchor x="520.0" y="1291.0" name="top"/>
  <outline>
    <contour>
      <point x="47.375" y="1139.875" type="curve"/>
      <point x="142.0" y="1143.0"/>
      <point x="321.75" y="1149.125"/>
      <point x="427.0" y="1153.0" type="curve"/>
      <point x="426.625" y="1114.25"/>
      <point x="426.25" y="1063.25"/>
      <point x="426.25" y="1004.0" type="curve" smooth="yes"/>
      <point x="426.25" y="706.5"/>
      <point x="435.875" y="185.25"/>
      <point x="445.875" y="-14.0" type="curve"/>
      <point x="494.25" y="-14.0"/>
      <point x="610.25" y="-8.25"/>
      <point x="659.125" y="-0.375" type="curve"/>
      <point x="656.5" y="67.625"/>
      <point x="626.625" y="982.75"/>
      <point x="622.375" y="1154.75" type="curve"/>
      <point x="731.25" y="1153.625"/>
      <point x="929.5" y="1151.125"/>
      <point x="985.875" y="1149.25" type="curve"/>
      <point x="991.5" y="1185.25"/>
      <point x="996.0" y="1253.875"/>
      <point x="993.5" y="1318.625" type="curve"/>
      <point x="879.25" y="1333.125"/>
      <point x="737.875" y="1337.875"/>
      <point x="592.625" y="1337.875" type="curve" smooth="yes"/>
      <point x="392.75" y="1337.875"/>
      <point x="185.75" y="1328.5"/>
      <point x="34.0" y="1319.625" type="curve"/>
      <point x="34.0" y="1288.875"/>
      <point x="39.25" y="1181.125"/>
    </contour>
  </outline>
</glyph>
<glyph name="V" format="2">
  <advance width="1172.375"/>
  <unicode hex="0056"/>
  <anchor x="591.25" y="0.0" name="bottom"/>
  <anchor x="591.25" y="1291.0" name="top"/>
  <outline>
    <contour>
      <point x="605.625" y="-20.125" type="curve" smooth="yes"/>
      <point x="653.75" y="-20.125"/>
      <point x="697.125" y="-19.125"/>
      <point x="723.75" y="-16.0" type="curve"/>
      <point x="739.125" y="32.125"/>
      <point x="923.75" y="569.75"/>
      <point x="1091.125" y="1316.625" type="curve"/>
      <point x="1029.125" y="1343.25"/>
      <point x="939.375" y="1358.5"/>
      <point x="869.875" y="1361.625" type="curve"/>
      <point x="865.125" y="1319.25"/>
      <point x="750.0" y="658.5"/>
      <point x="598.5" y="191.125" type="curve"/>
      <point x="481.625" y="540.375"/>
      <point x="311.625" y="1232.5"/>
      <point x="296.0" y="1360.25" type="curve"/>
      <point x="242.5" y="1360.25"/>
      <point x="123.75" y="1347.5"/>
      <point x="68.125" y="1329.75" type="curve"/>
      <point x="110.875" y="1098.75"/>
      <point x="303.125" y="351.625"/>
      <point x="471.625" y="-10.0" type="curve"/>
      <point x="500.0" y="-16.0"/>
      <point x="555.375" y="-20.125"/>
    </contour>
  </outline>
</glyph>
<glyph name="W" format="2">
  <advance width="1344.0"/>
  <unicode hex="0057"/>
  <anchor x="672.0" y="0.0" name="bottom"/>
  <anchor x="672.0" y="1291.0" name="top"/>
  <outline>
    <contour>
      <point x="852.375" y="-16.25" type="curve"/>
      <point x="1049.75" y="2.125" type="line"/>
      <point x="1073.25" y="78.375"/>
      <point x="1203.75" y="757.625"/>
      <point x="1203.75" y="1366.625" type="curve"/>
      <point x="1000.125" y="1346.25" type="line"/>
      <point x="1000.125" y="1058.375"/>
      <point x="973.25" y="553.0"/>
      <point x="924.875" y="251.75" type="curve"/>
      <point x="888.25" y="412.375"/>
      <point x="766.875" y="848.375"/>
      <point x="757.625" y="889.875" type="curve"/>
      <point x="604.0" y="881.875" type="line"/>
      <point x="582.625" y="835.0"/>
      <point x="398.5" y="458.125"/>
      <point x="350.0" y="299.5" type="curve"/>
      <point x="333.125" y="642.25"/>
      <point x="334.75" y="1002.125"/>
      <point x="334.75" y="1340.0" type="curve"/>
      <point x="117.875" y="1348.5" type="line"/>
      <point x="117.875" y="879.5"/>
      <point x="157.125" y="438.625"/>
      <point x="198.5" y="2.875" type="curve"/>
      <point x="397.125" y="-3.875" type="line"/>
      <point x="424.0" y="59.75"/>
      <point x="634.75" y="529.125"/>
      <point x="667.75" y="619.75" type="curve"/>
      <point x="696.625" y="519.375"/>
      <point x="805.25" y="147.625"/>
    </contour>
  </outline>
</glyph>
<glyph name="X" format="2">
  <advance width="1165.5"/>
  <unicode hex="0058"/>
  <anchor x="594.5" y="0.0" name="bottom"/>
  <anchor x="594.5" y="1291.0" name="top"/>
  <outline>
    <contour>
      <point x="499.375" y="643.375" type="curve"/>
      <point x="432.625" y="526.625"/>
      <point x="236.125" y="255.5"/>
      <point x="72.25" y="45.375" type="curve"/>
      <point x="153.0" y="15.625"/>
      <point x="209.875" y="-3.625"/>
      <point x="280.25" y="-11.0" type="curve"/>
      <point x="297.625" y="10.0"/>
      <point x="564.5" y="393.5"/>
      <point x="614.375" y="485.5" type="curve"/>
      <point x="733.875" y="293.875"/>
      <point x="834.25" y="93.625"/>
      <point x="888.125" y="-29.625" type="curve"/>
      <point x="944.625" y="-21.5"/>
      <point x="1030.5" y="1.125"/>
      <point x="1086.125" y="36.625" type="curve"/>
      <point x="1014.25" y="176.125"/>
      <point x="804.75" y="536.75"/>
      <point x="715.875" y="658.0" type="curve"/>
      <point x="779.625" y="744.5"/>
      <point x="991.25" y="1038.875"/>
      <point x="1076.625" y="1242.375" type="curve"/>
      <point x="1041.375" y="1268.5"/>
      <point x="961.625" y="1299.75"/>
      <point x="873.625" y="1315.5" type="curve"/>
      <point x="847.0" y="1235.25"/>
      <point x="738.375" y="985.875"/>
      <point x="616.0" y="806.625" type="curve"/>
      <point x="493.25" y="1028.0"/>
      <point x="354.25" y="1254.875"/>
      <point x="294.5" y="1335.125" type="curve"/>
      <point x="236.5" y="1326.375"/>
      <point x="129.25" y="1290.625"/>
      <point x="72.75" y="1263.25" type="curve"/>
      <point x="123.0" y="1204.75"/>
      <point x="349.125" y="916.5"/>
    </contour>
  </outline>
</glyph>
<glyph name="Y" format="2">
  <advance width="1065.0"/>
  <unicode hex="0059"/>
  <anchor x="576.75" y="0.0" name="bottom"/>
  <anchor x="576.75" y="1291.0" name="top"/>
  <anchor x="63.75" y="1291.0" name="topleft"/>
  <outline>
    <contour>
      <point x="462.5" y="524.25" type="curve"/>
      <point x="454.0" y="370.75"/>
      <point x="443.125" y="109.125"/>
      <point x="443.125" y="2.75" type="curve"/>
      <point x="476.25" y="-2.875"/>
      <point x="519.875" y="-6.125"/>
      <point x="560.25" y="-6.125" type="curve" smooth="yes"/>
      <point x="597.25" y="-6.125"/>
      <point x="633.25" y="-2.875"/>
      <point x="649.0" y="0.75" type="curve"/>
      <point x="647.875" y="27.5"/>
      <point x="648.25" y="158.25"/>
      <point x="648.25" y="247.25" type="curve" smooth="yes"/>
      <point x="648.25" y="318.875"/>
      <point x="646.375" y="464.5"/>
      <point x="644.125" y="536.375" type="curve"/>
      <point x="808.375" y="864.75"/>
      <point x="943.5" y="1103.375"/>
      <point x="1028.5" y="1222.625" type="curve"/>
      <point x="982.875" y="1253.25"/>
      <point x="907.75" y="1292.125"/>
      <point x="833.75" y="1305.25" type="curve"/>
      <point x="777.5" y="1201.0"/>
      <point x="587.875" y="821.375"/>
      <point x="544.875" y="733.875" type="curve"/>
      <point x="473.25" y="874.25"/>
      <point x="311.5" y="1253.25"/>
      <point x="289.625" y="1320.625" type="curve"/>
      <point x="235.25" y="1317.5"/>
      <point x="158.625" y="1304.875"/>
      <point x="82.75" y="1276.25" type="curve"/>
      <point x="141.375" y="1136.25"/>
      <point x="388.125" y="631.75"/>
    </contour>
  </outline>
</glyph>
<glyph name="Z" format="2">
  <advance width="1044.0"/>
  <unicode hex="005A"/>
  <anchor x="522.0" y="0.0" name="bottom"/>
  <anchor x="522.0" y="646.0" name="center"/>
  <anchor x="522.0" y="1291.0" name="top"/>
  <outline>
    <contour>
      <point x="898.125" y="-14.0" type="curve"/>
      <point x="902.375" y="4.875"/>
      <point x="908.0" y="52.375"/>
      <point x="909.25" y="98.875" type="curve" smooth="yes"/>
      <point x="910.5" y="137.625"/>
      <point x="909.625" y="177.875"/>
      <point x="908.125" y="202.0" type="curve"/>
      <point x="836.875" y="198.875"/>
      <point x="754.875" y="196.375"/>
      <point x="677.0" y="196.375" type="curve" smooth="yes"/>
      <point x="522.875" y="196.375"/>
      <point x="345.25" y="201.5"/>
      <point x="265.25" y="208.625" type="curve"/>
      <point x="361.625" y="319.625"/>
      <point x="769.0" y="880.125"/>
      <point x="919.5" y="1165.625" type="curve"/>
      <point x="922.25" y="1181.25"/>
      <point x="925.0" y="1217.375"/>
      <point x="925.0" y="1256.0" type="curve" smooth="yes"/>
      <point x="925.0" y="1281.875"/>
      <point x="923.875" y="1309.875"/>
      <point x="920.25" y="1330.0" type="curve"/>
      <point x="883.875" y="1331.5"/>
      <point x="761.875" y="1330.375"/>
      <point x="729.25" y="1329.75" type="curve" smooth="yes"/>
      <point x="541.875" y="1326.0"/>
      <point x="270.0" y="1306.625"/>
      <point x="103.375" y="1294.0" type="curve"/>
      <point x="101.25" y="1274.75"/>
      <point x="100.125" y="1242.375"/>
      <point x="100.125" y="1207.5" type="curve" smooth="yes"/>
      <point x="100.125" y="1176.25"/>
      <point x="101.625" y="1139.75"/>
      <point x="103.75" y="1119.0" type="curve"/>
      <point x="302.375" y="1134.5"/>
      <point x="641.625" y="1156.625"/>
      <point x="712.5" y="1156.625" type="curve"/>
      <point x="627.5" y="1003.25"/>
      <point x="219.625" y="407.875"/>
      <point x="43.625" y="205.5" type="curve"/>
      <point x="43.625" y="160.75"/>
      <point x="46.75" y="61.5"/>
      <point x="49.25" y="22.0" type="curve"/>
      <point x="380.875" y="-4.25"/>
      <point x="662.125" y="-14.0"/>
    </contour>
  </outline>
</glyph>
<glyph name="bracketleft" format="2">
  <advance width="735.0"/>
  <unicode hex="005B"/>
  <outline>
    <contour>
      <point x="333.5" y="-526.625" type="curve" smooth="yes"/>
      <point x="448.5" y="-526.625"/>
      <point x="551.375" y="-521.375"/>
      <point x="618.0" y="-514.625" type="curve"/>
      <point x="622.625" y="-484.625"/>
      <point x="629.75" y="-409.875"/>
      <point x="629.75" y="-361.625" type="curve"/>
      <point x="576.75" y="-362.875"/>
      <point x="493.5" y="-362.5"/>
      <point x="425.125" y="-361.75" type="curve" smooth="yes"/>
      <point x="350.875" y="-360.625"/>
      <point x="288.25" y="-359.5"/>
      <point x="270.125" y="-357.875" type="curve"/>
      <point x="255.75" y="-192.125"/>
      <point x="247.25" y="129.75"/>
      <point x="247.25" y="457.0" type="curve" smooth="yes"/>
      <point x="247.25" y="830.0"/>
      <point x="259.125" y="1215.75"/>
      <point x="288.75" y="1447.875" type="curve"/>
      <point x="423.125" y="1460.375"/>
      <point x="618.625" y="1473.0"/>
      <point x="681.125" y="1474.875" type="curve"/>
      <point x="683.875" y="1488.75"/>
      <point x="688.375" y="1515.75"/>
      <point x="691.75" y="1546.625" type="curve" smooth="yes"/>
      <point x="694.0" y="1572.0"/>
      <point x="695.25" y="1597.125"/>
      <point x="694.0" y="1619.5" type="curve"/>
      <point x="518.625" y="1618.75"/>
      <point x="246.0" y="1601.25"/>
      <point x="113.0" y="1575.5" type="curve"/>
      <point x="77.5" y="1342.375"/>
      <point x="56.0" y="952.75"/>
      <point x="56.0" y="532.125" type="curve" smooth="yes"/>
      <point x="56.0" y="175.0"/>
      <point x="70.125" y="-201.625"/>
      <point x="101.0" y="-519.75" type="curve"/>
      <point x="175.875" y="-524.25"/>
      <point x="256.375" y="-526.625"/>
    </contour>
  </outline>
</glyph>
<glyph name="backslash" format="2">
  <advance width="725.0"/>
  <unicode hex="005C"/>
  <outline>
    <contour>
      <point x="731.125" y="-13.375" type="curve"/>
      <point x="535.25" y="306.75"/>
      <point x="238.875" y="1125.0"/>
      <point x="174.625" y="1471.375" type="curve"/>
      <point x="110.25" y="1467.625"/>
      <point x="28.375" y="1446.0"/>
      <point x="3.75" y="1421.0" type="curve"/>
      <point x="129.625" y="878.5"/>
      <point x="307.25" y="394.5"/>
      <point x="563.125" y="-93.5" type="curve"/>
      <point x="611.0" y="-81.625"/>
      <point x="678.75" y="-51.625"/>
    </contour>
  </outline>
</glyph>
<glyph name="bracketright" format="2">
  <advance width="619.0"/>
  <unicode hex="005D"/>
  <outline>
    <contour>
      <point x="610.75" y="526.125" type="curve" smooth="yes"/>
      <point x="610.75" y="980.25"/>
      <point x="574.5" y="1359.25"/>
      <point x="525.5" y="1605.0" type="curve"/>
      <point x="398.625" y="1624.625"/>
      <point x="274.75" y="1631.5"/>
      <point x="140.0" y="1631.5" type="curve" smooth="yes"/>
      <point x="99.125" y="1631.5"/>
      <point x="42.25" y="1631.125"/>
      <point x="14.5" y="1630.375" type="curve"/>
      <point x="9.5" y="1598.75"/>
      <point x="6.625" y="1544.25"/>
      <point x="6.625" y="1504.125" type="curve"/>
      <point x="13.5" y="1496.25"/>
      <point x="29.125" y="1488.75"/>
      <point x="50.75" y="1482.0" type="curve" smooth="yes"/>
      <point x="137.5" y="1481.25"/>
      <point x="273.625" y="1480.0"/>
      <point x="358.5" y="1469.375" type="curve"/>
      <point x="392.125" y="1303.875"/>
      <point x="414.5" y="912.625"/>
      <point x="414.5" y="514.0" type="curve" smooth="yes"/>
      <point x="414.5" y="206.375"/>
      <point x="400.75" y="-107.375"/>
      <point x="369.25" y="-325.625" type="curve"/>
      <point x="328.25" y="-336.25"/>
      <point x="118.75" y="-354.125"/>
      <point x="30.875" y="-354.125" type="curve"/>
      <point x="29.625" y="-388.125"/>
      <point x="29.875" y="-466.75"/>
      <point x="31.75" y="-507.125" type="curve"/>
      <point x="157.0" y="-507.125"/>
      <point x="393.0" y="-498.0"/>
      <point x="548.0" y="-465.625" type="curve"/>
      <point x="587.25" y="-171.5"/>
      <point x="610.75" y="181.0"/>
    </contour>
  </outline>
</glyph>
<glyph name="asciicircum" format="2">
  <advance width="1032.0"/>
  <unicode hex="005E"/>
  <outline>
    <contour>
      <point x="630.875" y="1325.0" type="curve"/>
      <point x="615.75" y="1329.625"/>
      <point x="583.0" y="1333.25"/>
      <point x="547.875" y="1333.25" type="curve" smooth="yes"/>
      <point x="517.25" y="1333.25"/>
      <point x="484.625" y="1330.75"/>
      <point x="461.375" y="1326.0" type="curve"/>
      <point x="345.375" y="1217.0"/>
      <point x="135.5" y="976.0"/>
      <point x="17.0" y="812.0" type="curve"/>
      <point x="58.625" y="772.25"/>
      <point x="110.875" y="742.75"/>
      <point x="155.25" y="730.75" type="curve"/>
      <point x="226.875" y="838.625"/>
      <point x="454.75" y="1112.625"/>
      <point x="590.0" y="1230.875" type="curve"/>
      <point x="505.5" y="1231.25" type="line"/>
      <point x="598.625" y="1142.625"/>
      <point x="798.875" y="867.5"/>
      <point x="848.375" y="740.875" type="curve"/>
      <point x="913.375" y="755.625"/>
      <point x="963.25" y="777.125"/>
      <point x="993.0" y="805.0" type="curve"/>
      <point x="918.0" y="987.5"/>
      <point x="723.25" y="1231.5"/>
    </contour>
  </outline>
</glyph>
<glyph name="underscore" format="2">
  <advance width="1549.0"/>
  <unicode hex="005F"/>
  <outline>
    <contour>
      <point x="415.75" y="14.375" type="curve" smooth="yes"/>
      <point x="346.375" y="14.375"/>
      <point x="89.875" y="14.375"/>
      <point x="30.75" y="16.375" type="curve"/>
      <point x="33.375" y="-28.125"/>
      <point x="42.0" y="-124.75"/>
      <point x="45.5" y="-149.125" type="curve"/>
      <point x="274.75" y="-153.75"/>
      <point x="860.5" y="-158.625"/>
      <point x="1102.25" y="-158.625" type="curve" smooth="yes"/>
      <point x="1259.875" y="-158.625"/>
      <point x="1371.625" y="-156.5"/>
      <point x="1438.0" y="-153.5" type="curve"/>
      <point x="1444.75" y="-112.875"/>
      <point x="1450.0" y="-43.875"/>
      <point x="1450.0" y="36.25" type="curve"/>
      <point x="1241.5" y="28.375"/>
      <point x="856.375" y="14.375"/>
    </contour>
  </outline>
</glyph>
<glyph name="a" format="2">
  <advance width="1295.0"/>
  <unicode hex="0061"/>
  <anchor x="612.5" y="0.0" name="bottom"/>
  <anchor x="1169.0" y="4.375" name="ogonek"/>
  <anchor x="612.5" y="1063.0" name="top"/>
  <outline>
    <contour>
      <point x="530.125" y="-20.625" type="curve" smooth="yes"/>
      <point x="731.625" y="-20.625"/>
      <point x="891.75" y="69.375"/>
      <point x="932.5" y="142.75" type="curve"/>
      <point x="941.375" y="71.25"/>
      <point x="1016.625" y="-4.125"/>
      <point x="1127.5" y="-4.125" type="curve" smooth="yes"/>
      <point x="1222.25" y="-4.125"/>
      <point x="1303.5" y="55.75"/>
      <point x="1311.0" y="168.125" type="curve"/>
      <point x="1214.5" y="274.125" type="line"/>
      <point x="1210.375" y="207.5"/>
      <point x="1178.625" y="168.875"/>
      <point x="1135.75" y="168.875" type="curve" smooth="yes"/>
      <point x="1099.125" y="168.875"/>
      <point x="1079.0" y="185.0"/>
      <point x="1073.375" y="272.25" type="curve" smooth="yes"/>
      <point x="1068.375" y="337.75"/>
      <point x="1066.0" y="427.0"/>
      <point x="1063.375" y="558.0" type="curve" smooth="yes"/>
      <point x="1059.25" y="682.125"/>
      <point x="1038.25" y="759.125"/>
      <point x="1004.0" y="830.25" type="curve" smooth="yes"/>
      <point x="936.25" y="969.0"/>
      <point x="789.125" y="1062.875"/>
      <point x="564.5" y="1062.875" type="curve" smooth="yes"/>
      <point x="349.25" y="1062.875"/>
      <point x="167.375" y="969.5"/>
      <point x="81.0" y="839.625" type="curve"/>
      <point x="242.5" y="733.25" type="line"/>
      <point x="296.125" y="822.5"/>
      <point x="403.875" y="900.0"/>
      <point x="557.75" y="900.0" type="curve" smooth="yes"/>
      <point x="702.75" y="900.0"/>
      <point x="799.875" y="835.25"/>
      <point x="849.75" y="745.5" type="curve" smooth="yes"/>
      <point x="871.875" y="710.375"/>
      <point x="882.75" y="662.625"/>
      <point x="887.125" y="617.75" type="curve"/>
      <point x="855.125" y="632.625"/>
      <point x="718.25" y="668.75"/>
      <point x="586.5" y="668.75" type="curve" smooth="yes"/>
      <point x="302.625" y="668.75"/>
      <point x="81.75" y="558.0"/>
      <point x="81.75" y="318.75" type="curve" smooth="yes"/>
      <point x="81.75" y="71.375"/>
      <point x="280.375" y="-20.625"/>
    </contour>
    <contour>
      <point x="565.875" y="136.375" type="curve" smooth="yes"/>
      <point x="399.125" y="136.375"/>
      <point x="282.125" y="177.875"/>
      <point x="282.125" y="327.5" type="curve" smooth="yes"/>
      <point x="282.125" y="451.5"/>
      <point x="423.0" y="524.875"/>
      <point x="601.25" y="524.875" type="curve" smooth="yes"/>
      <point x="738.0" y="524.875"/>
      <point x="858.625" y="495.5"/>
      <point x="897.0" y="482.0" type="curve"/>
      <point x="893.875" y="427.0"/>
      <point x="892.875" y="363.75"/>
      <point x="894.375" y="281.875" type="curve"/>
      <point x="825.875" y="201.75"/>
      <point x="695.375" y="136.375"/>
    </contour>
  </outline>
</glyph>
<glyph name="b" format="2">
  <advance width="1200.0"/>
  <unicode hex="0062"/>
  <anchor x="607.5" y="0.0" name="bottom"/>
  <anchor x="607.5" y="1470.0" name="top"/>
  <outline>
    <contour>
      <point x="170.125" y="-14.5" type="curve"/>
      <point x="222.875" y="-19.375"/>
      <point x="315.0" y="-20.0"/>
      <point x="379.875" y="-19.0" type="curve"/>
      <point x="379.5" y="4.125"/>
      <point x="376.375" y="74.375"/>
      <point x="373.75" y="113.375" type="curve"/>
      <point x="411.75" y="74.875"/>
      <point x="507.875" y="3.75"/>
      <point x="663.0" y="3.75" type="curve" smooth="yes"/>
      <point x="915.375" y="3.75"/>
      <point x="1063.375" y="166.75"/>
      <point x="1063.375" y="434.5" type="curve" smooth="yes"/>
      <point x="1063.375" y="725.75"/>
      <point x="922.75" y="921.125"/>
      <point x="676.75" y="921.125" type="curve" smooth="yes"/>
      <point x="513.0" y="921.125"/>
      <point x="376.875" y="800.375"/>
      <point x="339.0" y="759.75" type="curve"/>
      <point x="326.125" y="1007.0"/>
      <point x="318.25" y="1296.875"/>
      <point x="318.25" y="1442.5" type="curve"/>
      <point x="227.625" y="1430.5"/>
      <point x="145.625" y="1418.375"/>
      <point x="127.625" y="1415.0" type="curve"/>
      <point x="127.625" y="1203.0"/>
      <point x="158.125" y="149.5"/>
    </contour>
    <contour>
      <point x="368.375" y="278.625" type="curve"/>
      <point x="366.375" y="311.25"/>
      <point x="351.125" y="544.0"/>
      <point x="349.25" y="579.125" type="curve"/>
      <point x="402.25" y="645.25"/>
      <point x="497.875" y="753.625"/>
      <point x="644.0" y="753.625" type="curve" smooth="yes"/>
      <point x="805.25" y="753.625"/>
      <point x="878.5" y="610.125"/>
      <point x="878.5" y="441.5" type="curve" smooth="yes"/>
      <point x="878.5" y="281.625"/>
      <point x="800.5" y="183.25"/>
      <point x="627.125" y="183.25" type="curve" smooth="yes"/>
      <point x="496.0" y="183.25"/>
      <point x="399.375" y="249.75"/>
    </contour>
  </outline>
</glyph>
<glyph name="c" format="2">
  <advance width="1026.0"/>
  <unicode hex="0063"/>
  <anchor x="513.0" y="0.0" name="bottom"/>
  <anchor x="513.0" y="1063.0" name="top"/>
  <outline>
    <contour>
      <point x="951.125" y="207.5" type="curve"/>
      <point x="813.125" y="341.625" type="line"/>
      <point x="800.375" y="320.875"/>
      <point x="710.25" y="193.0"/>
      <point x="543.25" y="193.0" type="curve" smooth="yes"/>
      <point x="335.5" y="193.0"/>
      <point x="255.625" y="382.0"/>
      <point x="255.625" y="581.75" type="curve" smooth="yes"/>
      <point x="255.625" y="789.875"/>
      <point x="359.375" y="934.125"/>
      <point x="546.125" y="934.125" type="curve" smooth="yes"/>
      <point x="723.125" y="934.125"/>
      <point x="777.125" y="810.75"/>
      <point x="789.125" y="779.75" type="curve"/>
      <point x="927.875" y="870.625" type="line"/>
      <point x="866.625" y="991.625"/>
      <point x="731.25" y="1094.75"/>
      <point x="545.75" y="1094.75" type="curve" smooth="yes"/>
      <point x="233.75" y="1094.75"/>
      <point x="62.0" y="863.875"/>
      <point x="62.0" y="539.875" type="curve" smooth="yes"/>
      <point x="62.0" y="243.125"/>
      <point x="240.125" y="-7.0"/>
      <point x="534.5" y="-7.0" type="curve" smooth="yes"/>
      <point x="751.625" y="-7.0"/>
      <point x="901.875" y="110.0"/>
    </contour>
  </outline>
</glyph>
<glyph name="d" format="2">
  <advance width="1195.0"/>
  <unicode hex="0064"/>
  <anchor x="598.0" y="0.0" name="bottom"/>
  <anchor x="866.625" y="1209.125" name="center"/>
  <anchor x="598.0" y="1470.0" name="top"/>
  <anchor x="1095.0" y="1026.75" name="topright"/>
  <outline>
    <contour>
      <point x="855.25" y="3.0" type="curve"/>
      <point x="890.625" y="-0.625"/>
      <point x="999.625" y="-2.375"/>
      <point x="1031.25" y="-2.375" type="curve"/>
      <point x="1031.25" y="486.0"/>
      <point x="1036.75" y="942.75"/>
      <point x="1073.5" y="1409.625" type="curve"/>
      <point x="1027.375" y="1419.625"/>
      <point x="955.125" y="1425.0"/>
      <point x="902.125" y="1425.0" type="curve"/>
      <point x="894.25" y="1354.125"/>
      <point x="866.25" y="987.5"/>
      <point x="860.625" y="842.875" type="curve"/>
      <point x="819.375" y="885.5"/>
      <point x="694.75" y="959.0"/>
      <point x="514.5" y="959.0" type="curve" smooth="yes"/>
      <point x="215.125" y="959.0"/>
      <point x="65.375" y="726.125"/>
      <point x="65.375" y="468.875" type="curve" smooth="yes"/>
      <point x="65.375" y="192.0"/>
      <point x="218.375" y="3.875"/>
      <point x="487.625" y="3.875" type="curve" smooth="yes"/>
      <point x="731.625" y="3.875"/>
      <point x="833.25" y="140.125"/>
      <point x="853.0" y="171.875" type="curve"/>
      <point x="853.0" y="140.25"/>
      <point x="853.75" y="37.0"/>
    </contour>
    <contour>
      <point x="535.5" y="187.75" type="curve" smooth="yes"/>
      <point x="353.0" y="187.75"/>
      <point x="251.875" y="287.125"/>
      <point x="251.875" y="480.25" type="curve" smooth="yes"/>
      <point x="251.875" y="669.375"/>
      <point x="355.0" y="789.875"/>
      <point x="545.875" y="789.875" type="curve" smooth="yes"/>
      <point x="684.625" y="789.875"/>
      <point x="805.875" y="723.625"/>
      <point x="852.25" y="682.625" type="curve"/>
      <point x="850.25" y="627.5"/>
      <point x="848.375" y="427.5"/>
      <point x="848.375" y="364.5" type="curve"/>
      <point x="819.25" y="317.875"/>
      <point x="721.625" y="187.75"/>
    </contour>
  </outline>
</glyph>
<glyph name="e" format="2">
  <advance width="1103.625"/>
  <unicode hex="0065"/>
  <anchor x="562.0" y="10.0" name="bottom"/>
  <anchor x="751.625" y="38.375" name="ogonek"/>
  <anchor x="607.625" y="1067.375" name="top"/>
  <outline>
    <contour>
      <point x="1039.25" y="222.5" type="curve"/>
      <point x="1016.25" y="275.375"/>
      <point x="929.125" y="360.25"/>
      <point x="912.125" y="373.875" type="curve"/>
      <point x="878.125" y="337.375"/>
      <point x="783.25" y="194.0"/>
      <point x="587.0" y="194.0" type="curve" smooth="yes"/>
      <point x="447.75" y="194.0"/>
      <point x="318.875" y="269.25"/>
      <point x="284.75" y="392.125" type="curve" smooth="yes"/>
      <point x="276.625" y="422.375"/>
      <point x="270.875" y="456.0"/>
      <point x="270.25" y="491.375" type="curve"/>
      <point x="379.875" y="507.875"/>
      <point x="531.0" y="523.875"/>
      <point x="665.875" y="523.875" type="curve" smooth="yes"/>
      <point x="771.5" y="523.875"/>
      <point x="981.625" y="515.75"/>
      <point x="1015.875" y="513.75" type="curve"/>
      <point x="1019.625" y="556.125"/>
      <point x="1019.875" y="593.375"/>
      <point x="1017.375" y="635.75" type="curve" smooth="yes"/>
      <point x="1000.5" y="898.5"/>
      <point x="853.25" y="1067.375"/>
      <point x="597.625" y="1067.375" type="curve" smooth="yes"/>
      <point x="292.625" y="1067.375"/>
      <point x="73.75" y="860.125"/>
      <point x="73.75" y="536.875" type="curve" smooth="yes"/>
      <point x="73.75" y="198.375"/>
      <point x="272.625" y="10.875"/>
      <point x="573.875" y="10.875" type="curve" smooth="yes"/>
      <point x="831.75" y="10.875"/>
      <point x="984.5" y="147.375"/>
    </contour>
    <contour>
      <point x="272.875" y="625.25" type="curve"/>
      <point x="278.5" y="811.125"/>
      <point x="413.375" y="926.625"/>
      <point x="587.375" y="926.625" type="curve" smooth="yes"/>
      <point x="735.75" y="926.625"/>
      <point x="807.5" y="818.0"/>
      <point x="830.0" y="720.25" type="curve" smooth="yes"/>
      <point x="835.5" y="695.25"/>
      <point x="838.125" y="670.875"/>
      <point x="838.125" y="650.25" type="curve"/>
      <point x="813.0" y="651.875"/>
      <point x="751.0" y="655.125"/>
      <point x="664.375" y="655.125" type="curve" smooth="yes"/>
      <point x="498.0" y="655.125"/>
      <point x="368.625" y="640.625"/>
    </contour>
  </outline>
</glyph>
<glyph name="f" format="2">
  <advance width="896.0"/>
  <unicode hex="0066"/>
  <anchor x="448.0" y="0.0" name="bottom"/>
  <anchor x="448.0" y="1470.0" name="top"/>
  <outline>
    <contour>
      <point x="295.625" y="-4.375" type="curve"/>
      <point x="354.25" y="-3.75"/>
      <point x="459.25" y="3.0"/>
      <point x="511.625" y="13.375" type="curve"/>
      <point x="499.75" y="51.875"/>
      <point x="432.125" y="398.75"/>
      <point x="410.75" y="542.5" type="curve"/>
      <point x="508.75" y="554.625"/>
      <point x="669.625" y="564.5"/>
      <point x="688.625" y="564.5" type="curve"/>
      <point x="688.625" y="615.375"/>
      <point x="685.625" y="685.875"/>
      <point x="679.375" y="730.375" type="curve"/>
      <point x="619.125" y="732.625"/>
      <point x="453.0" y="722.125"/>
      <point x="387.375" y="715.875" type="curve"/>
      <point x="379.375" y="767.0"/>
      <point x="372.75" y="843.375"/>
      <point x="372.75" y="895.5" type="curve" smooth="yes"/>
      <point x="372.75" y="1041.25"/>
      <point x="413.75" y="1172.625"/>
      <point x="555.625" y="1172.625" type="curve" smooth="yes"/>
      <point x="683.5" y="1172.625"/>
      <point x="753.125" y="1030.0"/>
      <point x="774.375" y="990.5" type="curve"/>
      <point x="797.0" y="1015.25"/>
      <point x="860.375" y="1100.625"/>
      <point x="887.125" y="1146.125" type="curve"/>
      <point x="859.875" y="1203.75"/>
      <point x="757.375" y="1363.875"/>
      <point x="540.125" y="1363.875" type="curve" smooth="yes"/>
      <point x="293.375" y="1363.875"/>
      <point x="179.5" y="1156.125"/>
      <point x="179.5" y="913.625" type="curve" smooth="yes"/>
      <point x="179.5" y="843.125"/>
      <point x="186.625" y="761.0"/>
      <point x="196.125" y="685.75" type="curve"/>
      <point x="169.875" y="680.75"/>
      <point x="44.125" y="650.625"/>
      <point x="19.5" y="641.0" type="curve"/>
      <point x="21.375" y="584.25"/>
      <point x="31.0" y="512.375"/>
      <point x="45.0" y="469.375" type="curve"/>
      <point x="86.0" y="484.375"/>
      <point x="165.0" y="504.625"/>
      <point x="210.75" y="513.25" type="curve"/>
      <point x="237.125" y="314.375"/>
      <point x="290.125" y="26.625"/>
    </contour>
  </outline>
</glyph>
<glyph name="g" format="2">
  <advance width="1231.0"/>
  <unicode hex="0067"/>
  <anchor x="616.0" y="-530.0" name="bottom"/>
  <anchor x="616.0" y="1063.0" name="top"/>
  <outline>
    <contour>
      <point x="640.5" y="230.875" type="curve" smooth="yes"/>
      <point x="894.75" y="230.875"/>
      <point x="1080.5" y="385.125"/>
      <point x="1080.5" y="655.75" type="curve" smooth="yes"/>
      <point x="1080.5" y="750.375"/>
      <point x="1056.0" y="830.25"/>
      <point x="1010.0" y="892.125" type="curve"/>
      <point x="1053.375" y="942.75"/>
      <point x="1118.25" y="999.875"/>
      <point x="1150.25" y="1019.125" type="curve"/>
      <point x="1124.75" y="1047.625"/>
      <point x="1066.25" y="1124.25"/>
      <point x="1047.25" y="1152.375" type="curve"/>
      <point x="998.125" y="1118.75"/>
      <point x="934.625" y="1052.625"/>
      <point x="893.5" y="989.375" type="curve"/>
      <point x="822.875" y="1032.5"/>
      <point x="730.25" y="1056.0"/>
      <point x="620.25" y="1056.0" type="curve" smooth="yes"/>
      <point x="352.5" y="1056.0"/>
      <point x="144.375" y="906.5"/>
      <point x="144.375" y="645.875" type="curve" smooth="yes"/>
      <point x="144.375" y="544.0"/>
      <point x="174.375" y="443.125"/>
      <point x="247.125" y="366.5" type="curve"/>
      <point x="191.625" y="339.25"/>
      <point x="150.375" y="283.125"/>
      <point x="150.375" y="219.625" type="curve" smooth="yes"/>
      <point x="150.375" y="165.75"/>
      <point x="181.625" y="111.75"/>
      <point x="251.875" y="74.25" type="curve"/>
      <point x="131.625" y="23.125"/>
      <point x="62.25" y="-72.5"/>
      <point x="62.25" y="-182.5" type="curve" smooth="yes"/>
      <point x="62.25" y="-429.0"/>
      <point x="291.0" y="-499.0"/>
      <point x="589.75" y="-499.0" type="curve" smooth="yes"/>
      <point x="904.75" y="-499.0"/>
      <point x="1112.375" y="-398.75"/>
      <point x="1112.375" y="-149.125" type="curve" smooth="yes"/>
      <point x="1112.375" y="39.25"/>
      <point x="957.875" y="122.625"/>
      <point x="745.875" y="122.625" type="curve" smooth="yes"/>
      <point x="643.875" y="122.625"/>
      <point x="543.125" y="121.125"/>
      <point x="448.375" y="118.875" type="curve"/>
      <point x="367.625" y="123.25"/>
      <point x="316.5" y="171.25"/>
      <point x="316.5" y="218.125" type="curve" smooth="yes"/>
      <point x="316.5" y="244.875"/>
      <point x="332.875" y="272.625"/>
      <point x="371.25" y="293.125" type="curve"/>
      <point x="439.0" y="254.125"/>
      <point x="527.375" y="230.875"/>
    </contour>
    <contour>
      <point x="603.625" y="-367.125" type="curve" smooth="yes"/>
      <point x="421.5" y="-367.125"/>
      <point x="266.625" y="-328.5"/>
      <point x="266.625" y="-189.625" type="curve" smooth="yes"/>
      <point x="266.625" y="-59.75"/>
      <point x="372.375" y="-25.75"/>
      <point x="456.875" y="-25.75" type="curve" smooth="yes"/>
      <point x="697.75" y="-25.75" type="line" smooth="yes"/>
      <point x="795.75" y="-25.75"/>
      <point x="919.375" y="-54.125"/>
      <point x="919.375" y="-177.625" type="curve" smooth="yes"/>
      <point x="919.375" y="-321.75"/>
      <point x="775.75" y="-367.125"/>
    </contour>
    <contour>
      <point x="618.875" y="388.5" type="curve" smooth="yes"/>
      <point x="457.25" y="388.5"/>
      <point x="348.0" y="491.375"/>
      <point x="348.0" y="652.375" type="curve" smooth="yes"/>
      <point x="348.0" y="829.75"/>
      <point x="471.5" y="899.0"/>
      <point x="635.5" y="899.0" type="curve" smooth="yes"/>
      <point x="789.125" y="899.0"/>
      <point x="897.75" y="797.0"/>
      <point x="897.75" y="659.375" type="curve" smooth="yes"/>
      <point x="897.75" y="501.75"/>
      <point x="813.5" y="388.5"/>
    </contour>
  </outline>
</glyph>
<glyph name="h" format="2">
  <advance width="1123.0"/>
  <unicode hex="0068"/>
  <anchor x="565.75" y="0.0" name="bottom"/>
  <anchor x="336.125" y="1236.5" name="center"/>
  <anchor x="207.0" y="1415.375" name="top"/>
  <outline>
    <contour>
      <point x="321.625" y="-20.0" type="curve"/>
      <point x="337.125" y="73.875"/>
      <point x="352.375" y="328.75"/>
      <point x="352.375" y="550.125" type="curve"/>
      <point x="371.75" y="583.75"/>
      <point x="496.5" y="734.375"/>
      <point x="643.25" y="734.375" type="curve" smooth="yes"/>
      <point x="774.5" y="734.375"/>
      <point x="805.625" y="629.25"/>
      <point x="805.625" y="471.5" type="curve" smooth="yes"/>
      <point x="805.625" y="332.0"/>
      <point x="778.875" y="125.25"/>
      <point x="759.875" y="-3.5" type="curve"/>
      <point x="786.125" y="-8.25"/>
      <point x="823.625" y="-11.75"/>
      <point x="860.25" y="-11.75" type="curve" smooth="yes"/>
      <point x="894.625" y="-11.75"/>
      <point x="929.375" y="-9.875"/>
      <point x="959.5" y="-6.125" type="curve"/>
      <point x="979.5" y="149.625"/>
      <point x="1000.25" y="356.75"/>
      <point x="1000.25" y="508.375" type="curve" smooth="yes"/>
      <point x="1000.25" y="752.75"/>
      <point x="929.125" y="910.5"/>
      <point x="709.625" y="910.5" type="curve" smooth="yes"/>
      <point x="565.625" y="910.5"/>
      <point x="420.5" y="827.5"/>
      <point x="352.5" y="742.0" type="curve"/>
      <point x="349.125" y="1013.25"/>
      <point x="332.875" y="1292.0"/>
      <point x="302.5" y="1443.0" type="curve"/>
      <point x="265.5" y="1441.75"/>
      <point x="141.125" y="1421.25"/>
      <point x="121.75" y="1414.25" type="curve"/>
      <point x="134.5" y="1211.5"/>
      <point x="146.875" y="936.0"/>
      <point x="146.875" y="676.75" type="curve" smooth="yes"/>
      <point x="146.875" y="392.125"/>
      <point x="133.375" y="125.375"/>
      <point x="116.625" y="-15.125" type="curve"/>
      <point x="134.75" y="-21.0"/>
      <point x="178.75" y="-24.125"/>
      <point x="220.75" y="-24.125" type="curve" smooth="yes"/>
      <point x="259.375" y="-24.125"/>
      <point x="298.625" y="-22.625"/>
    </contour>
  </outline>
</glyph>
<glyph name="i" format="2">
  <advance width="610.0"/>
  <unicode hex="0069"/>
  <anchor x="285.375" y="0.0" name="bottom"/>
  <outline>
    <contour>
      <point x="374.375" y="-0.75" type="curve"/>
      <point x="389.375" y="89.25"/>
      <point x="400.125" y="472.0"/>
      <point x="400.125" y="720.125" type="curve" smooth="yes"/>
      <point x="400.125" y="812.75"/>
      <point x="397.25" y="891.25"/>
      <point x="393.25" y="927.875" type="curve"/>
      <point x="355.375" y="927.875"/>
      <point x="240.0" y="922.375"/>
      <point x="210.0" y="919.875" type="curve"/>
      <point x="210.0" y="715.0"/>
      <point x="180.625" y="87.625"/>
      <point x="165.625" y="0.625" type="curve"/>
      <point x="196.5" y="-3.625"/>
      <point x="231.25" y="-6.0"/>
      <point x="268.5" y="-6.0" type="curve" smooth="yes"/>
      <point x="310.0" y="-6.0"/>
      <point x="354.125" y="-2.75"/>
    </contour>
    <contour>
      <point x="313.375" y="1083.875" type="curve" smooth="yes"/>
      <point x="392.25" y="1083.875"/>
      <point x="443.625" y="1146.0"/>
      <point x="443.625" y="1221.25" type="curve" smooth="yes"/>
      <point x="443.625" y="1306.375"/>
      <point x="389.875" y="1371.125"/>
      <point x="308.25" y="1371.125" type="curve" smooth="yes"/>
      <point x="232.125" y="1371.125"/>
      <point x="165.0" y="1319.625"/>
      <point x="165.0" y="1228.375" type="curve" smooth="yes"/>
      <point x="165.0" y="1145.5"/>
      <point x="222.75" y="1083.875"/>
    </contour>
  </outline>
</glyph>
<glyph name="j" format="2">
  <advance width="650.125"/>
  <unicode hex="006A"/>
  <outline>
    <contour>
      <point x="512.875" y="190.5" type="curve" smooth="yes"/>
      <point x="512.875" y="441.375"/>
      <point x="470.25" y="768.25"/>
      <point x="428.625" y="954.75" type="curve"/>
      <point x="223.375" y="942.625" type="line"/>
      <point x="268.125" y="706.75"/>
      <point x="303.75" y="409.375"/>
      <point x="303.75" y="182.625" type="curve" smooth="yes"/>
      <point x="303.75" y="-33.0"/>
      <point x="278.375" y="-307.125"/>
      <point x="123.75" y="-307.125" type="curve" smooth="yes"/>
      <point x="5.875" y="-307.125"/>
      <point x="-74.25" y="-188.875"/>
      <point x="-109.875" y="-89.125" type="curve"/>
      <point x="-160.25" y="-109.625"/>
      <point x="-253.5" y="-150.25"/>
      <point x="-303.125" y="-188.5" type="curve"/>
      <point x="-241.25" y="-365.0"/>
      <point x="-68.875" y="-484.0"/>
      <point x="127.125" y="-484.0" type="curve" smooth="yes"/>
      <point x="425.125" y="-484.0"/>
      <point x="512.875" y="-211.125"/>
    </contour>
    <contour>
      <point x="285.0" y="1382.5" type="curve" smooth="yes"/>
      <point x="199.75" y="1382.5"/>
      <point x="136.0" y="1319.5"/>
      <point x="136.0" y="1236.125" type="curve" smooth="yes"/>
      <point x="136.0" y="1155.5"/>
      <point x="205.25" y="1104.875"/>
      <point x="280.5" y="1104.875" type="curve" smooth="yes"/>
      <point x="361.125" y="1104.875"/>
      <point x="429.875" y="1164.25"/>
      <point x="429.875" y="1243.5" type="curve" smooth="yes"/>
      <point x="429.875" y="1316.375"/>
      <point x="369.875" y="1382.5"/>
    </contour>
  </outline>
</glyph>
<glyph name="k" format="2">
  <advance width="1156.0"/>
  <unicode hex="006B"/>
  <anchor x="590.5" y="0.0" name="bottom"/>
  <anchor x="590.5" y="1470.0" name="top"/>
  <outline>
    <contour>
      <point x="900.625" y="-43.0" type="curve"/>
      <point x="936.75" y="-32.25"/>
      <point x="1059.0" y="16.75"/>
      <point x="1082.125" y="31.5" type="curve"/>
      <point x="950.75" y="244.625"/>
      <point x="702.625" y="537.75"/>
      <point x="630.375" y="594.0" type="curve"/>
      <point x="717.75" y="661.875"/>
      <point x="969.0" y="810.125"/>
      <point x="1060.875" y="861.5" type="curve"/>
      <point x="1041.25" y="895.875"/>
      <point x="984.625" y="975.5"/>
      <point x="953.125" y="1009.625" type="curve"/>
      <point x="823.75" y="933.875"/>
      <point x="509.375" y="751.25"/>
      <point x="353.75" y="592.5" type="curve"/>
      <point x="361.375" y="709.25"/>
      <point x="377.625" y="1189.375"/>
      <point x="377.625" y="1439.25" type="curve"/>
      <point x="348.5" y="1447.375"/>
      <point x="311.0" y="1451.0"/>
      <point x="271.375" y="1451.0" type="curve" smooth="yes"/>
      <point x="240.875" y="1451.0"/>
      <point x="209.625" y="1449.5"/>
      <point x="184.0" y="1447.625" type="curve"/>
      <point x="184.0" y="1248.75"/>
      <point x="133.875" y="83.5"/>
      <point x="126.0" y="-26.5" type="curve"/>
      <point x="155.125" y="-30.625"/>
      <point x="193.125" y="-34.125"/>
      <point x="232.625" y="-34.125" type="curve" smooth="yes"/>
      <point x="265.0" y="-34.125"/>
      <point x="297.375" y="-31.75"/>
      <point x="326.625" y="-27.875" type="curve"/>
      <point x="331.0" y="28.5"/>
      <point x="343.25" y="255.375"/>
      <point x="345.875" y="371.0" type="curve"/>
      <point x="361.875" y="387.875"/>
      <point x="450.75" y="459.75"/>
      <point x="489.25" y="489.0" type="curve"/>
      <point x="585.75" y="411.75"/>
      <point x="829.125" y="82.25"/>
    </contour>
  </outline>
</glyph>
<glyph name="l" format="2">
  <advance width="645.0"/>
  <unicode hex="006C"/>
  <anchor x="320.5" y="0.0" name="bottom"/>
  <anchor x="320.5" y="735.0" name="center"/>
  <anchor x="320.5" y="1470.0" name="top"/>
  <anchor x="401.5" y="1028.375" name="topright"/>
  <outline>
    <contour>
      <point x="620.0" y="64.375" type="curve"/>
      <point x="612.125" y="82.25"/>
      <point x="554.0" y="196.125"/>
      <point x="537.875" y="217.0" type="curve"/>
      <point x="516.75" y="175.0"/>
      <point x="490.75" y="145.5"/>
      <point x="437.25" y="145.5" type="curve" smooth="yes"/>
      <point x="331.125" y="145.5"/>
      <point x="316.25" y="301.375"/>
      <point x="316.25" y="452.875" type="curve" smooth="yes"/>
      <point x="316.25" y="679.5"/>
      <point x="341.375" y="1187.125"/>
      <point x="354.875" y="1426.0" type="curve"/>
      <point x="318.5" y="1430.125"/>
      <point x="285.125" y="1432.5"/>
      <point x="250.0" y="1432.5" type="curve" smooth="yes"/>
      <point x="225.875" y="1432.5"/>
      <point x="194.125" y="1431.125"/>
      <point x="165.75" y="1429.0" type="curve"/>
      <point x="154.125" y="1193.875"/>
      <point x="134.5" y="727.0"/>
      <point x="134.5" y="436.375" type="curve" smooth="yes"/>
      <point x="134.5" y="160.375"/>
      <point x="166.875" y="-36.125"/>
      <point x="396.625" y="-36.125" type="curve" smooth="yes"/>
      <point x="506.625" y="-36.125"/>
      <point x="589.5" y="20.25"/>
    </contour>
  </outline>
</glyph>
<glyph name="m" format="2">
  <advance width="1858.0"/>
  <unicode hex="006D"/>
  <anchor x="929.0" y="0.0" name="bottom"/>
  <anchor x="929.0" y="1063.0" name="top"/>
  <outline>
    <contour>
      <point x="180.5" y="-8.875" type="curve"/>
      <point x="207.5" y="-13.25"/>
      <point x="262.5" y="-16.375"/>
      <point x="313.875" y="-16.375" type="curve" smooth="yes"/>
      <point x="337.125" y="-16.375"/>
      <point x="375.625" y="-14.375"/>
      <point x="387.25" y="-13.375" type="curve"/>
      <point x="381.5" y="31.5"/>
      <point x="357.75" y="264.0"/>
      <point x="345.75" y="583.625" type="curve"/>
      <point x="356.25" y="681.75"/>
      <point x="485.0" y="859.5"/>
      <point x="635.375" y="859.5" type="curve" smooth="yes"/>
      <point x="835.125" y="859.5"/>
      <point x="859.25" y="555.5"/>
      <point x="859.25" y="246.375" type="curve" smooth="yes"/>
      <point x="859.25" y="163.25"/>
      <point x="858.0" y="81.75"/>
      <point x="857.25" y="-7.0" type="curve"/>
      <point x="877.25" y="-11.0"/>
      <point x="921.0" y="-13.0"/>
      <point x="960.0" y="-13.0" type="curve" smooth="yes"/>
      <point x="992.875" y="-13.0"/>
      <point x="1028.5" y="-11.0"/>
      <point x="1048.875" y="-9.0" type="curve"/>
      <point x="1048.875" y="65.375"/>
      <point x="1050.375" y="142.25"/>
      <point x="1051.875" y="212.75" type="curve" smooth="yes"/>
      <point x="1056.75" y="544.5"/>
      <point x="1093.25" y="866.625"/>
      <point x="1341.125" y="866.625" type="curve" smooth="yes"/>
      <point x="1478.375" y="866.625"/>
      <point x="1533.5" y="733.25"/>
      <point x="1533.5" y="482.25" type="curve" smooth="yes"/>
      <point x="1533.5" y="349.25"/>
      <point x="1516.875" y="180.25"/>
      <point x="1491.125" y="-16.875" type="curve"/>
      <point x="1526.5" y="-20.375"/>
      <point x="1562.5" y="-21.75"/>
      <point x="1595.125" y="-21.75" type="curve" smooth="yes"/>
      <point x="1628.375" y="-21.75"/>
      <point x="1662.25" y="-19.75"/>
      <point x="1693.5" y="-16.125" type="curve"/>
      <point x="1705.125" y="104.375"/>
      <point x="1718.25" y="285.5"/>
      <point x="1718.25" y="431.125" type="curve" smooth="yes"/>
      <point x="1718.25" y="792.5"/>
      <point x="1650.25" y="1045.875"/>
      <point x="1359.875" y="1045.875" type="curve" smooth="yes"/>
      <point x="1123.0" y="1045.875"/>
      <point x="1000.625" y="858.75"/>
      <point x="966.75" y="667.625" type="curve"/>
      <point x="964.5" y="711.875"/>
      <point x="958.75" y="759.375"/>
      <point x="945.875" y="805.5" type="curve" smooth="yes"/>
      <point x="910.625" y="925.625"/>
      <point x="832.875" y="1033.375"/>
      <point x="680.625" y="1033.375" type="curve" smooth="yes"/>
      <point x="456.5" y="1033.375"/>
      <point x="355.25" y="872.875"/>
      <point x="335.0" y="815.625" type="curve"/>
      <point x="335.0" y="843.625"/>
      <point x="330.0" y="985.375"/>
      <point x="328.0" y="1027.0" type="curve"/>
      <point x="286.0" y="1026.375"/>
      <point x="181.0" y="1011.75"/>
      <point x="140.75" y="999.25" type="curve"/>
      <point x="140.75" y="742.5"/>
      <point x="156.5" y="231.625"/>
    </contour>
  </outline>
</glyph>
<glyph name="n" format="2">
  <advance width="1330.0"/>
  <unicode hex="006E"/>
  <anchor x="678.75" y="0.0" name="bottom"/>
  <anchor x="678.75" y="1063.0" name="top"/>
  <outline>
    <contour>
      <point x="329.0" y="-12.75" type="curve"/>
      <point x="342.125" y="101.5"/>
      <point x="366.5" y="365.5"/>
      <point x="374.0" y="702.5" type="curve"/>
      <point x="443.0" y="765.875"/>
      <point x="582.0" y="877.375"/>
      <point x="765.0" y="877.375" type="curve" smooth="yes"/>
      <point x="940.625" y="877.375"/>
      <point x="975.375" y="738.875"/>
      <point x="975.375" y="530.5" type="curve" smooth="yes"/>
      <point x="975.375" y="368.625"/>
      <point x="951.625" y="167.125"/>
      <point x="925.5" y="-3.0" type="curve"/>
      <point x="948.5" y="-6.625"/>
      <point x="991.0" y="-8.0"/>
      <point x="1032.875" y="-8.0" type="curve" smooth="yes"/>
      <point x="1075.25" y="-8.0"/>
      <point x="1117.0" y="-6.0"/>
      <point x="1136.0" y="-3.0" type="curve"/>
      <point x="1158.25" y="194.625"/>
      <point x="1170.125" y="390.5"/>
      <point x="1170.125" y="528.375" type="curve" smooth="yes"/>
      <point x="1170.125" y="876.25"/>
      <point x="1106.625" y="1060.0"/>
      <point x="802.875" y="1060.0" type="curve" smooth="yes"/>
      <point x="632.75" y="1060.0"/>
      <point x="451.75" y="955.125"/>
      <point x="377.0" y="874.375" type="curve"/>
      <point x="377.75" y="928.125"/>
      <point x="377.75" y="1018.25"/>
      <point x="375.875" y="1039.625" type="curve"/>
      <point x="353.75" y="1043.5"/>
      <point x="321.875" y="1044.625"/>
      <point x="291.75" y="1044.625" type="curve" smooth="yes"/>
      <point x="244.5" y="1044.625"/>
      <point x="198.125" y="1040.875"/>
      <point x="165.75" y="1036.0" type="curve"/>
      <point x="165.75" y="499.0"/>
      <point x="150.375" y="215.875"/>
      <point x="124.875" y="-7.375" type="curve"/>
      <point x="145.375" y="-10.375"/>
      <point x="194.875" y="-12.5"/>
      <point x="228.875" y="-13.25" type="curve" smooth="yes"/>
      <point x="265.25" y="-14.0"/>
      <point x="303.0" y="-13.375"/>
    </contour>
  </outline>
</glyph>
<glyph name="o" format="2">
  <advance width="1171.25"/>
  <unicode hex="006F"/>
  <anchor x="597.5" y="0.0" name="bottom"/>
  <anchor x="597.5" y="532.0" name="center"/>
  <anchor x="768.0" y="0.0" name="ogonek"/>
  <anchor x="597.5" y="1063.0" name="top"/>
  <anchor x="891.5" y="941.0" name="topright"/>
  <outline>
    <contour>
      <point x="600.625" y="-30.75" type="curve" smooth="yes"/>
      <point x="903.25" y="-30.75"/>
      <point x="1080.5" y="166.75"/>
      <point x="1080.5" y="471.75" type="curve" smooth="yes"/>
      <point x="1080.5" y="827.0"/>
      <point x="929.25" y="1069.875"/>
      <point x="602.875" y="1069.875" type="curve" smooth="yes"/>
      <point x="295.25" y="1069.875"/>
      <point x="88.875" y="880.625"/>
      <point x="88.875" y="534.5" type="curve" smooth="yes"/>
      <point x="88.875" y="169.375"/>
      <point x="250.875" y="-30.75"/>
    </contour>
    <contour>
      <point x="592.625" y="148.25" type="curve" smooth="yes"/>
      <point x="391.0" y="148.25"/>
      <point x="284.125" y="306.875"/>
      <point x="284.125" y="535.125" type="curve" smooth="yes"/>
      <point x="284.125" y="756.125"/>
      <point x="387.75" y="916.125"/>
      <point x="592.875" y="916.125" type="curve" smooth="yes"/>
      <point x="799.625" y="916.125"/>
      <point x="896.625" y="741.625"/>
      <point x="896.625" y="500.625" type="curve" smooth="yes"/>
      <point x="896.625" y="324.25"/>
      <point x="810.375" y="148.25"/>
    </contour>
  </outline>
</glyph>
<glyph name="p" format="2">
  <advance width="1210.25"/>
  <unicode hex="0070"/>
  <anchor x="600.0" y="0.0" name="bottom"/>
  <anchor x="600.0" y="1063.0" name="top"/>
  <outline>
    <contour>
      <point x="76.75" y="-438.75" type="curve"/>
      <point x="116.625" y="-438.75"/>
      <point x="211.125" y="-434.875"/>
      <point x="280.0" y="-420.75" type="curve"/>
      <point x="297.5" y="-297.875"/>
      <point x="323.875" y="125.125"/>
      <point x="326.375" y="199.0" type="curve"/>
      <point x="369.0" y="151.5"/>
      <point x="540.0" y="84.875"/>
      <point x="670.25" y="84.875" type="curve" smooth="yes"/>
      <point x="951.625" y="84.875"/>
      <point x="1117.75" y="288.25"/>
      <point x="1117.75" y="603.375" type="curve" smooth="yes"/>
      <point x="1117.75" y="900.875"/>
      <point x="976.0" y="1078.625"/>
      <point x="714.375" y="1078.625" type="curve" smooth="yes"/>
      <point x="534.25" y="1078.625"/>
      <point x="400.25" y="980.625"/>
      <point x="351.75" y="926.375" type="curve"/>
      <point x="351.75" y="974.375"/>
      <point x="351.125" y="1046.125"/>
      <point x="349.875" y="1080.5" type="curve"/>
      <point x="285.5" y="1080.5"/>
      <point x="207.0" y="1073.125"/>
      <point x="154.0" y="1057.625" type="curve"/>
      <point x="154.0" y="771.875"/>
      <point x="130.625" y="64.25"/>
    </contour>
    <contour>
      <point x="643.25" y="282.125" type="curve" smooth="yes"/>
      <point x="485.0" y="282.125"/>
      <point x="379.625" y="360.625"/>
      <point x="339.25" y="396.5" type="curve"/>
      <point x="340.0" y="474.375"/>
      <point x="348.875" y="717.5"/>
      <point x="350.125" y="761.5" type="curve"/>
      <point x="384.5" y="806.5"/>
      <point x="508.875" y="910.625"/>
      <point x="662.625" y="910.625" type="curve" smooth="yes"/>
      <point x="830.5" y="910.625"/>
      <point x="919.125" y="805.75"/>
      <point x="919.125" y="622.875" type="curve" smooth="yes"/>
      <point x="919.125" y="409.875"/>
      <point x="843.75" y="282.125"/>
    </contour>
  </outline>
</glyph>
<glyph name="q" format="2">
  <advance width="1207.0"/>
  <unicode hex="0071"/>
  <anchor x="604.0" y="0.0" name="bottom"/>
  <anchor x="604.0" y="1063.0" name="top"/>
  <outline>
    <contour>
      <point x="1024.875" y="-456.375" type="curve"/>
      <point x="1011.5" y="-343.25"/>
      <point x="988.375" y="-115.75"/>
      <point x="988.375" y="112.875" type="curve" smooth="yes"/>
      <point x="988.375" y="407.25"/>
      <point x="1015.125" y="776.375"/>
      <point x="1054.25" y="1061.125" type="curve"/>
      <point x="999.375" y="1076.25"/>
      <point x="936.375" y="1089.0"/>
      <point x="873.875" y="1090.25" type="curve"/>
      <point x="869.25" y="1071.0"/>
      <point x="858.125" y="994.5"/>
      <point x="856.875" y="963.25" type="curve"/>
      <point x="789.75" y="1026.375"/>
      <point x="662.25" y="1085.25"/>
      <point x="503.5" y="1085.25" type="curve" smooth="yes"/>
      <point x="204.5" y="1085.25"/>
      <point x="85.875" y="854.625"/>
      <point x="85.875" y="542.25" type="curve" smooth="yes"/>
      <point x="85.875" y="240.875"/>
      <point x="224.75" y="29.5"/>
      <point x="508.625" y="29.5" type="curve" smooth="yes"/>
      <point x="666.625" y="29.5"/>
      <point x="776.375" y="101.375"/>
      <point x="805.5" y="147.125" type="curve"/>
      <point x="805.5" y="-56.625"/>
      <point x="813.375" y="-288.125"/>
      <point x="831.5" y="-445.625" type="curve"/>
      <point x="882.25" y="-451.125"/>
      <point x="955.0" y="-456.375"/>
    </contour>
    <contour>
      <point x="530.75" y="225.0" type="curve" smooth="yes"/>
      <point x="357.875" y="225.0"/>
      <point x="275.125" y="378.75"/>
      <point x="275.125" y="562.375" type="curve" smooth="yes"/>
      <point x="275.125" y="759.125"/>
      <point x="351.25" y="902.0"/>
      <point x="551.5" y="902.0" type="curve" smooth="yes"/>
      <point x="692.25" y="902.0"/>
      <point x="814.125" y="822.25"/>
      <point x="840.125" y="802.375" type="curve"/>
      <point x="830.25" y="711.375"/>
      <point x="809.75" y="426.5"/>
      <point x="805.5" y="340.375" type="curve"/>
      <point x="770.875" y="300.5"/>
      <point x="663.5" y="225.0"/>
    </contour>
  </outline>
</glyph>
<glyph name="r" format="2">
  <advance width="853.0"/>
  <unicode hex="0072"/>
  <anchor x="427.0" y="0.0" name="bottom"/>
  <anchor x="427.0" y="1063.0" name="top"/>
  <outline>
    <contour>
      <point x="279.5" y="886.375" type="curve"/>
      <point x="275.125" y="930.75"/>
      <point x="251.625" y="1017.25"/>
      <point x="235.0" y="1061.5" type="curve"/>
      <point x="213.125" y="1060.125"/>
      <point x="115.125" y="1041.125"/>
      <point x="62.125" y="1024.625" type="curve"/>
      <point x="135.875" y="723.25"/>
      <point x="170.375" y="308.875"/>
      <point x="170.375" y="-1.75" type="curve"/>
      <point x="239.25" y="-3.625"/>
      <point x="331.375" y="-2.75"/>
      <point x="388.5" y="3.25" type="curve"/>
      <point x="388.5" y="119.75"/>
      <point x="348.75" y="518.5"/>
      <point x="312.375" y="706.125" type="curve"/>
      <point x="375.875" y="802.25"/>
      <point x="500.25" y="870.75"/>
      <point x="619.125" y="870.75" type="curve" smooth="yes"/>
      <point x="692.0" y="870.75"/>
      <point x="741.125" y="851.5"/>
      <point x="772.875" y="838.0" type="curve"/>
      <point x="813.0" y="1039.0" type="line"/>
      <point x="777.125" y="1058.875"/>
      <point x="705.75" y="1071.125"/>
      <point x="643.25" y="1071.125" type="curve" smooth="yes"/>
      <point x="495.875" y="1071.125"/>
      <point x="339.5" y="986.25"/>
    </contour>
  </outline>
</glyph>
<glyph name="s" format="2">
  <advance width="992.375"/>
  <unicode hex="0073"/>
  <anchor x="500.25" y="-63.75" name="bottom"/>
  <anchor x="512.75" y="1104.625" name="top"/>
  <outline>
    <contour>
      <point x="499.0" y="-81.375" type="curve" smooth="yes"/>
      <point x="743.0" y="-81.375"/>
      <point x="938.125" y="36.5"/>
      <point x="938.125" y="265.625" type="curve" smooth="yes"/>
      <point x="938.125" y="460.375"/>
      <point x="773.25" y="564.5"/>
      <point x="555.125" y="638.75" type="curve" smooth="yes"/>
      <point x="419.0" y="686.875"/>
      <point x="316.25" y="738.75"/>
      <point x="316.25" y="827.25" type="curve" smooth="yes"/>
      <point x="316.25" y="926.5"/>
      <point x="426.125" y="959.625"/>
      <point x="533.75" y="959.625" type="curve" smooth="yes"/>
      <point x="641.75" y="959.625"/>
      <point x="737.625" y="911.75"/>
      <point x="801.25" y="869.875" type="curve"/>
      <point x="836.5" y="914.125"/>
      <point x="872.875" y="986.375"/>
      <point x="883.375" y="1020.625" type="curve"/>
      <point x="812.875" y="1072.25"/>
      <point x="674.75" y="1118.875"/>
      <point x="520.25" y="1118.875" type="curve" smooth="yes"/>
      <point x="312.0" y="1118.875"/>
      <point x="127.5" y="1019.75"/>
      <point x="127.5" y="829.375" type="curve" smooth="yes"/>
      <point x="127.5" y="640.25"/>
      <point x="277.875" y="566.375"/>
      <point x="464.5" y="497.875" type="curve" smooth="yes"/>
      <point x="619.625" y="442.125"/>
      <point x="746.375" y="375.375"/>
      <point x="746.375" y="256.0" type="curve" smooth="yes"/>
      <point x="746.375" y="151.5"/>
      <point x="641.0" y="90.625"/>
      <point x="510.0" y="90.625" type="curve" smooth="yes"/>
      <point x="372.125" y="90.625"/>
      <point x="225.25" y="185.625"/>
      <point x="139.875" y="283.125" type="curve"/>
      <point x="104.625" y="251.25"/>
      <point x="43.375" y="148.5"/>
      <point x="25.625" y="110.625" type="curve"/>
      <point x="115.5" y="5.25"/>
      <point x="313.125" y="-81.375"/>
    </contour>
  </outline>
</glyph>
<glyph name="t" format="2">
  <advance width="964.0"/>
  <unicode hex="0074"/>
  <anchor x="589.75" y="-19.875" name="bottom"/>
  <anchor x="459.5" y="532.0" name="center"/>
  <anchor x="396.5" y="1427.25" name="top"/>
  <anchor x="566.0" y="1262.75" name="topright"/>
  <outline>
    <contour>
      <point x="862.125" y="185.875" type="curve"/>
      <point x="847.75" y="199.125"/>
      <point x="761.625" y="271.875"/>
      <point x="739.25" y="298.0" type="curve"/>
      <point x="724.0" y="244.875"/>
      <point x="692.625" y="134.0"/>
      <point x="609.0" y="134.0" type="curve" smooth="yes"/>
      <point x="484.875" y="134.0"/>
      <point x="474.625" y="258.875"/>
      <point x="474.625" y="384.25" type="curve" smooth="yes"/>
      <point x="474.625" y="501.875"/>
      <point x="486.5" y="831.125"/>
      <point x="491.125" y="917.625" type="curve"/>
      <point x="536.875" y="921.25"/>
      <point x="610.125" y="925.0"/>
      <point x="664.5" y="926.125" type="curve" smooth="yes"/>
      <point x="741.125" y="927.625"/>
      <point x="835.0" y="926.375"/>
      <point x="848.625" y="925.125" type="curve"/>
      <point x="848.625" y="967.0"/>
      <point x="846.625" y="1043.125"/>
      <point x="841.25" y="1080.125" type="curve"/>
      <point x="825.625" y="1081.375"/>
      <point x="732.625" y="1083.875"/>
      <point x="639.0" y="1082.0" type="curve" smooth="yes"/>
      <point x="603.125" y="1081.25"/>
      <point x="534.125" y="1077.875"/>
      <point x="493.75" y="1075.875" type="curve"/>
      <point x="493.875" y="1119.25"/>
      <point x="494.125" y="1183.125"/>
      <point x="494.125" y="1223.875" type="curve" smooth="yes"/>
      <point x="494.125" y="1330.25"/>
      <point x="489.5" y="1411.625"/>
      <point x="487.375" y="1432.125" type="curve"/>
      <point x="298.5" y="1421.375" type="line"/>
      <point x="302.125" y="1384.5"/>
      <point x="306.75" y="1326.75"/>
      <point x="307.5" y="1269.875" type="curve" smooth="yes"/>
      <point x="308.25" y="1202.0"/>
      <point x="307.875" y="1117.25"/>
      <point x="307.125" y="1064.5" type="curve"/>
      <point x="210.125" y="1058.625"/>
      <point x="103.75" y="1044.5"/>
      <point x="29.125" y="1033.625" type="curve"/>
      <point x="29.125" y="1014.125"/>
      <point x="32.875" y="926.125"/>
      <point x="44.5" y="863.375" type="curve"/>
      <point x="71.25" y="870.125"/>
      <point x="175.5" y="888.75"/>
      <point x="306.25" y="901.5" type="curve"/>
      <point x="301.875" y="819.5"/>
      <point x="288.875" y="477.25"/>
      <point x="288.875" y="311.5" type="curve" smooth="yes"/>
      <point x="288.875" y="125.0"/>
      <point x="362.625" y="-40.5"/>
      <point x="587.625" y="-40.5" type="curve" smooth="yes"/>
      <point x="762.0" y="-40.5"/>
      <point x="831.25" y="90.0"/>
    </contour>
  </outline>
</glyph>
<glyph name="u" format="2">
  <advance width="1178.0"/>
  <unicode hex="0075"/>
  <anchor x="581.5" y="0.0" name="bottom"/>
  <anchor x="772.25" y="0.0" name="ogonek"/>
  <anchor x="581.5" y="1063.0" name="top"/>
  <anchor x="972.375" y="925.75" name="topright"/>
  <outline>
    <contour>
      <point x="794.25" y="999.625" type="curve"/>
      <point x="816.75" y="870.75"/>
      <point x="829.375" y="738.125"/>
      <point x="829.375" y="618.5" type="curve" smooth="yes"/>
      <point x="829.375" y="307.75"/>
      <point x="741.125" y="132.125"/>
      <point x="573.75" y="132.125" type="curve" smooth="yes"/>
      <point x="394.75" y="132.125"/>
      <point x="305.75" y="324.625"/>
      <point x="305.75" y="678.375" type="curve" smooth="yes"/>
      <point x="305.75" y="787.625"/>
      <point x="313.75" y="906.125"/>
      <point x="327.625" y="1025.625" type="curve"/>
      <point x="300.875" y="1033.375"/>
      <point x="256.875" y="1038.625"/>
      <point x="216.0" y="1040.5" type="curve" smooth="yes"/>
      <point x="185.5" y="1042.375"/>
      <point x="144.0" y="1042.75"/>
      <point x="121.25" y="1041.25" type="curve"/>
      <point x="111.5" y="921.75"/>
      <point x="102.25" y="795.5"/>
      <point x="102.25" y="675.125" type="curve" smooth="yes"/>
      <point x="102.25" y="277.625"/>
      <point x="190.125" y="-49.625"/>
      <point x="572.0" y="-49.625" type="curve" smooth="yes"/>
      <point x="921.25" y="-49.625"/>
      <point x="1030.625" y="249.25"/>
      <point x="1030.625" y="606.625" type="curve" smooth="yes"/>
      <point x="1030.625" y="737.0"/>
      <point x="1014.875" y="874.375"/>
      <point x="993.125" y="1004.25" type="curve"/>
      <point x="970.125" y="1007.875"/>
      <point x="926.75" y="1010.125"/>
      <point x="894.5" y="1010.125" type="curve" smooth="yes"/>
      <point x="856.75" y="1010.125"/>
      <point x="813.75" y="1005.5"/>
    </contour>
  </outline>
</glyph>
<glyph name="v" format="2">
  <advance width="1007.0"/>
  <unicode hex="0076"/>
  <anchor x="504.0" y="0.0" name="bottom"/>
  <anchor x="504.0" y="1063.0" name="top"/>
  <outline>
    <contour>
      <point x="769.5" y="1091.0" type="curve"/>
      <point x="716.375" y="846.75"/>
      <point x="580.75" y="441.625"/>
      <point x="497.5" y="232.25" type="curve"/>
      <point x="423.25" y="407.875"/>
      <point x="252.75" y="885.0"/>
      <point x="201.75" y="1092.0" type="curve"/>
      <point x="155.625" y="1079.5"/>
      <point x="60.875" y="1056.375"/>
      <point x="23.625" y="1047.0" type="curve"/>
      <point x="120.5" y="725.75"/>
      <point x="260.5" y="307.25"/>
      <point x="411.5" y="-5.875" type="curve"/>
      <point x="433.125" y="-9.0"/>
      <point x="465.125" y="-11.875"/>
      <point x="497.75" y="-11.875" type="curve" smooth="yes"/>
      <point x="531.375" y="-11.875"/>
      <point x="565.0" y="-9.75"/>
      <point x="586.375" y="-5.875" type="curve"/>
      <point x="704.125" y="262.0"/>
      <point x="900.875" y="816.5"/>
      <point x="957.75" y="1040.625" type="curve"/>
      <point x="945.125" y="1046.375"/>
      <point x="860.75" y="1074.125"/>
    </contour>
  </outline>
</glyph>
<glyph name="w" format="2">
  <advance width="1520.0"/>
  <unicode hex="0077"/>
  <anchor x="760.0" y="0.0" name="bottom"/>
  <anchor x="760.0" y="1063.0" name="top"/>
  <outline>
    <contour>
      <point x="427.125" y="7.0" type="curve" smooth="yes"/>
      <point x="585.625" y="7.0"/>
      <point x="690.875" y="140.625"/>
      <point x="724.25" y="311.125" type="curve"/>
      <point x="751.375" y="142.125"/>
      <point x="818.25" y="14.375"/>
      <point x="993.25" y="14.375" type="curve" smooth="yes"/>
      <point x="1283.25" y="14.375"/>
      <point x="1377.5" y="409.25"/>
      <point x="1377.5" y="790.0" type="curve" smooth="yes"/>
      <point x="1377.5" y="859.125"/>
      <point x="1372.875" y="965.25"/>
      <point x="1367.75" y="1036.75" type="curve"/>
      <point x="1343.125" y="1039.125"/>
      <point x="1300.125" y="1041.625"/>
      <point x="1271.25" y="1041.625" type="curve" smooth="yes"/>
      <point x="1243.75" y="1041.625"/>
      <point x="1216.625" y="1041.625"/>
      <point x="1188.5" y="1041.0" type="curve"/>
      <point x="1191.25" y="973.0"/>
      <point x="1193.125" y="870.75"/>
      <point x="1193.125" y="809.375" type="curve" smooth="yes"/>
      <point x="1193.125" y="479.375"/>
      <point x="1141.125" y="179.875"/>
      <point x="986.875" y="179.875" type="curve" smooth="yes"/>
      <point x="828.625" y="179.875"/>
      <point x="817.125" y="460.875"/>
      <point x="817.125" y="843.125" type="curve" smooth="yes"/>
      <point x="817.125" y="1036.0" type="line"/>
      <point x="776.5" y="1039.0"/>
      <point x="680.5" y="1040.375"/>
      <point x="639.875" y="1040.375" type="curve"/>
      <point x="642.625" y="967.5"/>
      <point x="644.25" y="866.875"/>
      <point x="644.25" y="797.5" type="curve" smooth="yes"/>
      <point x="644.25" y="463.125"/>
      <point x="588.125" y="197.375"/>
      <point x="446.875" y="197.375" type="curve" smooth="yes"/>
      <point x="327.75" y="197.375"/>
      <point x="291.0" y="369.625"/>
      <point x="291.0" y="600.25" type="curve" smooth="yes"/>
      <point x="291.0" y="736.75"/>
      <point x="300.875" y="894.625"/>
      <point x="317.875" y="1051.5" type="curve"/>
      <point x="264.125" y="1055.75"/>
      <point x="180.375" y="1058.75"/>
      <point x="128.75" y="1058.75" type="curve"/>
      <point x="114.5" y="914.5"/>
      <point x="101.875" y="760.25"/>
      <point x="101.875" y="617.25" type="curve" smooth="yes"/>
      <point x="101.875" y="286.625"/>
      <point x="167.625" y="7.0"/>
    </contour>
  </outline>
</glyph>
<glyph name="x" format="2">
  <advance width="1142.0"/>
  <unicode hex="0078"/>
  <anchor x="583.5" y="0.0" name="bottom"/>
  <anchor x="583.5" y="1063.0" name="top"/>
  <outline>
    <contour>
      <point x="167.25" y="-28.5" type="curve"/>
      <point x="241.625" y="42.0"/>
      <point x="439.25" y="286.125"/>
      <point x="568.75" y="460.25" type="curve"/>
      <point x="662.125" y="351.5"/>
      <point x="815.25" y="89.75"/>
      <point x="879.75" y="-17.25" type="curve"/>
      <point x="931.25" y="9.625"/>
      <point x="999.25" y="50.25"/>
      <point x="1036.25" y="82.0" type="curve"/>
      <point x="945.375" y="225.5"/>
      <point x="796.5" y="477.625"/>
      <point x="690.5" y="600.375" type="curve"/>
      <point x="812.75" y="737.75"/>
      <point x="959.75" y="955.25"/>
      <point x="1024.25" y="1073.125" type="curve"/>
      <point x="985.25" y="1097.75"/>
      <point x="905.375" y="1135.375"/>
      <point x="853.75" y="1156.5" type="curve"/>
      <point x="778.25" y="1018.375"/>
      <point x="682.625" y="862.75"/>
      <point x="579.75" y="726.875" type="curve"/>
      <point x="507.625" y="828.375"/>
      <point x="263.25" y="1070.25"/>
      <point x="172.75" y="1152.125" type="curve"/>
      <point x="132.75" y="1128.75"/>
      <point x="48.875" y="1061.875"/>
      <point x="30.625" y="1038.5" type="curve"/>
      <point x="129.125" y="950.75"/>
      <point x="314.75" y="784.375"/>
      <point x="470.5" y="599.875" type="curve"/>
      <point x="353.25" y="460.0"/>
      <point x="81.625" y="151.0"/>
      <point x="31.875" y="100.75" type="curve"/>
      <point x="58.25" y="63.625"/>
      <point x="123.375" y="5.375"/>
    </contour>
  </outline>
</glyph>
<glyph name="y" format="2">
  <advance width="1079.0"/>
  <unicode hex="0079"/>
  <anchor x="540.0" y="0.0" name="bottom"/>
  <anchor x="540.0" y="1063.0" name="top"/>
  <outline>
    <contour>
      <point x="412.875" y="-527.875" type="curve" smooth="yes"/>
      <point x="733.25" y="-527.875"/>
      <point x="889.5" y="-281.875"/>
      <point x="907.5" y="56.0" type="curve" smooth="yes"/>
      <point x="920.375" y="293.125"/>
      <point x="931.0" y="557.25"/>
      <point x="931.0" y="749.375" type="curve" smooth="yes"/>
      <point x="931.0" y="825.25"/>
      <point x="929.625" y="892.75"/>
      <point x="926.875" y="948.875" type="curve"/>
      <point x="892.25" y="957.125"/>
      <point x="854.875" y="960.75"/>
      <point x="816.0" y="960.75" type="curve" smooth="yes"/>
      <point x="793.125" y="960.75"/>
      <point x="769.875" y="959.375"/>
      <point x="749.375" y="957.0" type="curve"/>
      <point x="750.5" y="935.5"/>
      <point x="746.375" y="724.875"/>
      <point x="735.75" y="598.5" type="curve" smooth="yes"/>
      <point x="718.25" y="356.25"/>
      <point x="628.25" y="223.5"/>
      <point x="478.625" y="223.5" type="curve" smooth="yes"/>
      <point x="301.375" y="223.5"/>
      <point x="277.125" y="466.875"/>
      <point x="277.125" y="679.875" type="curve" smooth="yes"/>
      <point x="277.125" y="815.875"/>
      <point x="291.125" y="953.375"/>
      <point x="295.375" y="978.25" type="curve"/>
      <point x="279.625" y="982.125"/>
      <point x="233.125" y="984.375"/>
      <point x="189.5" y="984.375" type="curve" smooth="yes"/>
      <point x="153.0" y="984.375"/>
      <point x="116.25" y="982.625"/>
      <point x="99.25" y="979.125" type="curve"/>
      <point x="93.25" y="872.625"/>
      <point x="89.25" y="772.625"/>
      <point x="89.25" y="679.125" type="curve" smooth="yes"/>
      <point x="89.25" y="313.0"/>
      <point x="163.0" y="40.375"/>
      <point x="449.125" y="40.375" type="curve" smooth="yes"/>
      <point x="622.0" y="40.375"/>
      <point x="712.75" y="133.5"/>
      <point x="746.0" y="208.875" type="curve"/>
      <point x="743.75" y="-74.0"/>
      <point x="659.375" y="-349.0"/>
      <point x="420.5" y="-349.0" type="curve" smooth="yes"/>
      <point x="283.75" y="-349.0"/>
      <point x="139.625" y="-271.625"/>
      <point x="85.625" y="-232.25" type="curve"/>
      <point x="59.625" y="-266.125"/>
      <point x="7.875" y="-358.875"/>
      <point x="-6.125" y="-397.375" type="curve"/>
      <point x="75.625" y="-454.375"/>
      <point x="226.625" y="-527.875"/>
    </contour>
  </outline>
</glyph>
<glyph name="z" format="2">
  <advance width="1074.0"/>
  <unicode hex="007A"/>
  <anchor x="537.0" y="0.0" name="bottom"/>
  <anchor x="537.0" y="532.0" name="center"/>
  <anchor x="537.0" y="1063.0" name="top"/>
  <outline>
    <contour>
      <point x="970.25" y="5.125" type="curve"/>
      <point x="976.625" y="29.875"/>
      <point x="981.75" y="165.625"/>
      <point x="981.75" y="190.25" type="curve"/>
      <point x="901.75" y="181.375"/>
      <point x="728.125" y="173.75"/>
      <point x="577.625" y="173.75" type="curve" smooth="yes"/>
      <point x="461.625" y="173.75"/>
      <point x="338.25" y="176.25"/>
      <point x="302.875" y="182.25" type="curve"/>
      <point x="385.25" y="291.75"/>
      <point x="832.75" y="773.625"/>
      <point x="966.0" y="894.125" type="curve"/>
      <point x="966.0" y="918.0"/>
      <point x="960.125" y="1026.75"/>
      <point x="957.0" y="1039.375" type="curve"/>
      <point x="836.625" y="1043.125"/>
      <point x="696.125" y="1044.375"/>
      <point x="574.25" y="1044.375" type="curve" smooth="yes"/>
      <point x="357.125" y="1044.375"/>
      <point x="151.75" y="1038.75"/>
      <point x="88.0" y="1037.5" type="curve"/>
      <point x="80.125" y="876.5" type="line"/>
      <point x="97.125" y="879.875"/>
      <point x="281.5" y="884.875"/>
      <point x="427.625" y="884.875" type="curve" smooth="yes"/>
      <point x="540.75" y="884.875"/>
      <point x="679.125" y="884.5"/>
      <point x="715.75" y="882.25" type="curve"/>
      <point x="619.625" y="790.0"/>
      <point x="162.375" y="302.875"/>
      <point x="66.0" y="176.875" type="curve"/>
      <point x="57.125" y="12.0" type="line"/>
      <point x="182.75" y="-1.25"/>
      <point x="361.375" y="-6.0"/>
      <point x="537.875" y="-6.0" type="curve" smooth="yes"/>
      <point x="697.875" y="-6.0"/>
      <point x="859.25" y="-0.625"/>
    </contour>
  </outline>
</glyph>
<glyph name="braceleft" format="2">
  <advance width="665.0"/>
  <unicode hex="007B"/>
  <outline>
    <contour>
      <point x="518.875" y="-396.875" type="curve"/>
      <point x="546.75" y="-354.25"/>
      <point x="565.375" y="-308.625"/>
      <point x="582.625" y="-262.5" type="curve"/>
      <point x="462.875" y="-238.25"/>
      <point x="398.75" y="-104.75"/>
      <point x="398.75" y="30.875" type="curve" smooth="yes"/>
      <point x="398.75" y="82.125"/>
      <point x="406.375" y="121.75"/>
      <point x="417.0" y="163.0" type="curve" smooth="yes"/>
      <point x="428.25" y="206.875"/>
      <point x="437.125" y="251.125"/>
      <point x="437.125" y="311.875" type="curve" smooth="yes"/>
      <point x="437.125" y="513.5"/>
      <point x="278.375" y="586.5"/>
      <point x="139.125" y="599.875" type="curve"/>
      <point x="137.25" y="583.625" type="line"/>
      <point x="277.25" y="593.125"/>
      <point x="388.25" y="717.25"/>
      <point x="388.25" y="879.125" type="curve" smooth="yes"/>
      <point x="388.25" y="935.375"/>
      <point x="379.375" y="973.75"/>
      <point x="368.75" y="1012.125" type="curve" smooth="yes"/>
      <point x="358.75" y="1048.25"/>
      <point x="351.125" y="1084.75"/>
      <point x="351.125" y="1134.25" type="curve" smooth="yes"/>
      <point x="351.125" y="1268.0"/>
      <point x="425.0" y="1402.875"/>
      <point x="581.625" y="1423.25" type="curve"/>
      <point x="579.75" y="1474.375"/>
      <point x="550.375" y="1540.25"/>
      <point x="527.5" y="1560.75" type="curve"/>
      <point x="285.0" y="1543.125"/>
      <point x="170.5" y="1337.875"/>
      <point x="170.5" y="1139.75" type="curve" smooth="yes"/>
      <point x="170.5" y="1079.625"/>
      <point x="179.75" y="1040.125"/>
      <point x="192.0" y="1002.0" type="curve" smooth="yes"/>
      <point x="204.25" y="963.25"/>
      <point x="214.5" y="925.5"/>
      <point x="214.5" y="867.875" type="curve" smooth="yes"/>
      <point x="214.5" y="761.625"/>
      <point x="155.75" y="683.375"/>
      <point x="43.375" y="664.125" type="curve"/>
      <point x="39.5" y="647.375"/>
      <point x="37.75" y="618.25"/>
      <point x="37.75" y="592.0" type="curve" smooth="yes"/>
      <point x="37.75" y="564.0"/>
      <point x="39.875" y="531.625"/>
      <point x="45.375" y="512.875" type="curve"/>
      <point x="180.875" y="482.625"/>
      <point x="266.625" y="409.375"/>
      <point x="266.625" y="290.125" type="curve" smooth="yes"/>
      <point x="266.625" y="247.0"/>
      <point x="260.0" y="211.625"/>
      <point x="249.75" y="175.625" type="curve" smooth="yes"/>
      <point x="237.75" y="132.25"/>
      <point x="227.625" y="85.875"/>
      <point x="227.625" y="25.375" type="curve" smooth="yes"/>
      <point x="227.625" y="-180.375"/>
      <point x="336.875" y="-374.875"/>
    </contour>
  </outline>
</glyph>
<glyph name="bar" format="2">
  <advance width="487.0"/>
  <unicode hex="007C"/>
  <outline>
    <contour>
      <point x="301.875" y="-557.75" type="curve"/>
      <point x="318.375" y="-448.125"/>
      <point x="324.5" y="-202.625"/>
      <point x="324.5" y="88.75" type="curve" smooth="yes"/>
      <point x="324.5" y="553.25"/>
      <point x="312.5" y="1173.5"/>
      <point x="295.75" y="1533.75" type="curve"/>
      <point x="244.625" y="1533.75"/>
      <point x="158.125" y="1529.75"/>
      <point x="129.375" y="1526.75" type="curve"/>
      <point x="116.5" y="1151.125"/>
      <point x="114.0" y="728.125"/>
      <point x="114.0" y="403.5" type="curve" smooth="yes"/>
      <point x="114.0" y="-6.375"/>
      <point x="120.875" y="-331.75"/>
      <point x="129.875" y="-545.625" type="curve"/>
      <point x="179.0" y="-555.125"/>
      <point x="256.5" y="-557.75"/>
    </contour>
  </outline>
</glyph>
<glyph name="braceright" format="2">
  <advance width="614.0"/>
  <unicode hex="007D"/>
  <outline>
    <contour>
      <point x="111.0" y="-400.75" type="curve"/>
      <point x="315.125" y="-375.375"/>
      <point x="431.875" y="-197.375"/>
      <point x="431.875" y="-7.0" type="curve" smooth="yes"/>
      <point x="431.875" y="53.5"/>
      <point x="421.625" y="99.0"/>
      <point x="408.625" y="144.25" type="curve" smooth="yes"/>
      <point x="395.625" y="189.25"/>
      <point x="385.25" y="233.75"/>
      <point x="385.25" y="293.125" type="curve" smooth="yes"/>
      <point x="385.25" y="410.125"/>
      <point x="441.375" y="505.375"/>
      <point x="550.375" y="521.625" type="curve"/>
      <point x="559.0" y="537.625"/>
      <point x="564.875" y="568.5"/>
      <point x="564.875" y="596.125" type="curve" smooth="yes"/>
      <point x="564.875" y="625.375"/>
      <point x="559.25" y="659.5"/>
      <point x="549.875" y="677.625" type="curve"/>
      <point x="427.875" y="692.0"/>
      <point x="335.375" y="745.375"/>
      <point x="335.375" y="869.125" type="curve" smooth="yes"/>
      <point x="335.375" y="913.125"/>
      <point x="345.375" y="965.875"/>
      <point x="360.125" y="1015.0" type="curve" smooth="yes"/>
      <point x="376.0" y="1069.0"/>
      <point x="388.25" y="1121.0"/>
      <point x="388.25" y="1178.75" type="curve" smooth="yes"/>
      <point x="388.25" y="1367.125"/>
      <point x="285.375" y="1556.0"/>
      <point x="101.375" y="1581.125" type="curve"/>
      <point x="76.375" y="1544.125"/>
      <point x="42.875" y="1490.75"/>
      <point x="23.875" y="1447.875" type="curve"/>
      <point x="160.75" y="1420.875"/>
      <point x="213.375" y="1289.5"/>
      <point x="213.375" y="1152.375" type="curve" smooth="yes"/>
      <point x="213.375" y="1087.625"/>
      <point x="202.625" y="1041.125"/>
      <point x="190.875" y="998.75" type="curve" smooth="yes"/>
      <point x="179.125" y="957.0"/>
      <point x="169.625" y="919.625"/>
      <point x="169.625" y="858.0" type="curve" smooth="yes"/>
      <point x="169.625" y="659.75"/>
      <point x="345.875" y="587.125"/>
      <point x="465.75" y="578.375" type="curve"/>
      <point x="468.75" y="599.75" type="line"/>
      <point x="334.0" y="596.625"/>
      <point x="219.25" y="463.375"/>
      <point x="219.25" y="297.375" type="curve" smooth="yes"/>
      <point x="219.25" y="235.5"/>
      <point x="231.25" y="187.5"/>
      <point x="245.0" y="140.125" type="curve" smooth="yes"/>
      <point x="258.375" y="94.125"/>
      <point x="270.375" y="49.125"/>
      <point x="270.375" y="-8.375" type="curve" smooth="yes"/>
      <point x="270.375" y="-133.75"/>
      <point x="191.75" y="-232.625"/>
      <point x="56.125" y="-265.875" type="curve"/>
      <point x="64.0" y="-319.875"/>
      <point x="90.125" y="-375.375"/>
    </contour>
  </outline>
</glyph>
<glyph name="asciitilde" format="2">
  <advance width="1050.0"/>
  <unicode hex="007E"/>
  <outline>
    <contour>
      <point x="115.5" y="733.0" type="curve"/>
      <point x="223.75" y="650.625" type="line"/>
      <point x="248.375" y="710.875"/>
      <point x="300.875" y="786.0"/>
      <point x="381.0" y="786.0" type="curve" smooth="yes"/>
      <point x="424.5" y="786.0"/>
      <point x="463.125" y="749.75"/>
      <point x="504.375" y="709.125" type="curve" smooth="yes"/>
      <point x="554.875" y="658.75"/>
      <point x="612.75" y="602.875"/>
      <point x="694.0" y="602.875" type="curve" smooth="yes"/>
      <point x="829.875" y="602.875"/>
      <point x="907.0" y="735.75"/>
      <point x="922.125" y="793.625" type="curve"/>
      <point x="806.125" y="856.0" type="line"/>
      <point x="786.625" y="793.125"/>
      <point x="746.75" y="738.125"/>
      <point x="686.25" y="738.125" type="curve" smooth="yes"/>
      <point x="628.625" y="738.125"/>
      <point x="587.75" y="778.125"/>
      <point x="546.75" y="820.875" type="curve" smooth="yes"/>
      <point x="500.875" y="868.375"/>
      <point x="449.875" y="916.0"/>
      <point x="371.375" y="916.0" type="curve" smooth="yes"/>
      <point x="246.625" y="916.0"/>
      <point x="145.125" y="816.25"/>
    </contour>
  </outline>
</glyph>
<glyph name="exclamdown" format="2">
  <advance width="708.0"/>
  <unicode hex="00A1"/>
  <outline>
    <contour>
      <point x="234.125" y="677.0" type="curve"/>
      <point x="230.0" y="408.0"/>
      <point x="199.5" y="-222.375"/>
      <point x="177.125" y="-396.125" type="curve"/>
      <point x="401.5" y="-406.375" type="line"/>
      <point x="415.25" y="-180.75"/>
      <point x="414.125" y="349.75"/>
      <point x="404.0" y="668.125" type="curve"/>
      <point x="367.75" y="673.125"/>
      <point x="269.75" y="677.0"/>
    </contour>
    <contour>
      <point x="309.75" y="1092.625" type="curve" smooth="yes"/>
      <point x="219.75" y="1092.625"/>
      <point x="150.25" y="1032.0"/>
      <point x="150.25" y="939.875" type="curve" smooth="yes"/>
      <point x="150.25" y="855.25"/>
      <point x="222.625" y="794.125"/>
      <point x="312.5" y="794.125" type="curve" smooth="yes"/>
      <point x="398.125" y="794.125"/>
      <point x="477.0" y="847.0"/>
      <point x="477.0" y="938.0" type="curve" smooth="yes"/>
      <point x="477.0" y="1027.625"/>
      <point x="410.875" y="1092.625"/>
    </contour>
  </outline>
</glyph>
<glyph name="cent" format="2">
  <advance width="1026.0"/>
  <unicode hex="00A2"/>
  <anchor x="513.0" y="145.875" name="bottom"/>
  <anchor x="513.0" y="1208.875" name="top"/>
  <outline>
    <contour>
      <point x="586.5" y="1346.125" type="curve"/>
      <point x="559.5" y="1023.125"/>
      <point x="421.125" y="383.75"/>
      <point x="329.125" y="25.75" type="curve"/>
      <point x="366.375" y="3.625"/>
      <point x="419.5" y="-9.75"/>
      <point x="464.25" y="-14.125" type="curve"/>
      <point x="527.875" y="213.0"/>
      <point x="665.875" y="1019.5"/>
      <point x="689.875" y="1322.5" type="curve"/>
      <point x="671.0" y="1336.5"/>
      <point x="627.625" y="1346.125"/>
    </contour>
    <component base="c" yOffset="145.875"/>
  </outline>
</glyph>
<glyph name="sterling" format="2">
  <advance width="1140.0"/>
  <unicode hex="00A3"/>
  <outline>
    <contour>
      <point x="167.625" y="569.375" type="curve" smooth="yes"/>
      <point x="347.875" y="569.375"/>
      <point x="670.875" y="587.625"/>
      <point x="758.5" y="613.625" type="curve"/>
      <point x="758.5" y="649.0"/>
      <point x="751.875" y="738.875"/>
      <point x="746.375" y="760.0" type="curve"/>
      <point x="656.375" y="740.75"/>
      <point x="343.75" y="722.5"/>
      <point x="159.375" y="722.5" type="curve" smooth="yes"/>
      <point x="112.75" y="722.5"/>
      <point x="73.875" y="723.5"/>
      <point x="45.375" y="725.875" type="curve"/>
      <point x="41.625" y="575.375" type="line"/>
      <point x="65.0" y="571.375"/>
      <point x="109.875" y="569.375"/>
    </contour>
    <component base="sterlira"/>
  </outline>
</glyph>
<glyph name="currency" format="2">
  <advance width="974.0"/>
  <unicode hex="00A4"/>
  <outline>
    <contour>
      <point x="144.875" y="79.0" type="curve"/>
      <point x="209.75" y="144.5"/>
      <point x="331.25" y="286.375"/>
      <point x="370.5" y="335.625" type="curve"/>
      <point x="250.25" y="419.5" type="line"/>
      <point x="178.0" y="351.0"/>
      <point x="88.625" y="264.625"/>
      <point x="16.625" y="194.625" type="curve"/>
      <point x="42.625" y="167.5"/>
      <point x="115.5" y="103.125"/>
    </contour>
    <contour>
      <point x="801.0" y="105.75" type="curve"/>
      <point x="826.375" y="128.375"/>
      <point x="884.875" y="188.625"/>
      <point x="900.25" y="214.0" type="curve"/>
      <point x="849.125" y="262.0"/>
      <point x="764.0" y="336.375"/>
      <point x="697.625" y="393.625" type="curve"/>
      <point x="595.125" y="313.125" type="line"/>
      <point x="634.0" y="277.375"/>
      <point x="729.0" y="177.75"/>
    </contour>
    <contour>
      <point x="245.125" y="679.25" type="curve"/>
      <point x="344.0" y="779.0" type="line"/>
      <point x="284.375" y="855.625"/>
      <point x="209.25" y="941.125"/>
      <point x="149.625" y="996.125" type="curve"/>
      <point x="110.0" y="970.125"/>
      <point x="46.125" y="910.625"/>
      <point x="30.5" y="893.125" type="curve"/>
      <point x="95.0" y="823.125"/>
      <point x="168.125" y="745.875"/>
    </contour>
    <contour>
      <point x="697.5" y="684.875" type="line"/>
      <point x="763.875" y="737.75"/>
      <point x="856.625" y="821.625"/>
      <point x="924.875" y="891.625" type="curve"/>
      <point x="899.5" y="917.25"/>
      <point x="832.75" y="981.75"/>
      <point x="810.5" y="1007.75" type="curve"/>
      <point x="740.75" y="939.5"/>
      <point x="649.125" y="845.125"/>
      <point x="590.75" y="787.25" type="curve"/>
    </contour>
    <component base="degree" xOffset="106.0" yOffset="-656.0"/>
  </outline>
</glyph>
<glyph name="yen" format="2">
  <advance width="1065.0"/>
  <unicode hex="00A5"/>
  <anchor x="600.5" y="0.0" name="bottom"/>
  <anchor x="600.5" y="1291.0" name="top"/>
  <anchor x="87.5" y="1291.0" name="topleft"/>
  <outline>
    <contour>
      <point x="172.5" y="488.0" type="curve"/>
      <point x="281.5" y="490.625"/>
      <point x="874.875" y="499.625"/>
      <point x="968.875" y="499.625" type="curve"/>
      <point x="968.875" y="534.5"/>
      <point x="963.75" y="583.125"/>
      <point x="954.25" y="627.875" type="curve"/>
      <point x="874.875" y="637.875"/>
      <point x="754.625" y="642.25"/>
      <point x="622.0" y="642.25" type="curve" smooth="yes"/>
      <point x="450.75" y="642.25"/>
      <point x="333.75" y="637.25"/>
      <point x="191.25" y="626.875" type="curve"/>
      <point x="185.5" y="602.75"/>
      <point x="173.125" y="534.25"/>
    </contour>
    <contour>
      <point x="972.375" y="250.5" type="curve"/>
      <point x="974.25" y="291.0"/>
      <point x="968.375" y="345.75"/>
      <point x="965.375" y="377.25" type="curve"/>
      <point x="885.125" y="381.875"/>
      <point x="774.5" y="384.75"/>
      <point x="659.625" y="384.75" type="curve" smooth="yes"/>
      <point x="463.875" y="384.75"/>
      <point x="317.875" y="380.875"/>
      <point x="176.25" y="371.625" type="curve"/>
      <point x="167.375" y="332.625"/>
      <point x="160.5" y="291.875"/>
      <point x="160.5" y="251.75" type="curve"/>
      <point x="254.5" y="253.0"/>
      <point x="867.25" y="251.625"/>
    </contour>
    <component base="Y" xOffset="23.75"/>
  </outline>
</glyph>
<glyph name="brokenbar" format="2">
  <advance width="432.0"/>
  <unicode hex="00A6"/>
  <outline>
    <contour>
      <point x="106.0" y="272.125" type="curve"/>
      <point x="106.0" y="110.25"/>
      <point x="123.125" y="-350.875"/>
      <point x="131.75" y="-467.375" type="curve"/>
      <point x="172.625" y="-467.375"/>
      <point x="261.0" y="-462.5"/>
      <point x="287.5" y="-453.375" type="curve"/>
      <point x="282.625" y="-344.625"/>
      <point x="278.0" y="174.0"/>
      <point x="278.0" y="277.0" type="curve"/>
      <point x="228.375" y="277.0"/>
      <point x="157.125" y="275.875"/>
    </contour>
    <contour>
      <point x="112.25" y="719.125" type="curve"/>
      <point x="131.625" y="717.625"/>
      <point x="218.5" y="715.0"/>
      <point x="286.75" y="716.875" type="curve"/>
      <point x="285.25" y="852.0"/>
      <point x="289.875" y="1329.0"/>
      <point x="296.125" y="1485.25" type="curve"/>
      <point x="266.375" y="1498.625"/>
      <point x="190.625" y="1502.0"/>
      <point x="144.875" y="1502.0" type="curve"/>
      <point x="133.0" y="1363.5"/>
      <point x="112.25" y="988.0"/>
    </contour>
  </outline>
</glyph>
<glyph name="section" format="2">
  <advance width="1000.0"/>
  <unicode hex="00A7"/>
  <outline>
    <contour>
      <point x="498.5" y="731.125" type="curve"/>
      <point x="360.25" y="828.25" type="line"/>
      <point x="219.25" y="794.125"/>
      <point x="106.875" y="703.75"/>
      <point x="106.875" y="560.5" type="curve" smooth="yes"/>
      <point x="106.875" y="373.875"/>
      <point x="266.125" y="305.25"/>
      <point x="456.125" y="240.25" type="curve" smooth="yes"/>
      <point x="628.5" y="181.625"/>
      <point x="740.875" y="120.125"/>
      <point x="740.875" y="13.25" type="curve" smooth="yes"/>
      <point x="740.875" y="-107.5"/>
      <point x="637.625" y="-182.0"/>
      <point x="504.25" y="-182.0" type="curve" smooth="yes"/>
      <point x="364.5" y="-182.0"/>
      <point x="202.875" y="-100.75"/>
      <point x="111.5" y="-7.0" type="curve"/>
      <point x="78.625" y="-34.75"/>
      <point x="19.875" y="-118.5"/>
      <point x="-3.125" y="-160.75" type="curve"/>
      <point x="99.375" y="-266.125"/>
      <point x="301.375" y="-350.25"/>
      <point x="493.25" y="-350.25" type="curve" smooth="yes"/>
      <point x="736.25" y="-350.25"/>
      <point x="921.75" y="-212.375"/>
      <point x="921.75" y="18.0" type="curve" smooth="yes"/>
      <point x="921.75" y="200.25"/>
      <point x="772.75" y="298.125"/>
      <point x="552.0" y="372.375" type="curve" smooth="yes"/>
      <point x="413.25" y="420.5"/>
      <point x="291.875" y="474.75"/>
      <point x="291.875" y="567.0" type="curve" smooth="yes"/>
      <point x="291.875" y="673.125"/>
      <point x="403.875" y="724.5"/>
    </contour>
    <contour>
      <point x="612.5" y="323.375" type="curve"/>
      <point x="717.75" y="202.625" type="line"/>
      <point x="848.125" y="260.0"/>
      <point x="944.25" y="372.875"/>
      <point x="944.25" y="525.875" type="curve" smooth="yes"/>
      <point x="944.25" y="708.125"/>
      <point x="772.75" y="799.75"/>
      <point x="552.0" y="874.0" type="curve" smooth="yes"/>
      <point x="413.25" y="922.125"/>
      <point x="308.125" y="977.75"/>
      <point x="308.125" y="1066.25" type="curve" smooth="yes"/>
      <point x="308.125" y="1165.5"/>
      <point x="416.625" y="1198.625"/>
      <point x="525.0" y="1198.625" type="curve" smooth="yes"/>
      <point x="630.75" y="1198.625"/>
      <point x="740.125" y="1154.5"/>
      <point x="804.875" y="1112.625" type="curve"/>
      <point x="842.0" y="1157.25"/>
      <point x="875.375" y="1235.125"/>
      <point x="882.875" y="1259.625" type="curve"/>
      <point x="806.0" y="1311.25"/>
      <point x="667.875" y="1357.875"/>
      <point x="510.75" y="1357.875" type="curve" smooth="yes"/>
      <point x="308.875" y="1357.875"/>
      <point x="130.625" y="1258.75"/>
      <point x="130.625" y="1068.375" type="curve" smooth="yes"/>
      <point x="130.625" y="879.25"/>
      <point x="266.125" y="808.125"/>
      <point x="456.125" y="741.875" type="curve" smooth="yes"/>
      <point x="628.5" y="682.0"/>
      <point x="763.375" y="629.875"/>
      <point x="763.375" y="521.125" type="curve" smooth="yes"/>
      <point x="763.375" y="424.625"/>
      <point x="697.25" y="352.25"/>
    </contour>
  </outline>
</glyph>
<glyph name="copyright" format="2">
  <advance width="1745.0"/>
  <unicode hex="00A9"/>
  <outline>
    <contour>
      <point x="850.375" y="-68.0" type="curve" smooth="yes"/>
      <point x="1313.875" y="-68.0"/>
      <point x="1615.0" y="202.625"/>
      <point x="1615.0" y="628.875" type="curve" smooth="yes"/>
      <point x="1615.0" y="1091.75"/>
      <point x="1335.75" y="1350.0"/>
      <point x="879.25" y="1350.0" type="curve" smooth="yes"/>
      <point x="380.875" y="1350.0"/>
      <point x="64.875" y="1076.875"/>
      <point x="64.875" y="579.0" type="curve" smooth="yes"/>
      <point x="64.875" y="165.375"/>
      <point x="362.875" y="-68.0"/>
    </contour>
    <contour>
      <point x="838.25" y="85.125" type="curve" smooth="yes"/>
      <point x="511.875" y="85.125"/>
      <point x="260.5" y="258.375"/>
      <point x="260.5" y="610.25" type="curve" smooth="yes"/>
      <point x="260.5" y="964.75"/>
      <point x="510.25" y="1203.0"/>
      <point x="862.5" y="1203.0" type="curve" smooth="yes"/>
      <point x="1229.5" y="1203.0"/>
      <point x="1425.75" y="1003.375"/>
      <point x="1425.75" y="615.625" type="curve" smooth="yes"/>
      <point x="1425.75" y="280.875"/>
      <point x="1176.5" y="85.125"/>
    </contour>
    <contour>
      <point x="830.875" y="283.75" type="curve" smooth="yes"/>
      <point x="983.875" y="283.75"/>
      <point x="1143.875" y="357.75"/>
      <point x="1210.5" y="494.75" type="curve"/>
      <point x="1178.625" y="523.875"/>
      <point x="1126.625" y="561.125"/>
      <point x="1087.625" y="581.0" type="curve"/>
      <point x="1040.625" y="511.0"/>
      <point x="967.0" y="437.125"/>
      <point x="854.5" y="437.125" type="curve" smooth="yes"/>
      <point x="769.75" y="437.125"/>
      <point x="644.25" y="464.25"/>
      <point x="644.25" y="622.25" type="curve" smooth="yes"/>
      <point x="644.25" y="766.625"/>
      <point x="757.0" y="846.75"/>
      <point x="868.625" y="846.75" type="curve" smooth="yes"/>
      <point x="959.375" y="846.75"/>
      <point x="1032.375" y="815.625"/>
      <point x="1054.25" y="784.75" type="curve"/>
      <point x="1079.375" y="810.625"/>
      <point x="1116.625" y="855.625"/>
      <point x="1146.875" y="900.75" type="curve"/>
      <point x="1095.5" y="959.75"/>
      <point x="1013.5" y="988.75"/>
      <point x="900.875" y="988.75" type="curve" smooth="yes"/>
      <point x="662.5" y="988.75"/>
      <point x="492.5" y="827.125"/>
      <point x="492.5" y="607.125" type="curve" smooth="yes"/>
      <point x="492.5" y="407.0"/>
      <point x="620.5" y="283.75"/>
    </contour>
  </outline>
</glyph>
<glyph name="ordfeminine" format="2">
  <advance width="750.0"/>
  <unicode hex="00AA"/>
  <outline>
    <contour>
      <point x="541.5" y="715.75" type="curve"/>
      <point x="561.5" y="712.25"/>
      <point x="605.875" y="710.25"/>
      <point x="636.875" y="710.25" type="curve" smooth="yes"/>
      <point x="649.0" y="710.25"/>
      <point x="675.0" y="710.875"/>
      <point x="679.5" y="711.875" type="curve"/>
      <point x="691.5" y="801.375"/>
      <point x="701.875" y="905.625"/>
      <point x="701.875" y="1004.0" type="curve" smooth="yes"/>
      <point x="701.875" y="1261.625"/>
      <point x="617.75" y="1422.375"/>
      <point x="357.0" y="1422.375" type="curve" smooth="yes"/>
      <point x="213.5" y="1422.375"/>
      <point x="103.5" y="1370.125"/>
      <point x="39.625" y="1300.75" type="curve"/>
      <point x="129.5" y="1206.625" type="line"/>
      <point x="167.5" y="1254.625"/>
      <point x="249.25" y="1295.125"/>
      <point x="348.125" y="1295.125" type="curve" smooth="yes"/>
      <point x="443.875" y="1295.125"/>
      <point x="507.0" y="1258.5"/>
      <point x="537.5" y="1196.5" type="curve" smooth="yes"/>
      <point x="549.5" y="1175.5"/>
      <point x="557.75" y="1149.0"/>
      <point x="560.25" y="1122.75" type="curve"/>
      <point x="542.0" y="1134.125"/>
      <point x="417.375" y="1151.125"/>
      <point x="359.125" y="1151.125" type="curve" smooth="yes"/>
      <point x="188.625" y="1151.125"/>
      <point x="36.0" y="1081.375"/>
      <point x="36.0" y="928.875" type="curve" smooth="yes"/>
      <point x="36.0" y="781.875"/>
      <point x="156.875" y="720.875"/>
      <point x="321.375" y="720.875" type="curve" smooth="yes"/>
      <point x="408.125" y="720.875"/>
      <point x="517.75" y="761.625"/>
      <point x="554.375" y="799.375" type="curve"/>
      <point x="551.5" y="777.875"/>
      <point x="543.5" y="728.25"/>
    </contour>
    <contour>
      <point x="361.875" y="836.625" type="curve" smooth="yes"/>
      <point x="258.625" y="836.625"/>
      <point x="188.875" y="860.125"/>
      <point x="188.875" y="942.75" type="curve" smooth="yes"/>
      <point x="188.875" y="1011.875"/>
      <point x="280.75" y="1050.125"/>
      <point x="374.0" y="1050.125" type="curve" smooth="yes"/>
      <point x="443.875" y="1050.125"/>
      <point x="539.125" y="1036.125"/>
      <point x="561.125" y="1029.5" type="curve"/>
      <point x="562.75" y="1014.5"/>
      <point x="563.375" y="996.25"/>
      <point x="563.375" y="981.625" type="curve" smooth="yes"/>
      <point x="563.375" y="963.375"/>
      <point x="562.125" y="943.0"/>
      <point x="560.25" y="915.0" type="curve"/>
      <point x="516.125" y="870.375"/>
      <point x="443.25" y="836.625"/>
    </contour>
  </outline>
</glyph>
<glyph name="guillemetleft" format="2">
  <advance width="1214.0"/>
  <unicode hex="00AB"/>
  <outline>
    <contour>
      <point x="1019.625" y="1135.0" type="curve"/>
      <point x="830.25" y="971.75"/>
      <point x="653.125" y="779.375"/>
      <point x="477.625" y="574.0" type="curve"/>
      <point x="1037.625" y="158.125" type="line"/>
      <point x="1056.25" y="209.0"/>
      <point x="1075.625" y="280.0"/>
      <point x="1076.25" y="323.75" type="curve"/>
      <point x="1022.625" y="368.75"/>
      <point x="816.5" y="506.0"/>
      <point x="676.125" y="597.5" type="curve"/>
      <point x="1118.5" y="1013.375" type="line"/>
      <point x="1102.5" y="1048.25"/>
      <point x="1064.125" y="1105.375"/>
    </contour>
    <contour>
      <point x="528.625" y="1120.0" type="curve"/>
      <point x="347.625" y="928.0"/>
      <point x="181.625" y="730.5"/>
      <point x="22.625" y="528.875" type="curve"/>
      <point x="215.625" y="331.375"/>
      <point x="427.25" y="157.75"/>
      <point x="649.625" y="0.0" type="curve"/>
      <point x="670.0" y="42.625"/>
      <point x="699.75" y="111.25"/>
      <point x="706.25" y="144.5" type="curve"/>
      <point x="676.25" y="161.5"/>
      <point x="408.125" y="380.0"/>
      <point x="214.25" y="540.375" type="curve"/>
      <point x="651.0" y="1020.5" type="line"/>
      <point x="618.25" y="1049.75"/>
      <point x="562.5" y="1096.5"/>
    </contour>
  </outline>
</glyph>
<glyph name="logicalnot" format="2">
  <advance width="1000.0"/>
  <unicode hex="00AC"/>
  <outline>
    <contour>
      <point x="896.75" y="798.375" type="curve"/>
      <point x="775.125" y="798.375"/>
      <point x="210.0" y="781.625"/>
      <point x="71.75" y="772.75" type="curve"/>
      <point x="71.25" y="729.625"/>
      <point x="73.125" y="657.125"/>
      <point x="75.0" y="616.5" type="curve"/>
      <point x="179.375" y="620.5"/>
      <point x="560.25" y="633.875"/>
      <point x="750.25" y="639.5" type="curve"/>
      <point x="748.0" y="579.5"/>
      <point x="739.0" y="366.625"/>
      <point x="734.0" y="290.0" type="curve"/>
      <point x="770.25" y="288.875"/>
      <point x="844.0" y="289.125"/>
      <point x="874.25" y="292.25" type="curve"/>
      <point x="883.0" y="458.625"/>
      <point x="891.5" y="726.5"/>
    </contour>
  </outline>
</glyph>
<glyph name="softhyphen" format="2">
  <advance width="719.125"/>
  <unicode hex="00AD"/>
  <outline>
    <contour>
      <point x="664.0" y="772.75" type="curve"/>
      <point x="607.0" y="779.25"/>
      <point x="519.0" y="781.125"/>
      <point x="410.5" y="781.125" type="curve" smooth="yes"/>
      <point x="275.375" y="781.125"/>
      <point x="149.125" y="769.125"/>
      <point x="54.375" y="756.75" type="curve"/>
      <point x="50.625" y="725.0"/>
      <point x="45.625" y="631.375"/>
      <point x="47.5" y="585.875" type="curve"/>
      <point x="184.625" y="597.25"/>
      <point x="523.375" y="608.375"/>
      <point x="669.75" y="608.375" type="curve"/>
      <point x="670.375" y="652.25"/>
      <point x="670.0" y="721.875"/>
    </contour>
  </outline>
</glyph>
<glyph name="registered" format="2">
  <advance width="1400.0"/>
  <unicode hex="00AE"/>
  <outline>
    <contour>
      <point x="730.875" y="267.5" type="curve" smooth="yes"/>
      <point x="1039.125" y="267.5"/>
      <point x="1288.875" y="414.25"/>
      <point x="1288.875" y="801.5" type="curve" smooth="yes"/>
      <point x="1288.875" y="1150.875"/>
      <point x="1059.875" y="1321.0"/>
      <point x="729.625" y="1321.0" type="curve" smooth="yes"/>
      <point x="394.125" y="1321.0"/>
      <point x="131.75" y="1118.875"/>
      <point x="131.75" y="765.375" type="curve" smooth="yes"/>
      <point x="131.75" y="455.25"/>
      <point x="352.625" y="267.5"/>
    </contour>
    <contour>
      <point x="721.5" y="390.25" type="curve" smooth="yes"/>
      <point x="501.25" y="390.25"/>
      <point x="290.5" y="488.25"/>
      <point x="290.5" y="776.5" type="curve" smooth="yes"/>
      <point x="290.5" y="1043.0"/>
      <point x="482.5" y="1201.125"/>
      <point x="724.875" y="1201.125" type="curve" smooth="yes"/>
      <point x="1007.75" y="1201.125"/>
      <point x="1129.625" y="1022.25"/>
      <point x="1129.625" y="789.125" type="curve" smooth="yes"/>
      <point x="1129.625" y="496.375"/>
      <point x="940.875" y="390.25"/>
    </contour>
    <contour>
      <point x="677.875" y="522.875" type="curve"/>
      <point x="677.875" y="568.75"/>
      <point x="677.5" y="730.375"/>
      <point x="676.75" y="766.5" type="curve"/>
      <point x="683.125" y="766.875"/>
      <point x="695.875" y="768.5"/>
      <point x="704.375" y="770.375" type="curve"/>
      <point x="747.5" y="690.125"/>
      <point x="785.125" y="598.0"/>
      <point x="827.625" y="522.875" type="curve"/>
      <point x="877.375" y="522.875"/>
      <point x="924.25" y="530.875"/>
      <point x="950.625" y="544.0" type="curve"/>
      <point x="931.25" y="584.0"/>
      <point x="848.5" y="737.5"/>
      <point x="806.25" y="797.875" type="curve"/>
      <point x="879.0" y="817.375"/>
      <point x="924.625" y="868.875"/>
      <point x="924.625" y="947.0" type="curve" smooth="yes"/>
      <point x="924.625" y="1047.375"/>
      <point x="816.25" y="1071.25"/>
      <point x="713.5" y="1071.25" type="curve" smooth="yes"/>
      <point x="644.875" y="1071.25"/>
      <point x="583.875" y="1058.625"/>
      <point x="551.25" y="1040.375" type="curve"/>
      <point x="550.125" y="942.0"/>
      <point x="549.25" y="662.75"/>
      <point x="549.25" y="542.375" type="curve"/>
      <point x="584.125" y="530.125"/>
      <point x="632.875" y="522.875"/>
    </contour>
    <contour>
      <point x="670.625" y="854.375" type="curve"/>
      <point x="670.625" y="871.25"/>
      <point x="665.25" y="961.125"/>
      <point x="663.625" y="975.5" type="curve"/>
      <point x="679.625" y="978.125"/>
      <point x="704.75" y="980.375"/>
      <point x="729.125" y="980.375" type="curve" smooth="yes"/>
      <point x="770.0" y="980.375"/>
      <point x="809.625" y="972.625"/>
      <point x="809.625" y="936.875" type="curve" smooth="yes"/>
      <point x="809.625" y="876.75"/>
      <point x="751.625" y="854.375"/>
    </contour>
  </outline>
</glyph>
<glyph name="degree" format="2">
  <advance width="814.0"/>
  <unicode hex="00B0"/>
  <outline>
    <contour>
      <point x="370.375" y="894.375" type="curve" smooth="yes"/>
      <point x="557.5" y="894.375"/>
      <point x="715.125" y="1043.75"/>
      <point x="715.125" y="1225.25" type="curve" smooth="yes"/>
      <point x="715.125" y="1388.375"/>
      <point x="565.875" y="1505.625"/>
      <point x="379.75" y="1505.625" type="curve" smooth="yes"/>
      <point x="199.0" y="1505.625"/>
      <point x="42.25" y="1377.75"/>
      <point x="42.25" y="1200.75" type="curve" smooth="yes"/>
      <point x="42.25" y="1030.875"/>
      <point x="187.0" y="894.375"/>
    </contour>
    <contour>
      <point x="370.25" y="1038.125" type="curve" smooth="yes"/>
      <point x="267.625" y="1038.125"/>
      <point x="205.875" y="1105.75"/>
      <point x="205.875" y="1211.375" type="curve" smooth="yes"/>
      <point x="205.875" y="1297.25"/>
      <point x="291.125" y="1361.875"/>
      <point x="371.125" y="1361.875" type="curve" smooth="yes"/>
      <point x="495.75" y="1361.875"/>
      <point x="551.25" y="1288.625"/>
      <point x="551.25" y="1198.0" type="curve" smooth="yes"/>
      <point x="551.25" y="1110.875"/>
      <point x="466.375" y="1038.125"/>
    </contour>
  </outline>
</glyph>
<glyph name="twosuperior" format="2">
  <advance width="741.375"/>
  <unicode hex="00B2"/>
  <outline>
    <contour>
      <point x="627.75" y="662.0" type="curve"/>
      <point x="536.5" y="657.5"/>
      <point x="327.625" y="643.5"/>
      <point x="266.5" y="636.125" type="curve"/>
      <point x="290.875" y="653.75"/>
      <point x="405.125" y="767.0"/>
      <point x="472.875" y="847.125" type="curve" smooth="yes"/>
      <point x="558.125" y="947.5"/>
      <point x="608.625" y="1047.25"/>
      <point x="608.625" y="1130.25" type="curve" smooth="yes"/>
      <point x="608.625" y="1244.75"/>
      <point x="518.5" y="1318.125"/>
      <point x="384.0" y="1318.125" type="curve" smooth="yes"/>
      <point x="234.25" y="1318.125"/>
      <point x="101.0" y="1234.5"/>
      <point x="35.75" y="1114.125" type="curve"/>
      <point x="59.75" y="1091.0"/>
      <point x="118.875" y="1046.75"/>
      <point x="152.375" y="1031.0" type="curve"/>
      <point x="189.75" y="1102.5"/>
      <point x="263.0" y="1166.75"/>
      <point x="362.375" y="1166.75" type="curve" smooth="yes"/>
      <point x="420.625" y="1166.75"/>
      <point x="468.0" y="1142.125"/>
      <point x="468.0" y="1087.875" type="curve" smooth="yes"/>
      <point x="468.0" y="1014.75"/>
      <point x="367.875" y="906.125"/>
      <point x="275.25" y="820.75" type="curve" smooth="yes"/>
      <point x="189.875" y="743.875"/>
      <point x="104.0" y="663.375"/>
      <point x="51.5" y="623.5" type="curve"/>
      <point x="53.875" y="578.125"/>
      <point x="72.375" y="503.125"/>
      <point x="75.75" y="490.0" type="curve"/>
      <point x="630.375" y="516.0" type="line"/>
      <point x="632.25" y="535.75"/>
      <point x="631.875" y="628.375"/>
    </contour>
  </outline>
</glyph>
<glyph name="threesuperior" format="2">
  <advance width="784.25"/>
  <unicode hex="00B3"/>
  <outline>
    <contour>
      <point x="350.625" y="498.0" type="curve" smooth="yes"/>
      <point x="529.125" y="498.0"/>
      <point x="671.625" y="586.5"/>
      <point x="671.625" y="735.25" type="curve" smooth="yes"/>
      <point x="671.625" y="862.0"/>
      <point x="557.25" y="916.25"/>
      <point x="439.75" y="922.625" type="curve"/>
      <point x="528.125" y="942.25"/>
      <point x="622.5" y="1003.875"/>
      <point x="622.5" y="1098.875" type="curve" smooth="yes"/>
      <point x="622.5" y="1220.25"/>
      <point x="505.25" y="1289.125"/>
      <point x="362.625" y="1289.125" type="curve" smooth="yes"/>
      <point x="192.5" y="1289.125"/>
      <point x="71.625" y="1207.375"/>
      <point x="26.0" y="1167.875" type="curve"/>
      <point x="40.5" y="1151.25"/>
      <point x="105.875" y="1097.75"/>
      <point x="132.0" y="1076.5" type="curve"/>
      <point x="173.625" y="1117.125"/>
      <point x="264.25" y="1159.25"/>
      <point x="353.25" y="1159.25" type="curve" smooth="yes"/>
      <point x="437.0" y="1159.25"/>
      <point x="476.75" y="1120.625"/>
      <point x="476.75" y="1070.0" type="curve" smooth="yes"/>
      <point x="476.75" y="991.5"/>
      <point x="332.75" y="951.375"/>
      <point x="194.0" y="951.375" type="curve"/>
      <point x="194.0" y="917.625"/>
      <point x="200.0" y="866.625"/>
      <point x="206.625" y="847.25" type="curve"/>
      <point x="415.375" y="847.25"/>
      <point x="522.625" y="830.125"/>
      <point x="522.625" y="733.375" type="curve" smooth="yes"/>
      <point x="522.625" y="660.25"/>
      <point x="450.625" y="617.25"/>
      <point x="350.125" y="617.25" type="curve" smooth="yes"/>
      <point x="255.0" y="617.25"/>
      <point x="182.625" y="658.125"/>
      <point x="163.0" y="711.5" type="curve"/>
      <point x="127.0" y="697.0"/>
      <point x="71.125" y="663.875"/>
      <point x="39.0" y="641.625" type="curve"/>
      <point x="72.5" y="557.625"/>
      <point x="197.75" y="498.0"/>
    </contour>
  </outline>
</glyph>
<glyph name="micro" format="2">
  <advance width="1178.0"/>
  <unicode hex="00B5"/>
  <anchor x="581.5" y="0.0" name="bottom"/>
  <anchor x="772.25" y="0.0" name="ogonek"/>
  <anchor x="581.5" y="1063.0" name="top"/>
  <anchor x="972.375" y="925.75" name="topright"/>
  <outline>
    <contour>
      <point x="145.75" y="-392.25" type="curve"/>
      <point x="205.0" y="-392.25"/>
      <point x="280.75" y="-387.625"/>
      <point x="330.125" y="-379.125" type="curve"/>
      <point x="322.75" y="-305.125"/>
      <point x="311.75" y="-120.0"/>
      <point x="308.625" y="21.0" type="curve" smooth="yes"/>
      <point x="303.625" y="253.0"/>
      <point x="301.625" y="430.0"/>
      <point x="305.75" y="678.375" type="curve"/>
      <point x="103.5" y="675.125" type="line"/>
      <point x="103.5" y="337.5"/>
      <point x="127.0" y="-174.625"/>
    </contour>
    <component base="u"/>
  </outline>
</glyph>
